<?xml version="1.0" encoding="utf-8" standalone="no"?>
<!DOCTYPE svg PUBLIC "-//W3C//DTD SVG 1.1//EN"
  "http://www.w3.org/Graphics/SVG/1.1/DTD/svg11.dtd">
<svg xmlns:xlink="http://www.w3.org/1999/xlink" width="288pt" height="288pt" viewBox="0 0 288 288" xmlns="http://www.w3.org/2000/svg" version="1.1">
 <metadata>
  <rdf:RDF xmlns:dc="http://purl.org/dc/elements/1.1/" xmlns:cc="http://creativecommons.org/ns#" xmlns:rdf="http://www.w3.org/1999/02/22-rdf-syntax-ns#">
   <cc:Work>
    <dc:type rdf:resource="http://purl.org/dc/dcmitype/StillImage"/>
    <dc:date>2024-05-17T14:00:41.933860</dc:date>
    <dc:format>image/svg+xml</dc:format>
    <dc:creator>
     <cc:Agent>
      <dc:title>Matplotlib v3.8.4, https://matplotlib.org/</dc:title>
     </cc:Agent>
    </dc:creator>
   </cc:Work>
  </rdf:RDF>
 </metadata>
 <defs>
  <style type="text/css">*{stroke-linejoin: round; stroke-linecap: butt}</style>
 </defs>
 <g id="figure_1">
  <g id="patch_1">
   <path d="M 0 288 
L 288 288 
L 288 0 
L 0 0 
z
" style="fill: #ffffff"/>
  </g>
  <g id="axes_1">
   <g id="patch_2">
    <path d="M 36 256.32 
L 259.2 256.32 
L 259.2 34.56 
L 36 34.56 
z
" style="fill: #ffffff"/>
   </g>
   <g id="PolyCollection_1">
    <path d="M 116.014599 367.2 
L 46.145455 367.2 
L 46.145455 366.31296 
L 46.145455 365.42592 
L 46.145455 364.53888 
L 46.145455 363.65184 
L 46.145455 362.7648 
L 46.145455 361.87776 
L 46.145455 360.99072 
L 46.145455 360.10368 
L 46.145455 359.21664 
L 46.145455 358.3296 
L 46.145455 357.44256 
L 46.145455 356.55552 
L 46.145455 355.66848 
L 46.145455 354.78144 
L 46.145455 353.8944 
L 46.145455 353.00736 
L 46.145455 352.12032 
L 46.145455 351.23328 
L 46.145455 350.34624 
L 46.145455 349.4592 
L 46.145455 348.57216 
L 46.145455 347.68512 
L 46.145455 346.79808 
L 46.145455 345.91104 
L 46.145455 345.024 
L 46.145455 344.13696 
L 46.145455 343.24992 
L 46.145455 342.36288 
L 46.145455 341.47584 
L 46.145455 340.5888 
L 46.145455 339.70176 
L 46.145455 338.81472 
L 46.145455 337.92768 
L 46.145455 337.04064 
L 46.145455 336.1536 
L 46.145455 335.26656 
L 46.145455 334.37952 
L 46.145455 333.49248 
L 46.145455 332.60544 
L 46.145455 331.7184 
L 46.145455 330.83136 
L 46.145455 329.94432 
L 46.145455 329.05728 
L 46.145455 328.17024 
L 46.145455 327.2832 
L 46.145455 326.39616 
L 46.145455 325.50912 
L 46.145455 324.62208 
L 46.145455 323.73504 
L 46.145455 322.848 
L 46.145455 321.96096 
L 46.145455 321.07392 
L 46.145455 320.18688 
L 46.145455 319.29984 
L 46.145455 318.4128 
L 46.145455 317.52576 
L 46.145455 316.63872 
L 46.145455 315.75168 
L 46.145455 314.86464 
L 46.145455 313.9776 
L 46.145455 313.09056 
L 46.145455 312.20352 
L 46.145455 311.31648 
L 46.145455 310.42944 
L 46.145455 309.5424 
L 46.145455 308.65536 
L 46.145455 307.76832 
L 46.145455 306.88128 
L 46.145455 305.99424 
L 46.145455 305.1072 
L 46.145455 304.22016 
L 46.145455 303.33312 
L 46.145455 302.44608 
L 46.145455 301.55904 
L 46.145455 300.672 
L 46.145455 299.78496 
L 46.145455 298.89792 
L 46.145455 298.01088 
L 46.145455 297.12384 
L 46.145455 296.2368 
L 46.145455 295.34976 
L 46.145455 294.46272 
L 46.145455 293.57568 
L 46.145455 292.68864 
L 46.145455 291.8016 
L 46.145455 290.91456 
L 46.145455 290.02752 
L 46.145455 289.14048 
L 46.145455 288.25344 
L 46.145455 287.3664 
L 46.145455 286.47936 
L 46.145455 285.59232 
L 46.145455 284.70528 
L 46.145455 283.81824 
L 46.145455 282.9312 
L 46.145455 282.04416 
L 46.145455 281.15712 
L 46.145455 280.27008 
L 46.145455 279.38304 
L 46.145455 278.496 
L 46.145455 277.60896 
L 46.145455 276.72192 
L 46.145455 275.83488 
L 46.145455 274.94784 
L 46.145455 274.0608 
L 46.145455 273.17376 
L 46.145455 272.28672 
L 46.145455 271.39968 
L 46.145455 270.51264 
L 46.145455 269.6256 
L 46.145455 268.73856 
L 46.145455 267.85152 
L 46.145455 266.96448 
L 46.145455 266.07744 
L 46.145455 265.1904 
L 46.145455 264.30336 
L 46.145455 263.41632 
L 46.145455 262.52928 
L 46.145455 261.64224 
L 46.145455 260.7552 
L 46.145455 259.86816 
L 46.145455 258.98112 
L 46.145455 258.09408 
L 46.145455 257.20704 
L 46.145455 256.32 
L 46.145455 255.43296 
L 46.145455 254.54592 
L 46.145455 253.65888 
L 46.145455 252.77184 
L 46.145455 251.8848 
L 46.145455 250.99776 
L 46.145455 250.11072 
L 46.145455 249.22368 
L 46.145455 248.33664 
L 46.145455 247.4496 
L 46.145455 246.56256 
L 46.145455 245.67552 
L 46.145455 244.78848 
L 46.145455 243.90144 
L 46.145455 243.0144 
L 46.145455 242.12736 
L 46.145455 241.24032 
L 46.145455 240.35328 
L 46.145455 239.46624 
L 46.145455 238.5792 
L 46.145455 237.69216 
L 46.145455 236.80512 
L 46.145455 235.91808 
L 46.145455 235.03104 
L 46.145455 234.144 
L 46.145455 233.25696 
L 46.145455 232.36992 
L 46.145455 231.48288 
L 46.145455 230.59584 
L 46.145455 229.7088 
L 46.145455 228.82176 
L 46.145455 227.93472 
L 46.145455 227.04768 
L 46.145455 226.16064 
L 46.145455 225.2736 
L 46.145455 224.38656 
L 46.145455 223.49952 
L 46.145455 222.61248 
L 46.145455 221.72544 
L 46.145455 220.8384 
L 46.145455 219.95136 
L 46.145455 219.06432 
L 46.145455 218.17728 
L 46.145455 217.29024 
L 46.145455 216.4032 
L 46.145455 215.51616 
L 46.145455 214.62912 
L 46.145455 213.74208 
L 46.145455 212.85504 
L 46.145455 211.968 
L 46.145455 211.08096 
L 46.145455 210.19392 
L 46.145455 209.30688 
L 46.145455 208.41984 
L 46.145455 207.5328 
L 46.145455 206.64576 
L 46.145455 205.75872 
L 46.145455 204.87168 
L 46.145455 203.98464 
L 46.145455 203.0976 
L 46.145455 202.21056 
L 46.145455 201.32352 
L 46.145455 200.43648 
L 46.145455 199.54944 
L 46.145455 198.6624 
L 46.145455 197.77536 
L 46.145455 196.88832 
L 46.145455 196.00128 
L 46.145455 195.11424 
L 46.145455 194.2272 
L 46.145455 193.34016 
L 46.145455 192.45312 
L 46.145455 191.56608 
L 46.145455 190.67904 
L 46.145455 189.792 
L 46.145455 188.90496 
L 46.145455 188.01792 
L 46.145455 187.13088 
L 46.145455 186.24384 
L 46.145455 185.3568 
L 46.145455 184.46976 
L 46.145455 183.58272 
L 46.145455 182.69568 
L 46.145455 181.80864 
L 46.145455 180.9216 
L 46.145455 180.03456 
L 46.145455 179.14752 
L 46.145455 178.26048 
L 46.145455 177.37344 
L 46.145455 176.4864 
L 46.145455 175.59936 
L 46.145455 174.71232 
L 46.145455 173.82528 
L 46.145455 172.93824 
L 46.145455 172.0512 
L 46.145455 171.16416 
L 46.145455 170.27712 
L 46.145455 169.39008 
L 46.145455 168.50304 
L 46.145455 167.616 
L 46.145455 166.72896 
L 46.145455 165.84192 
L 46.145455 164.95488 
L 46.145455 164.06784 
L 46.145455 163.1808 
L 46.145455 162.29376 
L 46.145455 161.40672 
L 46.145455 160.51968 
L 46.145455 159.63264 
L 46.145455 158.7456 
L 46.145455 157.85856 
L 46.145455 156.97152 
L 46.145455 156.08448 
L 46.145455 155.19744 
L 46.145455 154.3104 
L 46.145455 153.42336 
L 46.145455 152.53632 
L 46.145455 151.64928 
L 46.145455 150.76224 
L 46.145455 149.8752 
L 46.145455 148.98816 
L 46.145455 148.10112 
L 46.145455 147.21408 
L 46.145455 146.32704 
L 46.145455 145.44 
L 46.145455 144.55296 
L 46.145455 143.66592 
L 46.145455 142.77888 
L 46.145455 141.89184 
L 46.145455 141.0048 
L 46.145455 140.11776 
L 46.145455 139.23072 
L 46.145455 138.34368 
L 46.145455 137.45664 
L 46.145455 136.5696 
L 46.145455 135.68256 
L 46.145455 134.79552 
L 46.145455 133.90848 
L 46.145455 133.02144 
L 46.145455 132.1344 
L 46.145455 131.24736 
L 46.145455 130.36032 
L 46.145455 129.47328 
L 46.145455 128.58624 
L 46.145455 127.6992 
L 46.145455 126.81216 
L 46.145455 125.92512 
L 46.145455 125.03808 
L 46.145455 124.15104 
L 46.145455 123.264 
L 46.145455 122.37696 
L 46.145455 121.48992 
L 46.145455 120.60288 
L 46.145455 119.71584 
L 46.145455 118.8288 
L 46.145455 117.94176 
L 46.145455 117.05472 
L 46.145455 116.16768 
L 46.145455 115.28064 
L 46.145455 114.3936 
L 46.145455 113.50656 
L 46.145455 112.61952 
L 46.145455 111.73248 
L 46.145455 110.84544 
L 46.145455 109.9584 
L 46.145455 109.07136 
L 46.145455 108.18432 
L 46.145455 107.29728 
L 46.145455 106.41024 
L 46.145455 105.5232 
L 46.145455 104.63616 
L 46.145455 103.74912 
L 46.145455 102.86208 
L 46.145455 101.97504 
L 46.145455 101.088 
L 46.145455 100.20096 
L 46.145455 99.31392 
L 46.145455 98.42688 
L 46.145455 97.53984 
L 46.145455 96.6528 
L 46.145455 95.76576 
L 46.145455 94.87872 
L 46.145455 93.99168 
L 46.145455 93.10464 
L 46.145455 92.2176 
L 46.145455 91.33056 
L 46.145455 90.44352 
L 46.145455 89.55648 
L 46.145455 88.66944 
L 46.145455 87.7824 
L 46.145455 86.89536 
L 46.145455 86.00832 
L 46.145455 85.12128 
L 46.145455 84.23424 
L 46.145455 83.3472 
L 46.145455 82.46016 
L 46.145455 81.57312 
L 46.145455 80.68608 
L 46.145455 79.79904 
L 46.145455 78.912 
L 46.145455 78.02496 
L 46.145455 77.13792 
L 46.145455 76.25088 
L 46.145455 75.36384 
L 46.145455 74.4768 
L 46.145455 73.58976 
L 46.145455 72.70272 
L 46.145455 71.81568 
L 46.145455 70.92864 
L 46.145455 70.0416 
L 46.145455 69.15456 
L 46.145455 68.26752 
L 46.145455 67.38048 
L 46.145455 66.49344 
L 46.145455 65.6064 
L 46.145455 64.71936 
L 46.145455 63.83232 
L 46.145455 62.94528 
L 46.145455 62.05824 
L 46.145455 61.1712 
L 46.145455 60.28416 
L 46.145455 59.39712 
L 46.145455 58.51008 
L 46.145455 57.62304 
L 46.145455 56.736 
L 46.145455 55.84896 
L 46.145455 54.96192 
L 46.145455 54.07488 
L 46.145455 53.18784 
L 46.145455 52.3008 
L 46.145455 51.41376 
L 46.145455 50.52672 
L 46.145455 49.63968 
L 46.145455 48.75264 
L 46.145455 47.8656 
L 46.145455 46.97856 
L 46.145455 46.09152 
L 46.145455 45.20448 
L 46.145455 44.31744 
L 46.145455 43.4304 
L 46.145455 42.54336 
L 46.145455 41.65632 
L 46.145455 40.76928 
L 46.145455 39.88224 
L 46.145455 38.9952 
L 46.145455 38.10816 
L 46.145455 37.22112 
L 46.145455 36.33408 
L 46.145455 35.44704 
L 46.145455 34.56 
L 46.145455 33.67296 
L 46.145455 32.78592 
L 46.145455 31.89888 
L 46.145455 31.01184 
L 46.145455 30.1248 
L 46.145455 29.23776 
L 46.145455 28.35072 
L 46.145455 27.46368 
L 46.145455 26.57664 
L 46.145455 25.6896 
L 46.145455 24.80256 
L 46.145455 23.91552 
L 46.145455 23.02848 
L 46.145455 22.14144 
L 46.145455 21.2544 
L 46.145455 20.36736 
L 46.145455 19.48032 
L 46.145455 18.59328 
L 46.145455 17.70624 
L 46.145455 16.8192 
L 46.145455 15.93216 
L 46.145455 15.04512 
L 46.145455 14.15808 
L 46.145455 13.27104 
L 46.145455 12.384 
L 46.145455 11.49696 
L 46.145455 10.60992 
L 46.145455 9.72288 
L 46.145455 8.83584 
L 46.145455 7.9488 
L 46.145455 7.06176 
L 46.145455 6.17472 
L 46.145455 5.28768 
L 46.145455 4.40064 
L 46.145455 3.5136 
L 46.145455 2.62656 
L 46.145455 1.73952 
L 46.145455 0.85248 
L 46.145455 -0.03456 
L 46.145455 -0.9216 
L 46.145455 -1.80864 
L 46.145455 -2.69568 
L 46.145455 -3.58272 
L 46.145455 -4.46976 
L 46.145455 -5.3568 
L 46.145455 -6.24384 
L 46.145455 -7.13088 
L 46.145455 -8.01792 
L 46.145455 -8.90496 
L 46.145455 -9.792 
L 46.145455 -10.67904 
L 46.145455 -11.56608 
L 46.145455 -12.45312 
L 46.145455 -13.34016 
L 46.145455 -14.2272 
L 46.145455 -15.11424 
L 46.145455 -16.00128 
L 46.145455 -16.88832 
L 46.145455 -17.77536 
L 46.145455 -18.6624 
L 46.145455 -19.54944 
L 46.145455 -20.43648 
L 46.145455 -21.32352 
L 46.145455 -22.21056 
L 46.145455 -23.0976 
L 46.145455 -23.98464 
L 46.145455 -24.87168 
L 46.145455 -25.75872 
L 46.145455 -26.64576 
L 46.145455 -27.5328 
L 46.145455 -28.41984 
L 46.145455 -29.30688 
L 46.145455 -30.19392 
L 46.145455 -31.08096 
L 46.145455 -31.968 
L 46.145455 -32.85504 
L 46.145455 -33.74208 
L 46.145455 -34.62912 
L 46.145455 -35.51616 
L 46.145455 -36.4032 
L 46.145455 -37.29024 
L 46.145455 -38.17728 
L 46.145455 -39.06432 
L 46.145455 -39.95136 
L 46.145455 -40.8384 
L 46.145455 -41.72544 
L 46.145455 -42.61248 
L 46.145455 -43.49952 
L 46.145455 -44.38656 
L 46.145455 -45.2736 
L 46.145455 -46.16064 
L 46.145455 -47.04768 
L 46.145455 -47.93472 
L 46.145455 -48.82176 
L 46.145455 -49.7088 
L 46.145455 -50.59584 
L 46.145455 -51.48288 
L 46.145455 -52.36992 
L 46.145455 -53.25696 
L 46.145455 -54.144 
L 46.145455 -55.03104 
L 46.145455 -55.91808 
L 46.145455 -56.80512 
L 46.145455 -57.69216 
L 46.145455 -58.5792 
L 46.145455 -59.46624 
L 46.145455 -60.35328 
L 46.145455 -61.24032 
L 46.145455 -62.12736 
L 46.145455 -63.0144 
L 46.145455 -63.90144 
L 46.145455 -64.78848 
L 46.145455 -65.67552 
L 46.145455 -66.56256 
L 46.145455 -67.4496 
L 46.145455 -68.33664 
L 46.145455 -69.22368 
L 46.145455 -70.11072 
L 46.145455 -70.99776 
L 46.145455 -71.8848 
L 46.145455 -72.77184 
L 46.145455 -73.65888 
L 46.145455 -74.54592 
L 46.145455 -75.43296 
L 46.145455 -76.32 
L 116.014599 -76.32 
L 116.014599 -76.32 
L 116.033604 -75.43296 
L 116.052857 -74.54592 
L 116.072363 -73.65888 
L 116.092127 -72.77184 
L 116.112152 -71.8848 
L 116.132444 -70.99776 
L 116.153008 -70.11072 
L 116.173848 -69.22368 
L 116.19497 -68.33664 
L 116.216379 -67.4496 
L 116.23808 -66.56256 
L 116.260078 -65.67552 
L 116.28238 -64.78848 
L 116.304991 -63.90144 
L 116.327916 -63.0144 
L 116.351162 -62.12736 
L 116.374736 -61.24032 
L 116.398642 -60.35328 
L 116.422888 -59.46624 
L 116.44748 -58.5792 
L 116.472425 -57.69216 
L 116.49773 -56.80512 
L 116.523402 -55.91808 
L 116.549449 -55.03104 
L 116.575877 -54.144 
L 116.602695 -53.25696 
L 116.629911 -52.36992 
L 116.657532 -51.48288 
L 116.685566 -50.59584 
L 116.714024 -49.7088 
L 116.742912 -48.82176 
L 116.77224 -47.93472 
L 116.802017 -47.04768 
L 116.832253 -46.16064 
L 116.862957 -45.2736 
L 116.89414 -44.38656 
L 116.925812 -43.49952 
L 116.957982 -42.61248 
L 116.990663 -41.72544 
L 117.023864 -40.8384 
L 117.057598 -39.95136 
L 117.091877 -39.06432 
L 117.126712 -38.17728 
L 117.162116 -37.29024 
L 117.198101 -36.4032 
L 117.234682 -35.51616 
L 117.271871 -34.62912 
L 117.309682 -33.74208 
L 117.34813 -32.85504 
L 117.38723 -31.968 
L 117.426996 -31.08096 
L 117.467446 -30.19392 
L 117.508594 -29.30688 
L 117.550457 -28.41984 
L 117.593053 -27.5328 
L 117.6364 -26.64576 
L 117.680516 -25.75872 
L 117.725419 -24.87168 
L 117.771129 -23.98464 
L 117.817667 -23.0976 
L 117.865053 -22.21056 
L 117.913308 -21.32352 
L 117.962455 -20.43648 
L 118.012517 -19.54944 
L 118.063517 -18.6624 
L 118.115479 -17.77536 
L 118.16843 -16.88832 
L 118.222395 -16.00128 
L 118.277401 -15.11424 
L 118.333476 -14.2272 
L 118.390649 -13.34016 
L 118.44895 -12.45312 
L 118.50841 -11.56608 
L 118.569062 -10.67904 
L 118.630939 -9.792 
L 118.694074 -8.90496 
L 118.758505 -8.01792 
L 118.824269 -7.13088 
L 118.891403 -6.24384 
L 118.959948 -5.3568 
L 119.029945 -4.46976 
L 119.101439 -3.58272 
L 119.174473 -2.69568 
L 119.249094 -1.80864 
L 119.32535 -0.9216 
L 119.403293 -0.03456 
L 119.482975 0.85248 
L 119.56445 1.73952 
L 119.647775 2.62656 
L 119.733009 3.5136 
L 119.820215 4.40064 
L 119.909456 5.28768 
L 120.0008 6.17472 
L 120.094318 7.06176 
L 120.190081 7.9488 
L 120.288168 8.83584 
L 120.388657 9.72288 
L 120.491633 10.60992 
L 120.597182 11.49696 
L 120.705397 12.384 
L 120.816374 13.27104 
L 120.930212 14.15808 
L 121.047018 15.04512 
L 121.166901 15.93216 
L 121.289979 16.8192 
L 121.416372 17.70624 
L 121.546209 18.59328 
L 121.679625 19.48032 
L 121.816762 20.36736 
L 121.957769 21.2544 
L 122.102802 22.14144 
L 122.25203 23.02848 
L 122.405626 23.91552 
L 122.563776 24.80256 
L 122.726676 25.6896 
L 122.894532 26.57664 
L 123.067565 27.46368 
L 123.246006 28.35072 
L 123.430102 29.23776 
L 123.620116 30.1248 
L 123.816326 31.01184 
L 124.019027 31.89888 
L 124.228537 32.78592 
L 124.445191 33.67296 
L 124.669349 34.56 
L 124.901396 35.44704 
L 125.141743 36.33408 
L 125.390831 37.22112 
L 125.649134 38.10816 
L 125.917159 38.9952 
L 126.195456 39.88224 
L 126.484615 40.76928 
L 126.785273 41.65632 
L 127.09812 42.54336 
L 127.423906 43.4304 
L 127.763442 44.31744 
L 128.117613 45.20448 
L 128.487383 46.09152 
L 128.873806 46.97856 
L 129.278037 47.8656 
L 129.701345 48.75264 
L 130.145128 49.63968 
L 130.61093 50.52672 
L 131.100464 51.41376 
L 131.615633 52.3008 
L 132.158562 53.18784 
L 132.731629 54.07488 
L 133.337513 54.96192 
L 133.97924 55.84896 
L 134.660246 56.736 
L 135.384455 57.62304 
L 136.156372 58.51008 
L 136.981206 59.39712 
L 137.865019 60.28416 
L 138.814924 61.1712 
L 139.839341 62.05824 
L 140.948332 62.94528 
L 142.154062 63.83232 
L 143.471419 64.71936 
L 144.918896 65.6064 
L 146.519855 66.49344 
L 148.304397 67.38048 
L 150.312237 68.26752 
L 152.597297 69.15456 
L 155.235421 70.0416 
L 158.338188 70.92864 
L 162.079695 71.81568 
L 166.754409 72.70272 
L 172.922899 73.58976 
L 181.878864 74.4768 
L 198.026309 75.36384 
L 237.566201 76.25088 
L 192.388127 77.13792 
L 178.528008 78.02496 
L 170.028679 78.912 
L 163.84467 79.79904 
L 158.95818 80.68608 
L 154.90268 81.57312 
L 151.425121 82.46016 
L 148.372776 83.3472 
L 145.646349 84.23424 
L 143.177626 85.12128 
L 140.917715 86.00832 
L 138.830366 86.89536 
L 136.887943 87.7824 
L 135.068884 88.66944 
L 133.356029 89.55648 
L 131.735477 90.44352 
L 130.195792 91.33056 
L 128.727421 92.2176 
L 127.322266 93.10464 
L 125.973348 93.99168 
L 124.674537 94.87872 
L 123.420297 95.76576 
L 122.205437 96.6528 
L 121.024777 97.53984 
L 119.872629 98.42688 
L 118.741786 99.31392 
L 117.621148 100.20096 
L 116.488888 101.088 
L 115.286437 101.97504 
L 113.753804 102.86208 
L 104.099044 103.74912 
L 47.774507 104.63616 
L 46.940753 105.5232 
L 46.68283 106.41024 
L 46.556298 107.29728 
L 46.480735 108.18432 
L 46.430325 109.07136 
L 46.394211 109.9584 
L 46.367021 110.84544 
L 46.345789 111.73248 
L 46.328739 112.61952 
L 46.314742 113.50656 
L 46.303048 114.3936 
L 46.293133 115.28064 
L 46.284626 116.16768 
L 46.277251 117.05472 
L 46.270803 117.94176 
L 46.265122 118.8288 
L 46.260087 119.71584 
L 46.255599 120.60288 
L 46.251579 121.48992 
L 46.247965 122.37696 
L 46.244704 123.264 
L 46.241753 124.15104 
L 46.239076 125.03808 
L 46.236643 125.92512 
L 46.234427 126.81216 
L 46.232407 127.6992 
L 46.230565 128.58624 
L 46.228884 129.47328 
L 46.227351 130.36032 
L 46.225953 131.24736 
L 46.22468 132.1344 
L 46.223523 133.02144 
L 46.222473 133.90848 
L 46.221525 134.79552 
L 46.220671 135.68256 
L 46.219907 136.5696 
L 46.219229 137.45664 
L 46.218631 138.34368 
L 46.218111 139.23072 
L 46.217666 140.11776 
L 46.217293 141.0048 
L 46.216991 141.89184 
L 46.216758 142.77888 
L 46.216592 143.66592 
L 46.216493 144.55296 
L 46.21646 145.44 
L 46.216493 146.32704 
L 46.216592 147.21408 
L 46.216758 148.10112 
L 46.216991 148.98816 
L 46.217293 149.8752 
L 46.217666 150.76224 
L 46.218111 151.64928 
L 46.218631 152.53632 
L 46.219229 153.42336 
L 46.219907 154.3104 
L 46.220671 155.19744 
L 46.221525 156.08448 
L 46.222473 156.97152 
L 46.223523 157.85856 
L 46.22468 158.7456 
L 46.225953 159.63264 
L 46.227351 160.51968 
L 46.228884 161.40672 
L 46.230565 162.29376 
L 46.232407 163.1808 
L 46.234427 164.06784 
L 46.236643 164.95488 
L 46.239076 165.84192 
L 46.241753 166.72896 
L 46.244704 167.616 
L 46.247965 168.50304 
L 46.251579 169.39008 
L 46.255599 170.27712 
L 46.260087 171.16416 
L 46.265122 172.0512 
L 46.270803 172.93824 
L 46.277251 173.82528 
L 46.284626 174.71232 
L 46.293133 175.59936 
L 46.303048 176.4864 
L 46.314742 177.37344 
L 46.328739 178.26048 
L 46.345789 179.14752 
L 46.367021 180.03456 
L 46.394211 180.9216 
L 46.430325 181.80864 
L 46.480735 182.69568 
L 46.556298 183.58272 
L 46.68283 184.46976 
L 46.940753 185.3568 
L 47.774507 186.24384 
L 104.099044 187.13088 
L 113.753804 188.01792 
L 115.286437 188.90496 
L 116.488888 189.792 
L 117.621148 190.67904 
L 118.741786 191.56608 
L 119.872629 192.45312 
L 121.024777 193.34016 
L 122.205437 194.2272 
L 123.420297 195.11424 
L 124.674537 196.00128 
L 125.973348 196.88832 
L 127.322266 197.77536 
L 128.727421 198.6624 
L 130.195792 199.54944 
L 131.735477 200.43648 
L 133.356029 201.32352 
L 135.068884 202.21056 
L 136.887943 203.0976 
L 138.830366 203.98464 
L 140.917715 204.87168 
L 143.177626 205.75872 
L 145.646349 206.64576 
L 148.372776 207.5328 
L 151.425121 208.41984 
L 154.90268 209.30688 
L 158.95818 210.19392 
L 163.84467 211.08096 
L 170.028679 211.968 
L 178.528008 212.85504 
L 192.388127 213.74208 
L 237.566201 214.62912 
L 198.026309 215.51616 
L 181.878864 216.4032 
L 172.922899 217.29024 
L 166.754409 218.17728 
L 162.079695 219.06432 
L 158.338188 219.95136 
L 155.235421 220.8384 
L 152.597297 221.72544 
L 150.312237 222.61248 
L 148.304397 223.49952 
L 146.519855 224.38656 
L 144.918896 225.2736 
L 143.471419 226.16064 
L 142.154062 227.04768 
L 140.948332 227.93472 
L 139.839341 228.82176 
L 138.814924 229.7088 
L 137.865019 230.59584 
L 136.981206 231.48288 
L 136.156372 232.36992 
L 135.384455 233.25696 
L 134.660246 234.144 
L 133.97924 235.03104 
L 133.337513 235.91808 
L 132.731629 236.80512 
L 132.158562 237.69216 
L 131.615633 238.5792 
L 131.100464 239.46624 
L 130.61093 240.35328 
L 130.145128 241.24032 
L 129.701345 242.12736 
L 129.278037 243.0144 
L 128.873806 243.90144 
L 128.487383 244.78848 
L 128.117613 245.67552 
L 127.763442 246.56256 
L 127.423906 247.4496 
L 127.09812 248.33664 
L 126.785273 249.22368 
L 126.484615 250.11072 
L 126.195456 250.99776 
L 125.917159 251.8848 
L 125.649134 252.77184 
L 125.390831 253.65888 
L 125.141743 254.54592 
L 124.901396 255.43296 
L 124.669349 256.32 
L 124.445191 257.20704 
L 124.228537 258.09408 
L 124.019027 258.98112 
L 123.816326 259.86816 
L 123.620116 260.7552 
L 123.430102 261.64224 
L 123.246006 262.52928 
L 123.067565 263.41632 
L 122.894532 264.30336 
L 122.726676 265.1904 
L 122.563776 266.07744 
L 122.405626 266.96448 
L 122.25203 267.85152 
L 122.102802 268.73856 
L 121.957769 269.6256 
L 121.816762 270.51264 
L 121.679625 271.39968 
L 121.546209 272.28672 
L 121.416372 273.17376 
L 121.289979 274.0608 
L 121.166901 274.94784 
L 121.047018 275.83488 
L 120.930212 276.72192 
L 120.816374 277.60896 
L 120.705397 278.496 
L 120.597182 279.38304 
L 120.491633 280.27008 
L 120.388657 281.15712 
L 120.288168 282.04416 
L 120.190081 282.9312 
L 120.094318 283.81824 
L 120.0008 284.70528 
L 119.909456 285.59232 
L 119.820215 286.47936 
L 119.733009 287.3664 
L 119.647775 288.25344 
L 119.56445 289.14048 
L 119.482975 290.02752 
L 119.403293 290.91456 
L 119.32535 291.8016 
L 119.249094 292.68864 
L 119.174473 293.57568 
L 119.101439 294.46272 
L 119.029945 295.34976 
L 118.959948 296.2368 
L 118.891403 297.12384 
L 118.824269 298.01088 
L 118.758505 298.89792 
L 118.694074 299.78496 
L 118.630939 300.672 
L 118.569062 301.55904 
L 118.50841 302.44608 
L 118.44895 303.33312 
L 118.390649 304.22016 
L 118.333476 305.1072 
L 118.277401 305.99424 
L 118.222395 306.88128 
L 118.16843 307.76832 
L 118.115479 308.65536 
L 118.063517 309.5424 
L 118.012517 310.42944 
L 117.962455 311.31648 
L 117.913308 312.20352 
L 117.865053 313.09056 
L 117.817667 313.9776 
L 117.771129 314.86464 
L 117.725419 315.75168 
L 117.680516 316.63872 
L 117.6364 317.52576 
L 117.593053 318.4128 
L 117.550457 319.29984 
L 117.508594 320.18688 
L 117.467446 321.07392 
L 117.426996 321.96096 
L 117.38723 322.848 
L 117.34813 323.73504 
L 117.309682 324.62208 
L 117.271871 325.50912 
L 117.234682 326.39616 
L 117.198101 327.2832 
L 117.162116 328.17024 
L 117.126712 329.05728 
L 117.091877 329.94432 
L 117.057598 330.83136 
L 117.023864 331.7184 
L 116.990663 332.60544 
L 116.957982 333.49248 
L 116.925812 334.37952 
L 116.89414 335.26656 
L 116.862957 336.1536 
L 116.832253 337.04064 
L 116.802017 337.92768 
L 116.77224 338.81472 
L 116.742912 339.70176 
L 116.714024 340.5888 
L 116.685566 341.47584 
L 116.657532 342.36288 
L 116.629911 343.24992 
L 116.602695 344.13696 
L 116.575877 345.024 
L 116.549449 345.91104 
L 116.523402 346.79808 
L 116.49773 347.68512 
L 116.472425 348.57216 
L 116.44748 349.4592 
L 116.422888 350.34624 
L 116.398642 351.23328 
L 116.374736 352.12032 
L 116.351162 353.00736 
L 116.327916 353.8944 
L 116.304991 354.78144 
L 116.28238 355.66848 
L 116.260078 356.55552 
L 116.23808 357.44256 
L 116.216379 358.3296 
L 116.19497 359.21664 
L 116.173848 360.10368 
L 116.153008 360.99072 
L 116.132444 361.87776 
L 116.112152 362.7648 
L 116.092127 363.65184 
L 116.072363 364.53888 
L 116.052857 365.42592 
L 116.033604 366.31296 
L 116.014599 367.2 
z
" clip-path="url(#p98a204146c)" style="fill: #1f77b4"/>
   </g>
   <g id="matplotlib.axis_1">
    <g id="xtick_1">
     <g id="line2d_1">
      <defs>
       <path id="ma5038f041e" d="M 0 0 
L 0 3.5 
" style="stroke: #000000; stroke-width: 0.8"/>
      </defs>
      <g>
       <use xlink:href="#ma5038f041e" x="46.145455" y="256.32" style="stroke: #000000; stroke-width: 0.8"/>
      </g>
     </g>
     <g id="text_1">
      <!-- 0.0 -->
      <g transform="translate(38.193892 270.918437) scale(0.1 -0.1)">
       <defs>
        <path id="DejaVuSans-30" d="M 2034 4250 
Q 1547 4250 1301 3770 
Q 1056 3291 1056 2328 
Q 1056 1369 1301 889 
Q 1547 409 2034 409 
Q 2525 409 2770 889 
Q 3016 1369 3016 2328 
Q 3016 3291 2770 3770 
Q 2525 4250 2034 4250 
z
M 2034 4750 
Q 2819 4750 3233 4129 
Q 3647 3509 3647 2328 
Q 3647 1150 3233 529 
Q 2819 -91 2034 -91 
Q 1250 -91 836 529 
Q 422 1150 422 2328 
Q 422 3509 836 4129 
Q 1250 4750 2034 4750 
z
" transform="scale(0.015625)"/>
        <path id="DejaVuSans-2e" d="M 684 794 
L 1344 794 
L 1344 0 
L 684 0 
L 684 794 
z
" transform="scale(0.015625)"/>
       </defs>
       <use xlink:href="#DejaVuSans-30"/>
       <use xlink:href="#DejaVuSans-2e" x="63.623047"/>
       <use xlink:href="#DejaVuSans-30" x="95.410156"/>
      </g>
     </g>
    </g>
    <g id="xtick_2">
     <g id="line2d_2">
      <g>
       <use xlink:href="#ma5038f041e" x="79.963636" y="256.32" style="stroke: #000000; stroke-width: 0.8"/>
      </g>
     </g>
     <g id="text_2">
      <!-- 0.5 -->
      <g transform="translate(72.012074 270.918437) scale(0.1 -0.1)">
       <defs>
        <path id="DejaVuSans-35" d="M 691 4666 
L 3169 4666 
L 3169 4134 
L 1269 4134 
L 1269 2991 
Q 1406 3038 1543 3061 
Q 1681 3084 1819 3084 
Q 2600 3084 3056 2656 
Q 3513 2228 3513 1497 
Q 3513 744 3044 326 
Q 2575 -91 1722 -91 
Q 1428 -91 1123 -41 
Q 819 9 494 109 
L 494 744 
Q 775 591 1075 516 
Q 1375 441 1709 441 
Q 2250 441 2565 725 
Q 2881 1009 2881 1497 
Q 2881 1984 2565 2268 
Q 2250 2553 1709 2553 
Q 1456 2553 1204 2497 
Q 953 2441 691 2322 
L 691 4666 
z
" transform="scale(0.015625)"/>
       </defs>
       <use xlink:href="#DejaVuSans-30"/>
       <use xlink:href="#DejaVuSans-2e" x="63.623047"/>
       <use xlink:href="#DejaVuSans-35" x="95.410156"/>
      </g>
     </g>
    </g>
    <g id="xtick_3">
     <g id="line2d_3">
      <g>
       <use xlink:href="#ma5038f041e" x="113.781818" y="256.32" style="stroke: #000000; stroke-width: 0.8"/>
      </g>
     </g>
     <g id="text_3">
      <!-- 1.0 -->
      <g transform="translate(105.830256 270.918437) scale(0.1 -0.1)">
       <defs>
        <path id="DejaVuSans-31" d="M 794 531 
L 1825 531 
L 1825 4091 
L 703 3866 
L 703 4441 
L 1819 4666 
L 2450 4666 
L 2450 531 
L 3481 531 
L 3481 0 
L 794 0 
L 794 531 
z
" transform="scale(0.015625)"/>
       </defs>
       <use xlink:href="#DejaVuSans-31"/>
       <use xlink:href="#DejaVuSans-2e" x="63.623047"/>
       <use xlink:href="#DejaVuSans-30" x="95.410156"/>
      </g>
     </g>
    </g>
    <g id="xtick_4">
     <g id="line2d_4">
      <g>
       <use xlink:href="#ma5038f041e" x="147.6" y="256.32" style="stroke: #000000; stroke-width: 0.8"/>
      </g>
     </g>
     <g id="text_4">
      <!-- 1.5 -->
      <g transform="translate(139.648438 270.918437) scale(0.1 -0.1)">
       <use xlink:href="#DejaVuSans-31"/>
       <use xlink:href="#DejaVuSans-2e" x="63.623047"/>
       <use xlink:href="#DejaVuSans-35" x="95.410156"/>
      </g>
     </g>
    </g>
    <g id="xtick_5">
     <g id="line2d_5">
      <g>
       <use xlink:href="#ma5038f041e" x="181.418182" y="256.32" style="stroke: #000000; stroke-width: 0.8"/>
      </g>
     </g>
     <g id="text_5">
      <!-- 2.0 -->
      <g transform="translate(173.466619 270.918437) scale(0.1 -0.1)">
       <defs>
        <path id="DejaVuSans-32" d="M 1228 531 
L 3431 531 
L 3431 0 
L 469 0 
L 469 531 
Q 828 903 1448 1529 
Q 2069 2156 2228 2338 
Q 2531 2678 2651 2914 
Q 2772 3150 2772 3378 
Q 2772 3750 2511 3984 
Q 2250 4219 1831 4219 
Q 1534 4219 1204 4116 
Q 875 4013 500 3803 
L 500 4441 
Q 881 4594 1212 4672 
Q 1544 4750 1819 4750 
Q 2544 4750 2975 4387 
Q 3406 4025 3406 3419 
Q 3406 3131 3298 2873 
Q 3191 2616 2906 2266 
Q 2828 2175 2409 1742 
Q 1991 1309 1228 531 
z
" transform="scale(0.015625)"/>
       </defs>
       <use xlink:href="#DejaVuSans-32"/>
       <use xlink:href="#DejaVuSans-2e" x="63.623047"/>
       <use xlink:href="#DejaVuSans-30" x="95.410156"/>
      </g>
     </g>
    </g>
    <g id="xtick_6">
     <g id="line2d_6">
      <g>
       <use xlink:href="#ma5038f041e" x="215.236364" y="256.32" style="stroke: #000000; stroke-width: 0.8"/>
      </g>
     </g>
     <g id="text_6">
      <!-- 2.5 -->
      <g transform="translate(207.284801 270.918437) scale(0.1 -0.1)">
       <use xlink:href="#DejaVuSans-32"/>
       <use xlink:href="#DejaVuSans-2e" x="63.623047"/>
       <use xlink:href="#DejaVuSans-35" x="95.410156"/>
      </g>
     </g>
    </g>
    <g id="xtick_7">
     <g id="line2d_7">
      <g>
       <use xlink:href="#ma5038f041e" x="249.054545" y="256.32" style="stroke: #000000; stroke-width: 0.8"/>
      </g>
     </g>
     <g id="text_7">
      <!-- 3.0 -->
      <g transform="translate(241.102983 270.918437) scale(0.1 -0.1)">
       <defs>
        <path id="DejaVuSans-33" d="M 2597 2516 
Q 3050 2419 3304 2112 
Q 3559 1806 3559 1356 
Q 3559 666 3084 287 
Q 2609 -91 1734 -91 
Q 1441 -91 1130 -33 
Q 819 25 488 141 
L 488 750 
Q 750 597 1062 519 
Q 1375 441 1716 441 
Q 2309 441 2620 675 
Q 2931 909 2931 1356 
Q 2931 1769 2642 2001 
Q 2353 2234 1838 2234 
L 1294 2234 
L 1294 2753 
L 1863 2753 
Q 2328 2753 2575 2939 
Q 2822 3125 2822 3475 
Q 2822 3834 2567 4026 
Q 2313 4219 1838 4219 
Q 1578 4219 1281 4162 
Q 984 4106 628 3988 
L 628 4550 
Q 988 4650 1302 4700 
Q 1616 4750 1894 4750 
Q 2613 4750 3031 4423 
Q 3450 4097 3450 3541 
Q 3450 3153 3228 2886 
Q 3006 2619 2597 2516 
z
" transform="scale(0.015625)"/>
       </defs>
       <use xlink:href="#DejaVuSans-33"/>
       <use xlink:href="#DejaVuSans-2e" x="63.623047"/>
       <use xlink:href="#DejaVuSans-30" x="95.410156"/>
      </g>
     </g>
    </g>
   </g>
   <g id="matplotlib.axis_2">
    <g id="ytick_1">
     <g id="line2d_8">
      <defs>
       <path id="m77326897d2" d="M 0 0 
L -3.5 0 
" style="stroke: #000000; stroke-width: 0.8"/>
      </defs>
      <g>
       <use xlink:href="#m77326897d2" x="36" y="256.32" style="stroke: #000000; stroke-width: 0.8"/>
      </g>
     </g>
     <g id="text_8">
      <!-- −2.0 -->
      <g transform="translate(4.717187 260.119219) scale(0.1 -0.1)">
       <defs>
        <path id="DejaVuSans-2212" d="M 678 2272 
L 4684 2272 
L 4684 1741 
L 678 1741 
L 678 2272 
z
" transform="scale(0.015625)"/>
       </defs>
       <use xlink:href="#DejaVuSans-2212"/>
       <use xlink:href="#DejaVuSans-32" x="83.789062"/>
       <use xlink:href="#DejaVuSans-2e" x="147.412109"/>
       <use xlink:href="#DejaVuSans-30" x="179.199219"/>
      </g>
     </g>
    </g>
    <g id="ytick_2">
     <g id="line2d_9">
      <g>
       <use xlink:href="#m77326897d2" x="36" y="228.6" style="stroke: #000000; stroke-width: 0.8"/>
      </g>
     </g>
     <g id="text_9">
      <!-- −1.5 -->
      <g transform="translate(4.717187 232.399219) scale(0.1 -0.1)">
       <use xlink:href="#DejaVuSans-2212"/>
       <use xlink:href="#DejaVuSans-31" x="83.789062"/>
       <use xlink:href="#DejaVuSans-2e" x="147.412109"/>
       <use xlink:href="#DejaVuSans-35" x="179.199219"/>
      </g>
     </g>
    </g>
    <g id="ytick_3">
     <g id="line2d_10">
      <g>
       <use xlink:href="#m77326897d2" x="36" y="200.88" style="stroke: #000000; stroke-width: 0.8"/>
      </g>
     </g>
     <g id="text_10">
      <!-- −1.0 -->
      <g transform="translate(4.717187 204.679219) scale(0.1 -0.1)">
       <use xlink:href="#DejaVuSans-2212"/>
       <use xlink:href="#DejaVuSans-31" x="83.789062"/>
       <use xlink:href="#DejaVuSans-2e" x="147.412109"/>
       <use xlink:href="#DejaVuSans-30" x="179.199219"/>
      </g>
     </g>
    </g>
    <g id="ytick_4">
     <g id="line2d_11">
      <g>
       <use xlink:href="#m77326897d2" x="36" y="173.16" style="stroke: #000000; stroke-width: 0.8"/>
      </g>
     </g>
     <g id="text_11">
      <!-- −0.5 -->
      <g transform="translate(4.717187 176.959219) scale(0.1 -0.1)">
       <use xlink:href="#DejaVuSans-2212"/>
       <use xlink:href="#DejaVuSans-30" x="83.789062"/>
       <use xlink:href="#DejaVuSans-2e" x="147.412109"/>
       <use xlink:href="#DejaVuSans-35" x="179.199219"/>
      </g>
     </g>
    </g>
    <g id="ytick_5">
     <g id="line2d_12">
      <g>
       <use xlink:href="#m77326897d2" x="36" y="145.44" style="stroke: #000000; stroke-width: 0.8"/>
      </g>
     </g>
     <g id="text_12">
      <!-- 0.0 -->
      <g transform="translate(13.096875 149.239219) scale(0.1 -0.1)">
       <use xlink:href="#DejaVuSans-30"/>
       <use xlink:href="#DejaVuSans-2e" x="63.623047"/>
       <use xlink:href="#DejaVuSans-30" x="95.410156"/>
      </g>
     </g>
    </g>
    <g id="ytick_6">
     <g id="line2d_13">
      <g>
       <use xlink:href="#m77326897d2" x="36" y="117.72" style="stroke: #000000; stroke-width: 0.8"/>
      </g>
     </g>
     <g id="text_13">
      <!-- 0.5 -->
      <g transform="translate(13.096875 121.519219) scale(0.1 -0.1)">
       <use xlink:href="#DejaVuSans-30"/>
       <use xlink:href="#DejaVuSans-2e" x="63.623047"/>
       <use xlink:href="#DejaVuSans-35" x="95.410156"/>
      </g>
     </g>
    </g>
    <g id="ytick_7">
     <g id="line2d_14">
      <g>
       <use xlink:href="#m77326897d2" x="36" y="90" style="stroke: #000000; stroke-width: 0.8"/>
      </g>
     </g>
     <g id="text_14">
      <!-- 1.0 -->
      <g transform="translate(13.096875 93.799219) scale(0.1 -0.1)">
       <use xlink:href="#DejaVuSans-31"/>
       <use xlink:href="#DejaVuSans-2e" x="63.623047"/>
       <use xlink:href="#DejaVuSans-30" x="95.410156"/>
      </g>
     </g>
    </g>
    <g id="ytick_8">
     <g id="line2d_15">
      <g>
       <use xlink:href="#m77326897d2" x="36" y="62.28" style="stroke: #000000; stroke-width: 0.8"/>
      </g>
     </g>
     <g id="text_15">
      <!-- 1.5 -->
      <g transform="translate(13.096875 66.079219) scale(0.1 -0.1)">
       <use xlink:href="#DejaVuSans-31"/>
       <use xlink:href="#DejaVuSans-2e" x="63.623047"/>
       <use xlink:href="#DejaVuSans-35" x="95.410156"/>
      </g>
     </g>
    </g>
    <g id="ytick_9">
     <g id="line2d_16">
      <g>
       <use xlink:href="#m77326897d2" x="36" y="34.56" style="stroke: #000000; stroke-width: 0.8"/>
      </g>
     </g>
     <g id="text_16">
      <!-- 2.0 -->
      <g transform="translate(13.096875 38.359219) scale(0.1 -0.1)">
       <use xlink:href="#DejaVuSans-32"/>
       <use xlink:href="#DejaVuSans-2e" x="63.623047"/>
       <use xlink:href="#DejaVuSans-30" x="95.410156"/>
      </g>
     </g>
    </g>
   </g>
   <g id="LineCollection_1">
    <path d="M 46.145455 90 
L 249.054545 90 
" clip-path="url(#p98a204146c)" style="fill: none; stroke: #000000; stroke-width: 1.5"/>
    <path d="M 46.145455 103.86 
L 249.054545 103.86 
" clip-path="url(#p98a204146c)" style="fill: none; stroke: #000000; stroke-width: 1.5"/>
    <path d="M 46.145455 76.14 
L 249.054545 76.14 
" clip-path="url(#p98a204146c)" style="fill: none; stroke: #000000; stroke-width: 1.5"/>
   </g>
   <g id="patch_3">
    <path d="M 36 256.32 
L 36 34.56 
" style="fill: none; stroke: #000000; stroke-width: 0.8; stroke-linejoin: miter; stroke-linecap: square"/>
   </g>
   <g id="patch_4">
    <path d="M 259.2 256.32 
L 259.2 34.56 
" style="fill: none; stroke: #000000; stroke-width: 0.8; stroke-linejoin: miter; stroke-linecap: square"/>
   </g>
   <g id="patch_5">
    <path d="M 36 256.32 
L 259.2 256.32 
" style="fill: none; stroke: #000000; stroke-width: 0.8; stroke-linejoin: miter; stroke-linecap: square"/>
   </g>
   <g id="patch_6">
    <path d="M 36 34.56 
L 259.2 34.56 
" style="fill: none; stroke: #000000; stroke-width: 0.8; stroke-linejoin: miter; stroke-linecap: square"/>
   </g>
  </g>
 </g>
 <defs>
  <clipPath id="p98a204146c">
   <rect x="36" y="34.56" width="223.2" height="221.76"/>
  </clipPath>
 </defs>
</svg>
