<?xml version="1.0" encoding="utf-8" standalone="no"?>
<!DOCTYPE svg PUBLIC "-//W3C//DTD SVG 1.1//EN"
  "http://www.w3.org/Graphics/SVG/1.1/DTD/svg11.dtd">
<svg xmlns:xlink="http://www.w3.org/1999/xlink" width="135.552009pt" height="73.351796pt" viewBox="0 0 135.552009 73.351796" xmlns="http://www.w3.org/2000/svg" version="1.1">
 <metadata>
  <rdf:RDF xmlns:dc="http://purl.org/dc/elements/1.1/" xmlns:cc="http://creativecommons.org/ns#" xmlns:rdf="http://www.w3.org/1999/02/22-rdf-syntax-ns#">
   <cc:Work>
    <dc:type rdf:resource="http://purl.org/dc/dcmitype/StillImage"/>
    <dc:date>2024-07-14T15:07:41.040257</dc:date>
    <dc:format>image/svg+xml</dc:format>
    <dc:creator>
     <cc:Agent>
      <dc:title>Matplotlib v3.8.4, https://matplotlib.org/</dc:title>
     </cc:Agent>
    </dc:creator>
   </cc:Work>
  </rdf:RDF>
 </metadata>
 <defs>
  <style type="text/css">*{stroke-linejoin: round; stroke-linecap: butt}</style>
 </defs>
 <g id="figure_1">
  <g id="patch_1">
   <path d="M 0 73.351796 
L 135.552009 73.351796 
L 135.552009 0 
L 0 0 
z
" style="fill: #ffffff"/>
  </g>
  <g id="axes_1">
   <g id="patch_2">
    <path d="M 17.920583 59.16737 
L 129.520583 59.16737 
L 129.520583 3.72737 
L 17.920583 3.72737 
z
" style="fill: #ffffff"/>
   </g>
   <g id="matplotlib.axis_1">
    <g id="xtick_1">
     <g id="line2d_1">
      <defs>
       <path id="m46b605a393" d="M 0 0 
L 0 -2.5 
" style="stroke: #000000; stroke-width: 0.6"/>
      </defs>
      <g>
       <use xlink:href="#m46b605a393" x="17.920583" y="59.16737" style="stroke: #000000; stroke-width: 0.6"/>
      </g>
     </g>
     <g id="text_1">
      <!-- 0 -->
      <g transform="translate(15.803522 68.202111) scale(0.08 -0.08)">
       <defs>
        <path id="LMSans17-Regular-30" d="M 2758 2075 
C 2758 2441 2752 3122 2490 3648 
C 2227 4153 1805 4288 1504 4288 
C 1069 4288 698 4031 506 3622 
C 301 3193 243 2749 243 2075 
C 243 1612 262 1046 493 551 
C 755 6 1197 -128 1498 -128 
C 1894 -128 2278 83 2496 525 
C 2720 988 2758 1496 2758 2075 
z
M 2272 2145 
C 2272 1547 2272 262 1498 262 
C 1011 262 864 821 819 1008 
C 742 1329 730 1637 730 2145 
C 730 2544 730 2994 851 3347 
C 998 3756 1254 3897 1498 3897 
C 1971 3897 2125 3423 2176 3257 
C 2272 2917 2272 2518 2272 2145 
z
" transform="scale(0.015625)"/>
       </defs>
       <use xlink:href="#LMSans17-Regular-30" transform="scale(0.996264)"/>
      </g>
     </g>
    </g>
    <g id="xtick_2">
     <g id="line2d_2">
      <g>
       <use xlink:href="#m46b605a393" x="45.820583" y="59.16737" style="stroke: #000000; stroke-width: 0.6"/>
      </g>
     </g>
    </g>
    <g id="xtick_3">
     <g id="line2d_3">
      <g>
       <use xlink:href="#m46b605a393" x="73.720583" y="59.16737" style="stroke: #000000; stroke-width: 0.6"/>
      </g>
     </g>
    </g>
    <g id="xtick_4">
     <g id="line2d_4">
      <g>
       <use xlink:href="#m46b605a393" x="101.620583" y="59.16737" style="stroke: #000000; stroke-width: 0.6"/>
      </g>
     </g>
    </g>
    <g id="xtick_5">
     <g id="line2d_5">
      <g>
       <use xlink:href="#m46b605a393" x="129.520583" y="59.16737" style="stroke: #000000; stroke-width: 0.6"/>
      </g>
     </g>
     <g id="text_2">
      <!-- $\pi$ -->
      <g transform="translate(127.089157 68.202111) scale(0.08 -0.08)">
       <defs>
        <path id="LMMathItalic12-Regular-19" d="M 3539 2611 
C 3539 2752 3418 2752 3302 2752 
L 1197 2752 
C 1050 2752 832 2752 538 2438 
C 371 2253 166 1914 166 1876 
C 166 1838 198 1825 237 1825 
C 282 1825 288 1844 320 1883 
C 653 2406 986 2406 1146 2406 
L 1510 2406 
C 1370 1927 1210 1372 685 255 
C 634 153 634 140 634 101 
C 634 -33 749 -64 806 -64 
C 992 -64 1043 101 1120 370 
C 1222 695 1222 708 1286 963 
L 1658 2406 
L 2381 2406 
C 2208 1691 2099 1225 2099 714 
C 2099 625 2099 -64 2362 -64 
C 2496 -64 2611 57 2611 165 
C 2611 197 2611 210 2566 306 
C 2394 746 2394 1295 2394 1340 
C 2394 1378 2394 1831 2528 2406 
L 3245 2406 
C 3328 2406 3539 2406 3539 2611 
z
" transform="scale(0.015625)"/>
       </defs>
       <use xlink:href="#LMMathItalic12-Regular-19" transform="scale(0.996264)"/>
      </g>
     </g>
    </g>
    <g id="text_3">
     <!-- $\gamma$ -->
     <g transform="translate(71.539751 67.286476) scale(0.08 -0.08)">
      <defs>
       <path id="LMMathItalic12-Regular-d" d="M 3405 2701 
C 3405 2701 3398 2752 3341 2752 
C 3341 2752 3296 2752 3283 2726 
C 3270 2714 3046 2282 2854 1850 
C 2758 1634 2630 1348 2419 789 
C 2406 1100 2394 1589 2150 2161 
C 2022 2479 1805 2816 1338 2816 
C 550 2816 122 1818 122 1653 
C 122 1596 166 1596 186 1596 
C 243 1596 243 1609 275 1691 
C 410 2085 819 2396 1261 2396 
C 2150 2396 2278 1412 2278 783 
C 2278 383 2234 249 2195 122 
C 2074 -271 1862 -1059 1862 -1237 
C 1862 -1287 1882 -1344 1933 -1344 
C 2029 -1344 2086 -1135 2157 -881 
C 2310 -322 2349 -43 2381 211 
C 2400 364 2765 1412 3270 2409 
C 3315 2510 3405 2682 3405 2701 
z
" transform="scale(0.015625)"/>
      </defs>
      <use xlink:href="#LMMathItalic12-Regular-d" transform="scale(0.996264)"/>
     </g>
    </g>
   </g>
   <g id="matplotlib.axis_2">
    <g id="ytick_1">
     <g id="line2d_6">
      <defs>
       <path id="m7aeca5a96f" d="M 0 0 
L 2.5 0 
" style="stroke: #000000; stroke-width: 0.6"/>
      </defs>
      <g>
       <use xlink:href="#m7aeca5a96f" x="17.920583" y="59.16737" style="stroke: #000000; stroke-width: 0.6"/>
      </g>
     </g>
     <g id="text_4">
      <!-- 0 -->
      <g transform="translate(10.186461 61.934741) scale(0.08 -0.08)">
       <use xlink:href="#LMSans17-Regular-30" transform="scale(0.996264)"/>
      </g>
     </g>
    </g>
    <g id="ytick_2">
     <g id="line2d_7">
      <g>
       <use xlink:href="#m7aeca5a96f" x="17.920583" y="6.36737" style="stroke: #000000; stroke-width: 0.6"/>
      </g>
     </g>
     <g id="text_5">
      <!-- 0.4 -->
      <g transform="translate(3.6 9.134741) scale(0.08 -0.08)">
       <defs>
        <path id="LMSans17-Regular-2e" d="M 1088 0 
L 1088 512 
L 576 512 
L 576 0 
L 1088 0 
z
" transform="scale(0.015625)"/>
        <path id="LMSans17-Regular-34" d="M 2835 1088 
L 2835 1478 
L 2253 1478 
L 2253 4224 
L 1690 4224 
L 166 1478 
L 166 1088 
L 1747 1088 
L 1747 0 
L 2253 0 
L 2253 1088 
L 2835 1088 
z
M 1766 1478 
L 659 1478 
C 1030 2138 1760 3472 1766 3926 
L 1766 1478 
z
" transform="scale(0.015625)"/>
       </defs>
       <use xlink:href="#LMSans17-Regular-30" transform="scale(0.996264)"/>
       <use xlink:href="#LMSans17-Regular-2e" transform="translate(46.844004 0) scale(0.996264)"/>
       <use xlink:href="#LMSans17-Regular-34" transform="translate(72.869166 0) scale(0.996264)"/>
      </g>
     </g>
    </g>
    <g id="text_6">
     <!-- $\omega_n$ -->
     <g transform="translate(10.050315 35.719854) rotate(-90) scale(0.08 -0.08)">
      <defs>
       <path id="LMMathItalic12-Regular-21" d="M 3642 1533 
C 3712 1807 3795 2133 3795 2394 
C 3795 2548 3763 2682 3680 2765 
C 3642 2797 3590 2816 3539 2816 
C 3469 2816 3398 2784 3341 2726 
C 3283 2669 3251 2599 3251 2535 
C 3251 2484 3270 2433 3309 2394 
C 3462 2254 3539 2050 3539 1820 
C 3539 1737 3526 1647 3507 1558 
C 3360 964 3002 352 2483 352 
C 2112 352 1907 620 1862 977 
C 1939 1156 2003 1347 2048 1533 
C 2061 1590 2074 1654 2074 1711 
C 2074 1788 2048 1845 1971 1845 
C 1856 1845 1805 1692 1773 1558 
C 1722 1367 1690 1175 1683 990 
C 1472 626 1165 352 800 352 
C 416 352 250 671 250 1073 
C 250 1220 275 1373 314 1533 
C 410 1916 627 2279 877 2624 
C 890 2650 896 2669 896 2694 
C 896 2726 883 2758 851 2777 
C 832 2784 806 2784 806 2784 
C 768 2784 730 2765 704 2733 
C 442 2362 275 1960 173 1558 
C 109 1303 77 1047 77 818 
C 77 320 250 -64 723 -64 
C 1133 -64 1459 236 1702 645 
C 1760 230 1971 -64 2406 -64 
C 3066 -64 3450 760 3642 1533 
z
" transform="scale(0.015625)"/>
       <path id="LMSans17-Oblique-6e" d="M 2618 12 
L 3014 1881 
C 3098 2284 3117 2816 2394 2816 
C 1984 2816 1670 2604 1446 2387 
L 1530 2783 
L 1062 2783 
L 474 0 
L 960 0 
L 1286 1556 
C 1376 1962 1626 2425 2061 2425 
C 2624 2425 2566 2045 2515 1827 
L 2131 0 
L 2618 12 
z
" transform="scale(0.015625)"/>
      </defs>
      <use xlink:href="#LMMathItalic12-Regular-21" transform="scale(0.996264)"/>
      <use xlink:href="#LMSans17-Oblique-6e" transform="translate(60.743753 -14.943915) scale(0.697382)"/>
     </g>
    </g>
   </g>
   <g id="line2d_8">
    <path d="M 17.920583 71.584142 
L 21.408083 71.789057 
L 24.895583 72.089783 
L 28.383083 72.440389 
L 31.870583 72.700586 
L 35.358083 73.277996 
L 38.845583 73.312249 
L 42.333083 73.562519 
L 45.820583 74.044017 
L 47.254706 74.351796 
M 100.186461 74.351796 
L 101.620583 74.044017 
L 105.108083 73.562519 
L 108.595583 73.312249 
L 112.083083 73.277996 
L 115.570583 72.700586 
L 119.058083 72.440389 
L 122.545583 72.089783 
L 126.033083 71.789057 
L 129.520583 71.584142 
" clip-path="url(#p85c37f3168)" style="fill: none; stroke-dasharray: 1.85,0.8; stroke-dashoffset: 0; stroke: #808080; stroke-width: 0.5"/>
   </g>
   <g id="line2d_9">
    <path d="M 17.920583 46.750599 
L 21.408083 46.545684 
L 24.895583 46.244958 
L 28.383083 45.894352 
L 31.870583 45.634155 
L 35.358083 45.056745 
L 38.845583 45.022492 
L 42.333083 44.772222 
L 45.820583 44.290724 
L 49.308083 43.542266 
L 52.795583 42.552766 
L 56.283083 41.532771 
L 59.770583 39.667193 
L 63.258083 39.647929 
L 66.745583 41.186151 
L 70.233083 41.318604 
L 73.720583 39.60827 
L 77.208083 41.318604 
L 80.695583 41.186151 
L 84.183083 39.647929 
L 87.670583 39.667193 
L 91.158083 41.532771 
L 94.645583 42.552766 
L 98.133083 43.542266 
L 101.620583 44.290724 
L 105.108083 44.772222 
L 108.595583 45.022492 
L 112.083083 45.056745 
L 115.570583 45.634155 
L 119.058083 45.894352 
L 122.545583 46.244958 
L 126.033083 46.545684 
L 129.520583 46.750599 
" clip-path="url(#p85c37f3168)" style="fill: none; stroke: #0000ff; stroke-width: 0.5; stroke-linecap: square"/>
   </g>
   <g id="line2d_10">
    <path d="M 17.920583 41.434312 
L 21.408083 39.693915 
L 24.895583 39.77438 
L 28.383083 41.336298 
L 31.870583 41.148171 
L 35.358083 39.317447 
L 38.845583 38.64162 
L 42.333083 37.84122 
L 45.820583 37.062702 
L 49.308083 36.413478 
L 52.795583 35.825296 
L 56.283083 35.194402 
L 59.770583 34.104394 
L 63.258083 34.114892 
L 66.745583 32.798856 
L 70.233083 32.652984 
L 73.720583 32.594816 
L 77.208083 32.652984 
L 80.695583 32.798856 
L 84.183083 34.114892 
L 87.670583 34.104394 
L 91.158083 35.194402 
L 94.645583 35.825296 
L 98.133083 36.413478 
L 101.620583 37.062702 
L 105.108083 37.84122 
L 108.595583 38.64162 
L 112.083083 39.317447 
L 115.570583 41.148171 
L 119.058083 41.336298 
L 122.545583 39.77438 
L 126.033083 39.693915 
L 129.520583 41.434312 
" clip-path="url(#p85c37f3168)" style="fill: none; stroke-dasharray: 1.85,0.8; stroke-dashoffset: 0; stroke: #ff0000; stroke-width: 0.5"/>
   </g>
   <g id="line2d_11">
    <path clip-path="url(#p85c37f3168)" style="fill: none; stroke-dasharray: 1.85,0.8; stroke-dashoffset: 0; stroke: #808080; stroke-width: 0.5"/>
   </g>
   <g id="line2d_12">
    <path d="M 44.385231 74.351796 
L 45.820583 74.043753 
L 49.308083 73.562255 
L 52.795583 73.311985 
L 56.283083 73.277732 
L 59.770583 72.700322 
L 63.258083 72.440125 
L 66.745583 72.089519 
L 70.233083 71.788793 
L 73.720583 71.583878 
L 77.208083 71.788793 
L 80.695583 72.089519 
L 84.183083 72.440125 
L 87.670583 72.700322 
L 91.158083 73.277732 
L 94.645583 73.311985 
L 98.133083 73.562255 
L 101.620583 74.043753 
L 103.055936 74.351796 
" clip-path="url(#p85c37f3168)" style="fill: none; stroke-dasharray: 1.85,0.8; stroke-dashoffset: 0; stroke: #808080; stroke-width: 0.5"/>
   </g>
   <g id="line2d_13">
    <path d="M 17.920583 39.608534 
L 21.408083 41.318868 
L 24.895583 41.186415 
L 28.383083 39.648193 
L 31.870583 39.667457 
L 35.358083 41.533035 
L 38.845583 42.55303 
L 42.333083 43.54253 
L 45.820583 44.290988 
L 49.308083 44.772486 
L 52.795583 45.022756 
L 56.283083 45.057009 
L 59.770583 45.634419 
L 63.258083 45.894616 
L 66.745583 46.245222 
L 70.233083 46.545948 
L 73.720583 46.750863 
L 77.208083 46.545948 
L 80.695583 46.245222 
L 84.183083 45.894616 
L 87.670583 45.634419 
L 91.158083 45.057009 
L 94.645583 45.022756 
L 98.133083 44.772486 
L 101.620583 44.290988 
L 105.108083 43.54253 
L 108.595583 42.55303 
L 112.083083 41.533035 
L 115.570583 39.667457 
L 119.058083 39.648193 
L 122.545583 41.186415 
L 126.033083 41.318868 
L 129.520583 39.608534 
" clip-path="url(#p85c37f3168)" style="fill: none; stroke: #ff0000; stroke-width: 0.5; stroke-linecap: square"/>
   </g>
   <g id="line2d_14">
    <path d="M 17.920583 32.594552 
L 21.408083 32.65272 
L 24.895583 32.798592 
L 28.383083 34.114628 
L 31.870583 34.10413 
L 35.358083 35.194138 
L 38.845583 35.825032 
L 42.333083 36.413214 
L 45.820583 37.062438 
L 49.308083 37.840956 
L 52.795583 38.641356 
L 56.283083 39.317183 
L 59.770583 41.147907 
L 63.258083 41.336034 
L 66.745583 39.774116 
L 70.233083 39.693651 
L 73.720583 41.434048 
L 77.208083 39.693651 
L 80.695583 39.774116 
L 84.183083 41.336034 
L 87.670583 41.147907 
L 91.158083 39.317183 
L 94.645583 38.641356 
L 98.133083 37.840956 
L 101.620583 37.062438 
L 105.108083 36.413214 
L 108.595583 35.825032 
L 112.083083 35.194138 
L 115.570583 34.10413 
L 119.058083 34.114628 
L 122.545583 32.798592 
L 126.033083 32.65272 
L 129.520583 32.594552 
" clip-path="url(#p85c37f3168)" style="fill: none; stroke-dasharray: 1.85,0.8; stroke-dashoffset: 0; stroke: #0000ff; stroke-width: 0.5"/>
   </g>
   <g id="line2d_15">
    <path clip-path="url(#p85c37f3168)" style="fill: none; stroke-dasharray: 1.85,0.8; stroke-dashoffset: 0; stroke: #808080; stroke-width: 0.5"/>
   </g>
   <g id="line2d_16">
    <path d="M 17.920583 12.754465 
L 21.408083 12.750836 
L 24.895583 12.745666 
L 28.383083 12.732207 
L 31.870583 12.712664 
L 35.358083 12.653467 
L 38.845583 12.614947 
L 42.333083 12.589672 
L 45.820583 12.582625 
L 49.308083 12.590772 
L 52.795583 12.602737 
L 56.283083 12.599625 
L 59.770583 12.536225 
L 63.258083 12.50713 
L 66.745583 12.487217 
L 70.233083 12.517723 
L 73.720583 12.568219 
L 77.208083 12.517723 
L 80.695583 12.487217 
L 84.183083 12.50713 
L 87.670583 12.536225 
L 91.158083 12.599625 
L 94.645583 12.602737 
L 98.133083 12.590772 
L 101.620583 12.582625 
L 105.108083 12.589672 
L 108.595583 12.614947 
L 112.083083 12.653467 
L 115.570583 12.712664 
L 119.058083 12.732207 
L 122.545583 12.745666 
L 126.033083 12.750836 
L 129.520583 12.754465 
" clip-path="url(#p85c37f3168)" style="fill: none; stroke-dasharray: 1.85,0.8; stroke-dashoffset: 0; stroke: #808080; stroke-width: 0.5"/>
   </g>
   <g id="line2d_17">
    <path d="M 17.920583 12.69824 
L 21.408083 12.693825 
L 24.895583 12.688264 
L 28.383083 12.666385 
L 31.870583 12.655124 
L 35.358083 12.646283 
L 38.845583 12.659443 
L 42.333083 12.660234 
L 45.820583 12.636486 
L 49.308083 12.59301 
L 52.795583 12.546553 
L 56.283083 12.515172 
L 59.770583 12.538027 
L 63.258083 12.570005 
L 66.745583 12.549087 
L 70.233083 12.516232 
L 73.720583 12.477102 
L 77.208083 12.516232 
L 80.695583 12.549087 
L 84.183083 12.570005 
L 87.670583 12.538027 
L 91.158083 12.515172 
L 94.645583 12.546553 
L 98.133083 12.59301 
L 101.620583 12.636486 
L 105.108083 12.660234 
L 108.595583 12.659443 
L 112.083083 12.646283 
L 115.570583 12.655124 
L 119.058083 12.666385 
L 122.545583 12.688264 
L 126.033083 12.693825 
L 129.520583 12.69824 
" clip-path="url(#p85c37f3168)" style="fill: none; stroke-dasharray: 1.85,0.8; stroke-dashoffset: 0; stroke: #808080; stroke-width: 0.5"/>
   </g>
   <g id="line2d_18">
    <path d="M 17.920583 12.568483 
L 21.408083 12.517987 
L 24.895583 12.487481 
L 28.383083 12.507394 
L 31.870583 12.536489 
L 35.358083 12.599889 
L 38.845583 12.603001 
L 42.333083 12.591036 
L 45.820583 12.582889 
L 49.308083 12.589936 
L 52.795583 12.615211 
L 56.283083 12.653731 
L 59.770583 12.712928 
L 63.258083 12.732471 
L 66.745583 12.74593 
L 70.233083 12.7511 
L 73.720583 12.754729 
L 77.208083 12.7511 
L 80.695583 12.74593 
L 84.183083 12.732471 
L 87.670583 12.712928 
L 91.158083 12.653731 
L 94.645583 12.615211 
L 98.133083 12.589936 
L 101.620583 12.582889 
L 105.108083 12.591036 
L 108.595583 12.603001 
L 112.083083 12.599889 
L 115.570583 12.536489 
L 119.058083 12.507394 
L 122.545583 12.487481 
L 126.033083 12.517987 
L 129.520583 12.568483 
" clip-path="url(#p85c37f3168)" style="fill: none; stroke-dasharray: 1.85,0.8; stroke-dashoffset: 0; stroke: #808080; stroke-width: 0.5"/>
   </g>
   <g id="line2d_19">
    <path d="M 17.920583 12.477366 
L 21.408083 12.516496 
L 24.895583 12.549351 
L 28.383083 12.570269 
L 31.870583 12.538291 
L 35.358083 12.515436 
L 38.845583 12.546817 
L 42.333083 12.593274 
L 45.820583 12.63675 
L 49.308083 12.660498 
L 52.795583 12.659707 
L 56.283083 12.646547 
L 59.770583 12.655388 
L 63.258083 12.666649 
L 66.745583 12.688528 
L 70.233083 12.694089 
L 73.720583 12.698504 
L 77.208083 12.694089 
L 80.695583 12.688528 
L 84.183083 12.666649 
L 87.670583 12.655388 
L 91.158083 12.646547 
L 94.645583 12.659707 
L 98.133083 12.660498 
L 101.620583 12.63675 
L 105.108083 12.593274 
L 108.595583 12.546817 
L 112.083083 12.515436 
L 115.570583 12.538291 
L 119.058083 12.570269 
L 122.545583 12.549351 
L 126.033083 12.516496 
L 129.520583 12.477366 
" clip-path="url(#p85c37f3168)" style="fill: none; stroke-dasharray: 1.85,0.8; stroke-dashoffset: 0; stroke: #808080; stroke-width: 0.5"/>
   </g>
   <g id="line2d_20">
    <path d="M 17.920583 10.704476 
L 21.408083 10.69326 
L 24.895583 10.679878 
L 28.383083 10.632645 
L 31.870583 10.606795 
L 35.358083 10.532306 
L 38.845583 10.481227 
L 42.333083 10.433351 
L 45.820583 10.391601 
L 49.308083 10.353322 
L 52.795583 10.310958 
L 56.283083 10.255816 
L 59.770583 10.15716 
L 63.258083 10.123908 
L 66.745583 10.066837 
L 70.233083 10.105267 
L 73.720583 10.134541 
L 77.208083 10.105267 
L 80.695583 10.066837 
L 84.183083 10.123908 
L 87.670583 10.15716 
L 91.158083 10.255816 
L 94.645583 10.310958 
L 98.133083 10.353322 
L 101.620583 10.391601 
L 105.108083 10.433351 
L 108.595583 10.481227 
L 112.083083 10.532306 
L 115.570583 10.606795 
L 119.058083 10.632645 
L 122.545583 10.679878 
L 126.033083 10.69326 
L 129.520583 10.704476 
" clip-path="url(#p85c37f3168)" style="fill: none; stroke-dasharray: 1.85,0.8; stroke-dashoffset: 0; stroke: #808080; stroke-width: 0.5"/>
   </g>
   <g id="line2d_21">
    <path d="M 17.920583 10.774132 
L 21.408083 10.751477 
L 24.895583 10.724361 
L 28.383083 10.666044 
L 31.870583 10.629859 
L 35.358083 10.570197 
L 38.845583 10.532224 
L 42.333083 10.477316 
L 45.820583 10.410257 
L 49.308083 10.334748 
L 52.795583 10.253373 
L 56.283083 10.181755 
L 59.770583 10.173888 
L 63.258083 10.19454 
L 66.745583 10.130558 
L 70.233083 10.103271 
L 73.720583 10.037105 
L 77.208083 10.103271 
L 80.695583 10.130558 
L 84.183083 10.19454 
L 87.670583 10.173888 
L 91.158083 10.181755 
L 94.645583 10.253373 
L 98.133083 10.334748 
L 101.620583 10.410257 
L 105.108083 10.477316 
L 108.595583 10.532224 
L 112.083083 10.570197 
L 115.570583 10.629859 
L 119.058083 10.666044 
L 122.545583 10.724361 
L 126.033083 10.751477 
L 129.520583 10.774132 
" clip-path="url(#p85c37f3168)" style="fill: none; stroke-dasharray: 1.85,0.8; stroke-dashoffset: 0; stroke: #808080; stroke-width: 0.5"/>
   </g>
   <g id="line2d_22">
    <path d="M 17.920583 10.134805 
L 21.408083 10.105531 
L 24.895583 10.067101 
L 28.383083 10.124172 
L 31.870583 10.157424 
L 35.358083 10.25608 
L 38.845583 10.311222 
L 42.333083 10.353586 
L 45.820583 10.391865 
L 49.308083 10.433615 
L 52.795583 10.481491 
L 56.283083 10.53257 
L 59.770583 10.607059 
L 63.258083 10.632909 
L 66.745583 10.680142 
L 70.233083 10.693524 
L 73.720583 10.70474 
L 77.208083 10.693524 
L 80.695583 10.680142 
L 84.183083 10.632909 
L 87.670583 10.607059 
L 91.158083 10.53257 
L 94.645583 10.481491 
L 98.133083 10.433615 
L 101.620583 10.391865 
L 105.108083 10.353586 
L 108.595583 10.311222 
L 112.083083 10.25608 
L 115.570583 10.157424 
L 119.058083 10.124172 
L 122.545583 10.067101 
L 126.033083 10.105531 
L 129.520583 10.134805 
" clip-path="url(#p85c37f3168)" style="fill: none; stroke-dasharray: 1.85,0.8; stroke-dashoffset: 0; stroke: #808080; stroke-width: 0.5"/>
   </g>
   <g id="line2d_23">
    <path d="M 17.920583 10.037369 
L 21.408083 10.103535 
L 24.895583 10.130822 
L 28.383083 10.194804 
L 31.870583 10.174152 
L 35.358083 10.182019 
L 38.845583 10.253637 
L 42.333083 10.335012 
L 45.820583 10.410521 
L 49.308083 10.47758 
L 52.795583 10.532488 
L 56.283083 10.570461 
L 59.770583 10.630123 
L 63.258083 10.666308 
L 66.745583 10.724625 
L 70.233083 10.751741 
L 73.720583 10.774396 
L 77.208083 10.751741 
L 80.695583 10.724625 
L 84.183083 10.666308 
L 87.670583 10.630123 
L 91.158083 10.570461 
L 94.645583 10.532488 
L 98.133083 10.47758 
L 101.620583 10.410521 
L 105.108083 10.335012 
L 108.595583 10.253637 
L 112.083083 10.182019 
L 115.570583 10.174152 
L 119.058083 10.194804 
L 122.545583 10.130822 
L 126.033083 10.103535 
L 129.520583 10.037369 
" clip-path="url(#p85c37f3168)" style="fill: none; stroke-dasharray: 1.85,0.8; stroke-dashoffset: 0; stroke: #808080; stroke-width: 0.5"/>
   </g>
   <g id="line2d_24">
    <path clip-path="url(#p85c37f3168)" style="fill: none; stroke-dasharray: 1.85,0.8; stroke-dashoffset: 0; stroke: #808080; stroke-width: 0.5"/>
   </g>
   <g id="line2d_25">
    <path clip-path="url(#p85c37f3168)" style="fill: none; stroke-dasharray: 1.85,0.8; stroke-dashoffset: 0; stroke: #808080; stroke-width: 0.5"/>
   </g>
   <g id="line2d_26">
    <path clip-path="url(#p85c37f3168)" style="fill: none; stroke-dasharray: 1.85,0.8; stroke-dashoffset: 0; stroke: #808080; stroke-width: 0.5"/>
   </g>
   <g id="line2d_27">
    <path clip-path="url(#p85c37f3168)" style="fill: none; stroke-dasharray: 1.85,0.8; stroke-dashoffset: 0; stroke: #808080; stroke-width: 0.5"/>
   </g>
   <g id="line2d_28">
    <path d="M 17.920583 8.973335 
L 21.408083 8.964019 
L 24.895583 8.949494 
L 28.383083 9.004051 
L 31.870583 8.920742 
L 35.358083 8.674777 
L 38.845583 8.475279 
L 42.333083 8.371851 
L 45.820583 8.411284 
L 49.308083 8.547409 
L 52.795583 8.707755 
L 56.283083 8.804714 
L 59.770583 8.608462 
L 63.258083 8.446543 
L 66.745583 8.473247 
L 70.233083 8.627231 
L 73.720583 8.884854 
L 77.208083 8.627231 
L 80.695583 8.473247 
L 84.183083 8.446543 
L 87.670583 8.608462 
L 91.158083 8.804714 
L 94.645583 8.707755 
L 98.133083 8.547409 
L 101.620583 8.411284 
L 105.108083 8.371851 
L 108.595583 8.475279 
L 112.083083 8.674777 
L 115.570583 8.920742 
L 119.058083 9.004051 
L 122.545583 8.949494 
L 126.033083 8.964019 
L 129.520583 8.973335 
" clip-path="url(#p85c37f3168)" style="fill: none; stroke-dasharray: 1.85,0.8; stroke-dashoffset: 0; stroke: #808080; stroke-width: 0.5"/>
   </g>
   <g id="line2d_29">
    <path d="M 17.920583 8.885118 
L 21.408083 8.627495 
L 24.895583 8.473511 
L 28.383083 8.446807 
L 31.870583 8.608726 
L 35.358083 8.804978 
L 38.845583 8.708019 
L 42.333083 8.547673 
L 45.820583 8.411548 
L 49.308083 8.372115 
L 52.795583 8.475543 
L 56.283083 8.675041 
L 59.770583 8.921006 
L 63.258083 9.004315 
L 66.745583 8.949758 
L 70.233083 8.964283 
L 73.720583 8.973599 
L 77.208083 8.964283 
L 80.695583 8.949758 
L 84.183083 9.004315 
L 87.670583 8.921006 
L 91.158083 8.675041 
L 94.645583 8.475543 
L 98.133083 8.372115 
L 101.620583 8.411548 
L 105.108083 8.547673 
L 108.595583 8.708019 
L 112.083083 8.804978 
L 115.570583 8.608726 
L 119.058083 8.446807 
L 122.545583 8.473511 
L 126.033083 8.627495 
L 129.520583 8.885118 
" clip-path="url(#p85c37f3168)" style="fill: none; stroke-dasharray: 1.85,0.8; stroke-dashoffset: 0; stroke: #808080; stroke-width: 0.5"/>
   </g>
   <g id="line2d_30">
    <path d="M 17.920583 8.682258 
L 21.408083 8.667232 
L 24.895583 8.64819 
L 28.383083 8.504929 
L 31.870583 8.478669 
L 35.358083 8.521525 
L 38.845583 8.68843 
L 42.333083 8.811125 
L 45.820583 8.79767 
L 49.308083 8.642742 
L 52.795583 8.441986 
L 56.283083 8.349462 
L 59.770583 8.608429 
L 63.258083 8.778228 
L 66.745583 8.793261 
L 70.233083 8.636173 
L 73.720583 8.445994 
L 77.208083 8.636173 
L 80.695583 8.793261 
L 84.183083 8.778228 
L 87.670583 8.608429 
L 91.158083 8.349462 
L 94.645583 8.441986 
L 98.133083 8.642742 
L 101.620583 8.79767 
L 105.108083 8.811125 
L 108.595583 8.68843 
L 112.083083 8.521525 
L 115.570583 8.478669 
L 119.058083 8.504929 
L 122.545583 8.64819 
L 126.033083 8.667232 
L 129.520583 8.682258 
" clip-path="url(#p85c37f3168)" style="fill: none; stroke-dasharray: 1.85,0.8; stroke-dashoffset: 0; stroke: #808080; stroke-width: 0.5"/>
   </g>
   <g id="line2d_31">
    <path d="M 17.920583 8.446258 
L 21.408083 8.636437 
L 24.895583 8.793525 
L 28.383083 8.778492 
L 31.870583 8.608693 
L 35.358083 8.349726 
L 38.845583 8.44225 
L 42.333083 8.643006 
L 45.820583 8.797934 
L 49.308083 8.811389 
L 52.795583 8.688694 
L 56.283083 8.521789 
L 59.770583 8.478933 
L 63.258083 8.505193 
L 66.745583 8.648454 
L 70.233083 8.667496 
L 73.720583 8.682522 
L 77.208083 8.667496 
L 80.695583 8.648454 
L 84.183083 8.505193 
L 87.670583 8.478933 
L 91.158083 8.521789 
L 94.645583 8.688694 
L 98.133083 8.811389 
L 101.620583 8.797934 
L 105.108083 8.643006 
L 108.595583 8.44225 
L 112.083083 8.349726 
L 115.570583 8.608693 
L 119.058083 8.778492 
L 122.545583 8.793525 
L 126.033083 8.636437 
L 129.520583 8.446258 
" clip-path="url(#p85c37f3168)" style="fill: none; stroke-dasharray: 1.85,0.8; stroke-dashoffset: 0; stroke: #808080; stroke-width: 0.5"/>
   </g>
   <g id="line2d_32">
    <path clip-path="url(#p85c37f3168)" style="fill: none; stroke-dasharray: 1.85,0.8; stroke-dashoffset: 0; stroke: #808080; stroke-width: 0.5"/>
   </g>
   <g id="line2d_33">
    <path clip-path="url(#p85c37f3168)" style="fill: none; stroke-dasharray: 1.85,0.8; stroke-dashoffset: 0; stroke: #808080; stroke-width: 0.5"/>
   </g>
   <g id="line2d_34">
    <path clip-path="url(#p85c37f3168)" style="fill: none; stroke-dasharray: 1.85,0.8; stroke-dashoffset: 0; stroke: #808080; stroke-width: 0.5"/>
   </g>
   <g id="line2d_35">
    <path clip-path="url(#p85c37f3168)" style="fill: none; stroke-dasharray: 1.85,0.8; stroke-dashoffset: 0; stroke: #808080; stroke-width: 0.5"/>
   </g>
   <g id="line2d_36">
    <path clip-path="url(#p85c37f3168)" style="fill: none; stroke-dasharray: 1.85,0.8; stroke-dashoffset: 0; stroke: #808080; stroke-width: 0.5"/>
   </g>
   <g id="line2d_37">
    <path clip-path="url(#p85c37f3168)" style="fill: none; stroke-dasharray: 1.85,0.8; stroke-dashoffset: 0; stroke: #808080; stroke-width: 0.5"/>
   </g>
   <g id="line2d_38">
    <path clip-path="url(#p85c37f3168)" style="fill: none; stroke-dasharray: 1.85,0.8; stroke-dashoffset: 0; stroke: #808080; stroke-width: 0.5"/>
   </g>
   <g id="line2d_39">
    <path clip-path="url(#p85c37f3168)" style="fill: none; stroke-dasharray: 1.85,0.8; stroke-dashoffset: 0; stroke: #808080; stroke-width: 0.5"/>
   </g>
   <g id="line2d_40">
    <path d="M 17.920583 2.930893 
L 21.408083 2.926968 
L 24.895583 2.914283 
L 28.383083 2.953092 
L 31.870583 2.926093 
L 35.358083 2.903606 
L 38.845583 2.907137 
L 42.333083 2.921892 
L 45.820583 2.939831 
L 49.308083 2.939792 
L 52.795583 2.906437 
L 56.283083 2.86822 
L 59.770583 2.852827 
L 63.258083 2.850742 
L 66.745583 2.869615 
L 70.233083 2.871483 
L 73.720583 2.873104 
L 77.208083 2.871483 
L 80.695583 2.869615 
L 84.183083 2.850742 
L 87.670583 2.852827 
L 91.158083 2.86822 
L 94.645583 2.906437 
L 98.133083 2.939792 
L 101.620583 2.939831 
L 105.108083 2.921892 
L 108.595583 2.907137 
L 112.083083 2.903606 
L 115.570583 2.926093 
L 119.058083 2.953092 
L 122.545583 2.914283 
L 126.033083 2.926968 
L 129.520583 2.930893 
" clip-path="url(#p85c37f3168)" style="fill: none; stroke-dasharray: 1.85,0.8; stroke-dashoffset: 0; stroke: #808080; stroke-width: 0.5"/>
   </g>
   <g id="line2d_41">
    <path d="M 17.920583 2.91108 
L 21.408083 2.941428 
L 24.895583 2.958866 
L 28.383083 2.91047 
L 31.870583 2.923949 
L 35.358083 2.925965 
L 38.845583 2.915973 
L 42.333083 2.914689 
L 45.820583 2.902889 
L 49.308083 2.898252 
L 52.795583 2.911907 
L 56.283083 2.917568 
L 59.770583 2.900355 
L 63.258083 2.897025 
L 66.745583 2.882529 
L 70.233083 2.882606 
L 73.720583 2.882222 
L 77.208083 2.882606 
L 80.695583 2.882529 
L 84.183083 2.897025 
L 87.670583 2.900355 
L 91.158083 2.917568 
L 94.645583 2.911907 
L 98.133083 2.898252 
L 101.620583 2.902889 
L 105.108083 2.914689 
L 108.595583 2.915973 
L 112.083083 2.925965 
L 115.570583 2.923949 
L 119.058083 2.91047 
L 122.545583 2.958866 
L 126.033083 2.941428 
L 129.520583 2.91108 
" clip-path="url(#p85c37f3168)" style="fill: none; stroke-dasharray: 1.85,0.8; stroke-dashoffset: 0; stroke: #808080; stroke-width: 0.5"/>
   </g>
   <g id="line2d_42">
    <path d="M 17.920583 2.881958 
L 21.408083 2.882342 
L 24.895583 2.882265 
L 28.383083 2.896761 
L 31.870583 2.900091 
L 35.358083 2.917304 
L 38.845583 2.911643 
L 42.333083 2.897988 
L 45.820583 2.902625 
L 49.308083 2.914425 
L 52.795583 2.915709 
L 56.283083 2.925701 
L 59.770583 2.923685 
L 63.258083 2.910206 
L 66.745583 2.958602 
L 70.233083 2.941164 
L 73.720583 2.910816 
L 77.208083 2.941164 
L 80.695583 2.958602 
L 84.183083 2.910206 
L 87.670583 2.923685 
L 91.158083 2.925701 
L 94.645583 2.915709 
L 98.133083 2.914425 
L 101.620583 2.902625 
L 105.108083 2.897988 
L 108.595583 2.911643 
L 112.083083 2.917304 
L 115.570583 2.900091 
L 119.058083 2.896761 
L 122.545583 2.882265 
L 126.033083 2.882342 
L 129.520583 2.881958 
" clip-path="url(#p85c37f3168)" style="fill: none; stroke-dasharray: 1.85,0.8; stroke-dashoffset: 0; stroke: #808080; stroke-width: 0.5"/>
   </g>
   <g id="line2d_43">
    <path d="M 17.920583 2.87284 
L 21.408083 2.871219 
L 24.895583 2.869351 
L 28.383083 2.850478 
L 31.870583 2.852563 
L 35.358083 2.867956 
L 38.845583 2.906173 
L 42.333083 2.939528 
L 45.820583 2.939567 
L 49.308083 2.921628 
L 52.795583 2.906873 
L 56.283083 2.903342 
L 59.770583 2.925829 
L 63.258083 2.952828 
L 66.745583 2.914019 
L 70.233083 2.926704 
L 73.720583 2.930629 
L 77.208083 2.926704 
L 80.695583 2.914019 
L 84.183083 2.952828 
L 87.670583 2.925829 
L 91.158083 2.903342 
L 94.645583 2.906873 
L 98.133083 2.921628 
L 101.620583 2.939567 
L 105.108083 2.939528 
L 108.595583 2.906173 
L 112.083083 2.867956 
L 115.570583 2.852563 
L 119.058083 2.850478 
L 122.545583 2.869351 
L 126.033083 2.871219 
L 129.520583 2.87284 
" clip-path="url(#p85c37f3168)" style="fill: none; stroke-dasharray: 1.85,0.8; stroke-dashoffset: 0; stroke: #808080; stroke-width: 0.5"/>
   </g>
   <g id="line2d_44">
    <path d="M 17.920583 2.345028 
L 21.408083 2.361297 
L 24.895583 2.379373 
L 28.383083 2.406315 
L 31.870583 2.441668 
L 35.358083 2.480192 
L 38.845583 2.492463 
L 42.333083 2.507377 
L 45.820583 2.511212 
L 49.308083 2.518561 
L 52.795583 2.568843 
L 56.283083 2.60838 
L 59.770583 2.651618 
L 63.258083 2.666895 
L 66.745583 2.632026 
L 70.233083 2.612083 
L 73.720583 2.592746 
L 77.208083 2.612083 
L 80.695583 2.632026 
L 84.183083 2.666895 
L 87.670583 2.651618 
L 91.158083 2.60838 
L 94.645583 2.568843 
L 98.133083 2.518561 
L 101.620583 2.511212 
L 105.108083 2.507377 
L 108.595583 2.492463 
L 112.083083 2.480192 
L 115.570583 2.441668 
L 119.058083 2.406315 
L 122.545583 2.379373 
L 126.033083 2.361297 
L 129.520583 2.345028 
" clip-path="url(#p85c37f3168)" style="fill: none; stroke-dasharray: 1.85,0.8; stroke-dashoffset: 0; stroke: #808080; stroke-width: 0.5"/>
   </g>
   <g id="line2d_45">
    <path d="M 17.920583 2.631827 
L 21.408083 2.578582 
L 24.895583 2.546721 
L 28.383083 2.528296 
L 31.870583 2.546808 
L 35.358083 2.625708 
L 38.845583 2.638899 
L 42.333083 2.620065 
L 45.820583 2.596643 
L 49.308083 2.567394 
L 52.795583 2.53719 
L 56.283083 2.529579 
L 59.770583 2.536277 
L 63.258083 2.546727 
L 66.745583 2.557654 
L 70.233083 2.567209 
L 73.720583 2.576087 
L 77.208083 2.567209 
L 80.695583 2.557654 
L 84.183083 2.546727 
L 87.670583 2.536277 
L 91.158083 2.529579 
L 94.645583 2.53719 
L 98.133083 2.567394 
L 101.620583 2.596643 
L 105.108083 2.620065 
L 108.595583 2.638899 
L 112.083083 2.625708 
L 115.570583 2.546808 
L 119.058083 2.528296 
L 122.545583 2.546721 
L 126.033083 2.578582 
L 129.520583 2.631827 
" clip-path="url(#p85c37f3168)" style="fill: none; stroke-dasharray: 1.85,0.8; stroke-dashoffset: 0; stroke: #808080; stroke-width: 0.5"/>
   </g>
   <g id="line2d_46">
    <path d="M 17.920583 2.604405 
L 21.408083 2.601083 
L 24.895583 2.597526 
L 28.383083 2.568367 
L 31.870583 2.571175 
L 35.358083 2.563709 
L 38.845583 2.523769 
L 42.333083 2.473915 
L 45.820583 2.465547 
L 49.308083 2.495049 
L 52.795583 2.499208 
L 56.283083 2.49168 
L 59.770583 2.487052 
L 63.258083 2.497571 
L 66.745583 2.500983 
L 70.233083 2.49609 
L 73.720583 2.492956 
L 77.208083 2.49609 
L 80.695583 2.500983 
L 84.183083 2.497571 
L 87.670583 2.487052 
L 91.158083 2.49168 
L 94.645583 2.499208 
L 98.133083 2.495049 
L 101.620583 2.465547 
L 105.108083 2.473915 
L 108.595583 2.523769 
L 112.083083 2.563709 
L 115.570583 2.571175 
L 119.058083 2.568367 
L 122.545583 2.597526 
L 126.033083 2.601083 
L 129.520583 2.604405 
" clip-path="url(#p85c37f3168)" style="fill: none; stroke-dasharray: 1.85,0.8; stroke-dashoffset: 0; stroke: #808080; stroke-width: 0.5"/>
   </g>
   <g id="line2d_47">
    <path d="M 17.920583 2.59301 
L 21.408083 2.612347 
L 24.895583 2.63229 
L 28.383083 2.667159 
L 31.870583 2.651882 
L 35.358083 2.608644 
L 38.845583 2.569107 
L 42.333083 2.518825 
L 45.820583 2.511476 
L 49.308083 2.507641 
L 52.795583 2.492727 
L 56.283083 2.480456 
L 59.770583 2.441932 
L 63.258083 2.406579 
L 66.745583 2.379637 
L 70.233083 2.361561 
L 73.720583 2.345292 
L 77.208083 2.361561 
L 80.695583 2.379637 
L 84.183083 2.406579 
L 87.670583 2.441932 
L 91.158083 2.480456 
L 94.645583 2.492727 
L 98.133083 2.507641 
L 101.620583 2.511476 
L 105.108083 2.518825 
L 108.595583 2.569107 
L 112.083083 2.608644 
L 115.570583 2.651882 
L 119.058083 2.667159 
L 122.545583 2.63229 
L 126.033083 2.612347 
L 129.520583 2.59301 
" clip-path="url(#p85c37f3168)" style="fill: none; stroke-dasharray: 1.85,0.8; stroke-dashoffset: 0; stroke: #808080; stroke-width: 0.5"/>
   </g>
   <g id="line2d_48">
    <path d="M 17.920583 2.575823 
L 21.408083 2.566945 
L 24.895583 2.55739 
L 28.383083 2.546463 
L 31.870583 2.536013 
L 35.358083 2.529315 
L 38.845583 2.536926 
L 42.333083 2.56713 
L 45.820583 2.596379 
L 49.308083 2.619801 
L 52.795583 2.638635 
L 56.283083 2.625444 
L 59.770583 2.546544 
L 63.258083 2.528032 
L 66.745583 2.546457 
L 70.233083 2.578318 
L 73.720583 2.631563 
L 77.208083 2.578318 
L 80.695583 2.546457 
L 84.183083 2.528032 
L 87.670583 2.546544 
L 91.158083 2.625444 
L 94.645583 2.638635 
L 98.133083 2.619801 
L 101.620583 2.596379 
L 105.108083 2.56713 
L 108.595583 2.536926 
L 112.083083 2.529315 
L 115.570583 2.536013 
L 119.058083 2.546463 
L 122.545583 2.55739 
L 126.033083 2.566945 
L 129.520583 2.575823 
" clip-path="url(#p85c37f3168)" style="fill: none; stroke-dasharray: 1.85,0.8; stroke-dashoffset: 0; stroke: #808080; stroke-width: 0.5"/>
   </g>
   <g id="line2d_49">
    <path d="M 17.920583 2.497989 
L 21.408083 2.491252 
L 24.895583 2.487111 
L 28.383083 2.484181 
L 31.870583 2.481984 
L 35.358083 2.494641 
L 38.845583 2.494357 
L 42.333083 2.48743 
L 45.820583 2.491378 
L 49.308083 2.499995 
L 52.795583 2.479456 
L 56.283083 2.411997 
L 59.770583 2.307732 
L 63.258083 2.304297 
L 66.745583 2.190115 
L 70.233083 2.171561 
L 73.720583 2.142941 
L 77.208083 2.171561 
L 80.695583 2.190115 
L 84.183083 2.304297 
L 87.670583 2.307732 
L 91.158083 2.411997 
L 94.645583 2.479456 
L 98.133083 2.499995 
L 101.620583 2.491378 
L 105.108083 2.48743 
L 108.595583 2.494357 
L 112.083083 2.494641 
L 115.570583 2.481984 
L 119.058083 2.484181 
L 122.545583 2.487111 
L 126.033083 2.491252 
L 129.520583 2.497989 
" clip-path="url(#p85c37f3168)" style="fill: none; stroke-dasharray: 1.85,0.8; stroke-dashoffset: 0; stroke: #808080; stroke-width: 0.5"/>
   </g>
   <g id="line2d_50">
    <path d="M 17.920583 2.49322 
L 21.408083 2.496354 
L 24.895583 2.501247 
L 28.383083 2.497835 
L 31.870583 2.487316 
L 35.358083 2.491944 
L 38.845583 2.499472 
L 42.333083 2.495313 
L 45.820583 2.465811 
L 49.308083 2.474179 
L 52.795583 2.524033 
L 56.283083 2.563973 
L 59.770583 2.571439 
L 63.258083 2.568631 
L 66.745583 2.59779 
L 70.233083 2.601347 
L 73.720583 2.604669 
L 77.208083 2.601347 
L 80.695583 2.59779 
L 84.183083 2.568631 
L 87.670583 2.571439 
L 91.158083 2.563973 
L 94.645583 2.524033 
L 98.133083 2.474179 
L 101.620583 2.465811 
L 105.108083 2.495313 
L 108.595583 2.499472 
L 112.083083 2.491944 
L 115.570583 2.487316 
L 119.058083 2.497835 
L 122.545583 2.501247 
L 126.033083 2.496354 
L 129.520583 2.49322 
" clip-path="url(#p85c37f3168)" style="fill: none; stroke-dasharray: 1.85,0.8; stroke-dashoffset: 0; stroke: #808080; stroke-width: 0.5"/>
   </g>
   <g id="line2d_51">
    <path d="M 17.920583 2.142677 
L 21.408083 2.171297 
L 24.895583 2.189851 
L 28.383083 2.304033 
L 31.870583 2.307468 
L 35.358083 2.411733 
L 38.845583 2.479192 
L 42.333083 2.499731 
L 45.820583 2.491114 
L 49.308083 2.487166 
L 52.795583 2.494093 
L 56.283083 2.494377 
L 59.770583 2.48172 
L 63.258083 2.483917 
L 66.745583 2.486847 
L 70.233083 2.490988 
L 73.720583 2.497725 
L 77.208083 2.490988 
L 80.695583 2.486847 
L 84.183083 2.483917 
L 87.670583 2.48172 
L 91.158083 2.494377 
L 94.645583 2.494093 
L 98.133083 2.487166 
L 101.620583 2.491114 
L 105.108083 2.499731 
L 108.595583 2.479192 
L 112.083083 2.411733 
L 115.570583 2.307468 
L 119.058083 2.304033 
L 122.545583 2.189851 
L 126.033083 2.171297 
L 129.520583 2.142677 
" clip-path="url(#p85c37f3168)" style="fill: none; stroke-dasharray: 1.85,0.8; stroke-dashoffset: 0; stroke: #808080; stroke-width: 0.5"/>
   </g>
   <g id="line2d_52">
    <path d="M 17.920583 2.069565 
L 21.408083 2.057955 
L 24.895583 2.043883 
L 28.383083 1.976726 
L 31.870583 1.944013 
L 35.358083 1.828689 
L 38.845583 1.788222 
L 42.333083 1.796467 
L 45.820583 1.794421 
M 105.108083 1.796467 
L 108.595583 1.788222 
L 112.083083 1.828689 
L 115.570583 1.944013 
L 119.058083 1.976726 
L 122.545583 2.043883 
L 126.033083 2.057955 
L 129.520583 2.069565 
" clip-path="url(#p85c37f3168)" style="fill: none; stroke-dasharray: 1.85,0.8; stroke-dashoffset: 0; stroke: #808080; stroke-width: 0.5"/>
   </g>
   <g id="line2d_53">
    <path d="M 17.920583 2.06989 
L 21.408083 2.018882 
L 24.895583 1.976621 
L 28.383083 2.013294 
L 31.870583 1.975693 
L 35.358083 1.925274 
L 38.845583 1.880016 
L 42.333083 1.816933 
M 108.595583 1.880016 
L 112.083083 1.925274 
L 115.570583 1.975693 
L 119.058083 2.013294 
L 122.545583 1.976621 
L 126.033083 2.018882 
L 129.520583 2.06989 
" clip-path="url(#p85c37f3168)" style="fill: none; stroke-dasharray: 1.85,0.8; stroke-dashoffset: 0; stroke: #808080; stroke-width: 0.5"/>
   </g>
   <g id="line2d_54">
    <path clip-path="url(#p85c37f3168)" style="fill: none; stroke-dasharray: 1.85,0.8; stroke-dashoffset: 0; stroke: #808080; stroke-width: 0.5"/>
   </g>
   <g id="line2d_55">
    <path clip-path="url(#p85c37f3168)" style="fill: none; stroke-dasharray: 1.85,0.8; stroke-dashoffset: 0; stroke: #808080; stroke-width: 0.5"/>
   </g>
   <g id="line2d_56">
    <path clip-path="url(#p85c37f3168)" style="fill: none; stroke-dasharray: 1.85,0.8; stroke-dashoffset: 0; stroke: #808080; stroke-width: 0.5"/>
   </g>
   <g id="line2d_57">
    <path clip-path="url(#p85c37f3168)" style="fill: none; stroke-dasharray: 1.85,0.8; stroke-dashoffset: 0; stroke: #808080; stroke-width: 0.5"/>
   </g>
   <g id="line2d_58">
    <path clip-path="url(#p85c37f3168)" style="fill: none; stroke-dasharray: 1.85,0.8; stroke-dashoffset: 0; stroke: #808080; stroke-width: 0.5"/>
   </g>
   <g id="line2d_59">
    <path clip-path="url(#p85c37f3168)" style="fill: none; stroke-dasharray: 1.85,0.8; stroke-dashoffset: 0; stroke: #808080; stroke-width: 0.5"/>
   </g>
   <g id="line2d_60">
    <path clip-path="url(#p85c37f3168)" style="fill: none; stroke-dasharray: 1.85,0.8; stroke-dashoffset: 0; stroke: #808080; stroke-width: 0.5"/>
   </g>
   <g id="line2d_61">
    <path clip-path="url(#p85c37f3168)" style="fill: none; stroke-dasharray: 1.85,0.8; stroke-dashoffset: 0; stroke: #808080; stroke-width: 0.5"/>
   </g>
   <g id="line2d_62">
    <path clip-path="url(#p85c37f3168)" style="fill: none; stroke-dasharray: 1.85,0.8; stroke-dashoffset: 0; stroke: #808080; stroke-width: 0.5"/>
   </g>
   <g id="line2d_63">
    <path clip-path="url(#p85c37f3168)" style="fill: none; stroke-dasharray: 1.85,0.8; stroke-dashoffset: 0; stroke: #808080; stroke-width: 0.5"/>
   </g>
   <g id="line2d_64">
    <path clip-path="url(#p85c37f3168)" style="fill: none; stroke-dasharray: 1.85,0.8; stroke-dashoffset: 0; stroke: #808080; stroke-width: 0.5"/>
   </g>
   <g id="line2d_65">
    <path clip-path="url(#p85c37f3168)" style="fill: none; stroke-dasharray: 1.85,0.8; stroke-dashoffset: 0; stroke: #808080; stroke-width: 0.5"/>
   </g>
   <g id="line2d_66">
    <path d="M 49.308083 1.796731 
L 52.795583 1.788486 
L 56.283083 1.828953 
L 59.770583 1.944277 
L 63.258083 1.97699 
L 66.745583 2.044147 
L 70.233083 2.058219 
L 73.720583 2.069829 
L 77.208083 2.058219 
L 80.695583 2.044147 
L 84.183083 1.97699 
L 87.670583 1.944277 
L 91.158083 1.828953 
L 94.645583 1.788486 
L 98.133083 1.796731 
L 101.620583 1.794685 
" clip-path="url(#p85c37f3168)" style="fill: none; stroke-dasharray: 1.85,0.8; stroke-dashoffset: 0; stroke: #808080; stroke-width: 0.5"/>
   </g>
   <g id="line2d_67">
    <path d="M 52.795583 1.88028 
L 56.283083 1.925538 
L 59.770583 1.975957 
L 63.258083 2.013558 
L 66.745583 1.976885 
L 70.233083 2.019146 
L 73.720583 2.070154 
L 77.208083 2.019146 
L 80.695583 1.976885 
L 84.183083 2.013558 
L 87.670583 1.975957 
L 91.158083 1.925538 
L 94.645583 1.88028 
L 98.133083 1.817197 
" clip-path="url(#p85c37f3168)" style="fill: none; stroke-dasharray: 1.85,0.8; stroke-dashoffset: 0; stroke: #808080; stroke-width: 0.5"/>
   </g>
   <g id="line2d_68">
    <path d="M 17.920583 9.66737 
L 21.408083 9.66737 
L 24.895583 9.66737 
L 28.383083 9.66737 
L 31.870583 9.66737 
L 35.358083 9.66737 
L 38.845583 9.66737 
L 42.333083 9.66737 
L 45.820583 9.66737 
L 49.308083 9.66737 
L 52.795583 9.66737 
L 56.283083 9.66737 
L 59.770583 9.66737 
L 63.258083 9.66737 
L 66.745583 9.66737 
L 70.233083 9.66737 
L 73.720583 9.66737 
L 77.208083 9.66737 
L 80.695583 9.66737 
L 84.183083 9.66737 
L 87.670583 9.66737 
L 91.158083 9.66737 
L 94.645583 9.66737 
L 98.133083 9.66737 
L 101.620583 9.66737 
L 105.108083 9.66737 
L 108.595583 9.66737 
L 112.083083 9.66737 
L 115.570583 9.66737 
L 119.058083 9.66737 
L 122.545583 9.66737 
L 126.033083 9.66737 
L 129.520583 9.66737 
" clip-path="url(#p85c37f3168)" style="fill: none; stroke-dasharray: 3.2,0.8,0.5,0.8; stroke-dashoffset: 0; stroke: #008000; stroke-width: 0.5"/>
   </g>
   <g id="line2d_69">
    <path clip-path="url(#p85c37f3168)" style="fill: none; stroke-dasharray: 3.2,0.8,0.5,0.8; stroke-dashoffset: 0; stroke: #008000; stroke-width: 0.5"/>
   </g>
   <g id="patch_3">
    <path d="M 17.920583 59.16737 
L 17.920583 3.72737 
" style="fill: none; stroke: #000000; stroke-width: 0.4; stroke-linejoin: miter; stroke-linecap: square"/>
   </g>
   <g id="patch_4">
    <path d="M 129.520583 59.16737 
L 129.520583 3.72737 
" style="fill: none; stroke: #000000; stroke-width: 0.4; stroke-linejoin: miter; stroke-linecap: square"/>
   </g>
   <g id="patch_5">
    <path d="M 17.920583 59.16737 
L 129.520583 59.16737 
" style="fill: none; stroke: #000000; stroke-width: 0.4; stroke-linejoin: miter; stroke-linecap: square"/>
   </g>
   <g id="patch_6">
    <path d="M 17.920583 3.72737 
L 129.520583 3.72737 
" style="fill: none; stroke: #000000; stroke-width: 0.4; stroke-linejoin: miter; stroke-linecap: square"/>
   </g>
  </g>
 </g>
 <defs>
  <clipPath id="p85c37f3168">
   <rect x="17.920583" y="3.72737" width="111.6" height="55.44"/>
  </clipPath>
 </defs>
</svg>
