<?xml version="1.0" encoding="utf-8" standalone="no"?>
<!DOCTYPE svg PUBLIC "-//W3C//DTD SVG 1.1//EN"
  "http://www.w3.org/Graphics/SVG/1.1/DTD/svg11.dtd">
<svg xmlns:xlink="http://www.w3.org/1999/xlink" width="214.079705pt" height="85.457162pt" viewBox="0 0 214.079705 85.457162" xmlns="http://www.w3.org/2000/svg" version="1.1">
 <metadata>
  <rdf:RDF xmlns:dc="http://purl.org/dc/elements/1.1/" xmlns:cc="http://creativecommons.org/ns#" xmlns:rdf="http://www.w3.org/1999/02/22-rdf-syntax-ns#">
   <cc:Work>
    <dc:type rdf:resource="http://purl.org/dc/dcmitype/StillImage"/>
    <dc:date>2024-07-14T14:51:55.827772</dc:date>
    <dc:format>image/svg+xml</dc:format>
    <dc:creator>
     <cc:Agent>
      <dc:title>Matplotlib v3.8.4, https://matplotlib.org/</dc:title>
     </cc:Agent>
    </dc:creator>
   </cc:Work>
  </rdf:RDF>
 </metadata>
 <defs>
  <style type="text/css">*{stroke-linejoin: round; stroke-linecap: butt}</style>
 </defs>
 <g id="figure_1">
  <g id="patch_1">
   <path d="M 0 85.457162 
L 214.079705 85.457162 
L 214.079705 0 
L 0 0 
z
" style="fill: #ffffff"/>
  </g>
  <g id="axes_1">
   <g id="patch_2">
    <path d="M 17.920583 71.272736 
L 206.245583 71.272736 
L 206.245583 4.744736 
L 17.920583 4.744736 
z
" style="fill: #ffffff"/>
   </g>
   <g id="matplotlib.axis_1">
    <g id="xtick_1">
     <g id="line2d_1">
      <defs>
       <path id="m6de5a2c020" d="M 0 0 
L 0 -2.5 
" style="stroke: #000000; stroke-width: 0.6"/>
      </defs>
      <g>
       <use xlink:href="#m6de5a2c020" x="17.920583" y="71.272736" style="stroke: #000000; stroke-width: 0.6"/>
      </g>
     </g>
     <g id="text_1">
      <!-- $\mathdefault{25}$ -->
      <g transform="translate(13.686461 80.307477) scale(0.08 -0.08)">
       <defs>
        <path id="LMSans17-Regular-32" d="M 2701 0 
L 2701 435 
L 1613 435 
C 1536 435 1459 428 1382 428 
L 742 428 
L 742 435 
L 1651 1353 
C 1830 1538 2099 1761 2285 1984 
C 2464 2201 2701 2507 2701 2953 
C 2701 3655 2227 4288 1421 4288 
C 787 4288 422 3891 250 3272 
L 499 2928 
C 640 3508 838 3878 1338 3878 
C 1888 3878 2195 3431 2195 2940 
C 2195 2354 1747 1901 1408 1563 
L 301 409 
L 301 0 
L 2701 0 
z
" transform="scale(0.015625)"/>
        <path id="LMSans17-Regular-35" d="M 2701 1280 
C 2701 2082 2182 2694 1562 2694 
C 1338 2694 1120 2617 934 2464 
L 934 3814 
L 2502 3814 
L 2502 4224 
L 467 4224 
L 467 1827 
L 896 1827 
C 1011 2101 1248 2304 1555 2304 
C 1843 2304 2163 2043 2163 1293 
C 2163 501 1709 268 1376 268 
C 966 268 589 521 422 870 
L 218 508 
C 512 51 992 -128 1376 -128 
C 2118 -128 2701 508 2701 1280 
z
" transform="scale(0.015625)"/>
       </defs>
       <use xlink:href="#LMSans17-Regular-32" transform="scale(0.996264)"/>
       <use xlink:href="#LMSans17-Regular-35" transform="translate(46.844004 0) scale(0.996264)"/>
      </g>
     </g>
    </g>
    <g id="xtick_2">
     <g id="line2d_2">
      <g>
       <use xlink:href="#m6de5a2c020" x="80.695583" y="71.272736" style="stroke: #000000; stroke-width: 0.6"/>
      </g>
     </g>
     <g id="text_2">
      <!-- $\mathdefault{20}$ -->
      <g transform="translate(76.461461 80.307477) scale(0.08 -0.08)">
       <defs>
        <path id="LMSans17-Regular-30" d="M 2758 2075 
C 2758 2441 2752 3122 2490 3648 
C 2227 4153 1805 4288 1504 4288 
C 1069 4288 698 4031 506 3622 
C 301 3193 243 2749 243 2075 
C 243 1612 262 1046 493 551 
C 755 6 1197 -128 1498 -128 
C 1894 -128 2278 83 2496 525 
C 2720 988 2758 1496 2758 2075 
z
M 2272 2145 
C 2272 1547 2272 262 1498 262 
C 1011 262 864 821 819 1008 
C 742 1329 730 1637 730 2145 
C 730 2544 730 2994 851 3347 
C 998 3756 1254 3897 1498 3897 
C 1971 3897 2125 3423 2176 3257 
C 2272 2917 2272 2518 2272 2145 
z
" transform="scale(0.015625)"/>
       </defs>
       <use xlink:href="#LMSans17-Regular-32" transform="scale(0.996264)"/>
       <use xlink:href="#LMSans17-Regular-30" transform="translate(46.844004 0) scale(0.996264)"/>
      </g>
     </g>
    </g>
    <g id="xtick_3">
     <g id="line2d_3">
      <g>
       <use xlink:href="#m6de5a2c020" x="143.470583" y="71.272736" style="stroke: #000000; stroke-width: 0.6"/>
      </g>
     </g>
     <g id="text_3">
      <!-- $\mathdefault{15}$ -->
      <g transform="translate(139.236461 80.307477) scale(0.08 -0.08)">
       <defs>
        <path id="LMSans17-Regular-31" d="M 2573 0 
L 2573 371 
L 1818 371 
L 1818 4288 
L 1696 4288 
C 1350 3951 947 3903 538 3891 
L 538 3520 
C 723 3526 1024 3539 1325 3673 
L 1325 371 
L 570 371 
L 570 0 
L 2573 0 
z
" transform="scale(0.015625)"/>
       </defs>
       <use xlink:href="#LMSans17-Regular-31" transform="scale(0.996264)"/>
       <use xlink:href="#LMSans17-Regular-35" transform="translate(46.844004 0) scale(0.996264)"/>
      </g>
     </g>
    </g>
    <g id="xtick_4">
     <g id="line2d_4">
      <g>
       <use xlink:href="#m6de5a2c020" x="206.245583" y="71.272736" style="stroke: #000000; stroke-width: 0.6"/>
      </g>
     </g>
     <g id="text_4">
      <!-- $\mathdefault{10}$ -->
      <g transform="translate(202.011461 80.307477) scale(0.08 -0.08)">
       <use xlink:href="#LMSans17-Regular-31" transform="scale(0.996264)"/>
       <use xlink:href="#LMSans17-Regular-30" transform="translate(46.844004 0) scale(0.996264)"/>
      </g>
     </g>
    </g>
    <g id="text_5">
     <!-- $d/a$ -->
     <g transform="translate(105.387496 79.834746) scale(0.08 -0.08)">
      <defs>
       <path id="LMSans17-Oblique-64" d="M 2611 -13 
L 3558 4416 
L 3085 4416 
L 2662 2495 
C 2502 2662 2208 2816 1850 2816 
C 1267 2816 672 2179 506 1375 
C 333 572 653 -64 1222 -64 
C 1664 -64 2010 172 2195 307 
L 2125 -13 
L 2611 -13 
z
M 2304 851 
C 2291 760 2266 663 2035 488 
C 1882 378 1715 326 1568 326 
C 1222 326 826 585 986 1369 
C 1158 2185 1722 2425 2074 2425 
C 2310 2425 2477 2308 2573 2114 
L 2304 851 
z
" transform="scale(0.015625)"/>
       <path id="LMMathItalic12-Regular-3d" d="M 2784 4678 
C 2784 4755 2720 4800 2669 4800 
C 2637 4800 2579 4800 2528 4659 
L 384 -1364 
L 346 -1479 
C 346 -1556 410 -1600 461 -1600 
C 499 -1600 557 -1594 602 -1460 
L 2746 4563 
L 2784 4678 
z
" transform="scale(0.015625)"/>
       <path id="LMSans17-Oblique-61" d="M 2470 -13 
L 2854 1789 
C 2982 2399 2643 2816 2067 2816 
C 1786 2816 1466 2764 1069 2559 
L 1018 2133 
C 1203 2250 1517 2438 1978 2438 
C 2304 2438 2451 2185 2368 1782 
L 2317 1536 
C 1286 1504 582 1209 474 711 
C 422 452 467 -64 998 -64 
C 1094 -64 1619 -52 2048 224 
L 1997 -13 
L 2470 -13 
z
M 2163 824 
C 2138 711 2106 559 1888 446 
C 1702 339 1485 326 1395 326 
C 1075 326 896 503 947 723 
C 1043 1165 2048 1209 2246 1216 
L 2163 824 
z
" transform="scale(0.015625)"/>
      </defs>
      <use xlink:href="#LMSans17-Oblique-64" transform="scale(0.996264)"/>
      <use xlink:href="#LMMathItalic12-Regular-3d" transform="translate(58.081055 0) scale(0.996264)"/>
      <use xlink:href="#LMSans17-Oblique-61" transform="translate(106.855973 0) scale(0.996264)"/>
     </g>
    </g>
   </g>
   <g id="matplotlib.axis_2">
    <g id="ytick_1">
     <g id="line2d_5">
      <defs>
       <path id="md7a7c7b414" d="M 0 0 
L 2.5 0 
" style="stroke: #000000; stroke-width: 0.6"/>
      </defs>
      <g>
       <use xlink:href="#md7a7c7b414" x="17.920583" y="71.272736" style="stroke: #000000; stroke-width: 0.6"/>
      </g>
     </g>
     <g id="text_6">
      <!-- 0.0 -->
      <g transform="translate(3.6 74.040107) scale(0.08 -0.08)">
       <defs>
        <path id="LMSans17-Regular-2e" d="M 1088 0 
L 1088 512 
L 576 512 
L 576 0 
L 1088 0 
z
" transform="scale(0.015625)"/>
       </defs>
       <use xlink:href="#LMSans17-Regular-30" transform="scale(0.996264)"/>
       <use xlink:href="#LMSans17-Regular-2e" transform="translate(46.844004 0) scale(0.996264)"/>
       <use xlink:href="#LMSans17-Regular-30" transform="translate(72.869166 0) scale(0.996264)"/>
      </g>
     </g>
    </g>
    <g id="ytick_2">
     <g id="line2d_6">
      <g>
       <use xlink:href="#md7a7c7b414" x="17.920583" y="38.820053" style="stroke: #000000; stroke-width: 0.6"/>
      </g>
     </g>
    </g>
    <g id="ytick_3">
     <g id="line2d_7">
      <g>
       <use xlink:href="#md7a7c7b414" x="17.920583" y="6.36737" style="stroke: #000000; stroke-width: 0.6"/>
      </g>
     </g>
     <g id="text_7">
      <!-- 0.4 -->
      <g transform="translate(3.6 9.134741) scale(0.08 -0.08)">
       <defs>
        <path id="LMSans17-Regular-34" d="M 2835 1088 
L 2835 1478 
L 2253 1478 
L 2253 4224 
L 1690 4224 
L 166 1478 
L 166 1088 
L 1747 1088 
L 1747 0 
L 2253 0 
L 2253 1088 
L 2835 1088 
z
M 1766 1478 
L 659 1478 
C 1030 2138 1760 3472 1766 3926 
L 1766 1478 
z
" transform="scale(0.015625)"/>
       </defs>
       <use xlink:href="#LMSans17-Regular-30" transform="scale(0.996264)"/>
       <use xlink:href="#LMSans17-Regular-2e" transform="translate(46.844004 0) scale(0.996264)"/>
       <use xlink:href="#LMSans17-Regular-34" transform="translate(72.869166 0) scale(0.996264)"/>
      </g>
     </g>
    </g>
    <g id="text_8">
     <!-- $\omega_n$ -->
     <g transform="translate(10.050315 42.28122) rotate(-90) scale(0.08 -0.08)">
      <defs>
       <path id="LMMathItalic12-Regular-21" d="M 3642 1533 
C 3712 1807 3795 2133 3795 2394 
C 3795 2548 3763 2682 3680 2765 
C 3642 2797 3590 2816 3539 2816 
C 3469 2816 3398 2784 3341 2726 
C 3283 2669 3251 2599 3251 2535 
C 3251 2484 3270 2433 3309 2394 
C 3462 2254 3539 2050 3539 1820 
C 3539 1737 3526 1647 3507 1558 
C 3360 964 3002 352 2483 352 
C 2112 352 1907 620 1862 977 
C 1939 1156 2003 1347 2048 1533 
C 2061 1590 2074 1654 2074 1711 
C 2074 1788 2048 1845 1971 1845 
C 1856 1845 1805 1692 1773 1558 
C 1722 1367 1690 1175 1683 990 
C 1472 626 1165 352 800 352 
C 416 352 250 671 250 1073 
C 250 1220 275 1373 314 1533 
C 410 1916 627 2279 877 2624 
C 890 2650 896 2669 896 2694 
C 896 2726 883 2758 851 2777 
C 832 2784 806 2784 806 2784 
C 768 2784 730 2765 704 2733 
C 442 2362 275 1960 173 1558 
C 109 1303 77 1047 77 818 
C 77 320 250 -64 723 -64 
C 1133 -64 1459 236 1702 645 
C 1760 230 1971 -64 2406 -64 
C 3066 -64 3450 760 3642 1533 
z
" transform="scale(0.015625)"/>
       <path id="LMSans17-Oblique-6e" d="M 2618 12 
L 3014 1881 
C 3098 2284 3117 2816 2394 2816 
C 1984 2816 1670 2604 1446 2387 
L 1530 2783 
L 1062 2783 
L 474 0 
L 960 0 
L 1286 1556 
C 1376 1962 1626 2425 2061 2425 
C 2624 2425 2566 2045 2515 1827 
L 2131 0 
L 2618 12 
z
" transform="scale(0.015625)"/>
      </defs>
      <use xlink:href="#LMMathItalic12-Regular-21" transform="scale(0.996264)"/>
      <use xlink:href="#LMSans17-Oblique-6e" transform="translate(60.743753 -14.943915) scale(0.697382)"/>
     </g>
    </g>
   </g>
   <g id="line2d_8">
    <path d="M 5.365583 49.407262 
L 17.920583 50.799133 
L 30.475583 50.963024 
L 43.030583 49.246304 
L 55.585583 46.010548 
L 68.140583 43.225514 
L 80.695583 43.060847 
L 93.250583 45.671621 
L 105.805583 49.808784 
L 118.360583 53.965472 
L 130.915583 56.009193 
L 143.470583 52.401676 
L 156.025583 41.112854 
L 168.580583 30.016307 
L 181.135583 29.650947 
L 193.690583 37.981544 
L 206.245583 50.913705 
L 215.079705 61.92534 
" clip-path="url(#pd461603ef9)" style="fill: none; stroke: #0000ff; stroke-width: 0.5; stroke-linecap: square"/>
   </g>
   <g id="line2d_9">
    <path d="M 210.396928 86.457162 
L 215.079705 80.620133 
" clip-path="url(#pd461603ef9)" style="fill: none; stroke-dasharray: 1.85,0.8; stroke-dashoffset: 0; stroke: #808080; stroke-opacity: 0.5; stroke-width: 0.5"/>
   </g>
   <g id="line2d_10">
    <path clip-path="url(#pd461603ef9)" style="fill: none; stroke-dasharray: 1.85,0.8; stroke-dashoffset: 0; stroke: #808080; stroke-opacity: 0.5; stroke-width: 0.5"/>
   </g>
   <g id="line2d_11">
    <path clip-path="url(#pd461603ef9)" style="fill: none; stroke-dasharray: 1.85,0.8; stroke-dashoffset: 0; stroke: #808080; stroke-opacity: 0.5; stroke-width: 0.5"/>
   </g>
   <g id="line2d_12">
    <path d="M 5.365583 48.422727 
L 17.920583 48.521565 
L 30.475583 48.542344 
L 43.030583 48.435715 
L 55.585583 48.219211 
L 68.140583 47.995785 
L 80.695583 47.917426 
L 93.250583 48.104655 
L 105.805583 48.562952 
L 118.360583 49.129486 
L 130.915583 49.47405 
L 143.470583 49.211289 
L 156.025583 48.189036 
L 168.580583 46.803724 
L 181.135583 45.928337 
L 193.690583 46.406183 
L 206.245583 48.649162 
L 215.079705 51.435133 
" clip-path="url(#pd461603ef9)" style="fill: none; stroke-dasharray: 1.85,0.8; stroke-dashoffset: 0; stroke: #ff0000; stroke-width: 0.5"/>
   </g>
   <g id="line2d_13">
    <path d="M 5.365583 48.251919 
L 17.920583 48.154193 
L 30.475583 48.134906 
L 43.030583 48.239927 
L 55.585583 48.453727 
L 68.140583 48.681565 
L 80.695583 48.769954 
L 93.250583 48.580604 
L 105.805583 48.10491 
L 118.360583 47.540151 
L 130.915583 47.229679 
L 143.470583 47.483077 
L 156.025583 48.398766 
L 168.580583 49.747413 
L 181.135583 50.862278 
L 193.690583 50.569641 
L 206.245583 47.653732 
L 215.079705 43.967653 
" clip-path="url(#pd461603ef9)" style="fill: none; stroke: #ff0000; stroke-width: 0.5; stroke-linecap: square"/>
   </g>
   <g id="line2d_14">
    <path d="M 167.582775 86.457162 
L 168.580583 85.87692 
L 181.135583 80.240768 
L 193.690583 84.272659 
L 194.722275 86.457162 
" clip-path="url(#pd461603ef9)" style="fill: none; stroke-dasharray: 1.85,0.8; stroke-dashoffset: 0; stroke: #808080; stroke-opacity: 0.5; stroke-width: 0.5"/>
   </g>
   <g id="line2d_15">
    <path d="M 5.365583 46.82958 
L 17.920583 45.276188 
L 30.475583 45.303359 
L 43.030583 47.032854 
L 55.585583 49.661904 
L 68.140583 52.032028 
L 80.695583 52.711264 
L 93.250583 50.197286 
L 105.805583 44.464667 
L 118.360583 39.126884 
L 130.915583 38.607613 
L 143.470583 42.765047 
L 156.025583 49.367606 
L 168.580583 56.668553 
L 181.135583 62.304704 
L 193.690583 58.272814 
L 206.245583 31.688878 
L 215.079705 14.812352 
" clip-path="url(#pd461603ef9)" style="fill: none; stroke-dasharray: 1.85,0.8; stroke-dashoffset: 0; stroke: #0000ff; stroke-width: 0.5"/>
   </g>
   <g id="line2d_16">
    <path d="M 5.365583 14.132189 
L 17.920583 14.10345 
L 30.475583 14.08282 
L 43.030583 14.082732 
L 55.585583 14.10947 
L 68.140583 14.154868 
L 80.695583 14.193093 
L 93.250583 14.208142 
L 105.805583 14.200125 
L 118.360583 14.175999 
L 130.915583 14.149708 
L 143.470583 14.136236 
L 156.025583 14.146636 
L 168.580583 14.191121 
L 181.135583 14.252198 
L 193.690583 14.296689 
L 206.245583 14.323709 
L 215.079705 14.326027 
" clip-path="url(#pd461603ef9)" style="fill: none; stroke-dasharray: 1.85,0.8; stroke-dashoffset: 0; stroke: #808080; stroke-opacity: 0.5; stroke-width: 0.5"/>
   </g>
   <g id="line2d_17">
    <path d="M 5.365583 14.099617 
L 17.920583 14.142176 
L 30.475583 14.172483 
L 43.030583 14.178435 
L 55.585583 14.162705 
L 68.140583 14.135389 
L 80.695583 14.111246 
L 93.250583 14.104343 
L 105.805583 14.124704 
L 118.360583 14.171692 
L 130.915583 14.218823 
L 143.470583 14.244462 
L 156.025583 14.246455 
L 168.580583 14.227706 
L 181.135583 14.201428 
L 193.690583 14.184455 
L 206.245583 14.180862 
L 215.079705 14.235123 
" clip-path="url(#pd461603ef9)" style="fill: none; stroke-dasharray: 1.85,0.8; stroke-dashoffset: 0; stroke: #808080; stroke-opacity: 0.5; stroke-width: 0.5"/>
   </g>
   <g id="line2d_18">
    <path d="M 5.365583 13.753848 
L 17.920583 13.779422 
L 30.475583 13.804367 
L 43.030583 13.828621 
L 55.585583 13.852246 
L 68.140583 13.875405 
L 80.695583 13.898461 
L 93.250583 13.921906 
L 105.805583 13.945555 
L 118.360583 13.968438 
L 130.915583 13.990201 
L 143.470583 14.01111 
L 156.025583 14.031476 
L 168.580583 14.05151 
L 181.135583 14.071166 
L 193.690583 14.091464 
L 206.245583 14.126705 
L 215.079705 14.139597 
" clip-path="url(#pd461603ef9)" style="fill: none; stroke-dasharray: 1.85,0.8; stroke-dashoffset: 0; stroke: #808080; stroke-opacity: 0.5; stroke-width: 0.5"/>
   </g>
   <g id="line2d_19">
    <path d="M 5.365583 13.565397 
L 17.920583 13.601599 
L 30.475583 13.636832 
L 43.030583 13.670658 
L 55.585583 13.70271 
L 68.140583 13.732949 
L 80.695583 13.761824 
L 93.250583 13.790167 
L 105.805583 13.818827 
L 118.360583 13.848249 
L 130.915583 13.878194 
L 143.470583 13.90765 
L 156.025583 13.934965 
L 168.580583 13.958566 
L 181.135583 13.978541 
L 193.690583 13.997692 
L 206.245583 14.019958 
L 215.079705 14.039616 
" clip-path="url(#pd461603ef9)" style="fill: none; stroke-dasharray: 1.85,0.8; stroke-dashoffset: 0; stroke: #808080; stroke-opacity: 0.5; stroke-width: 0.5"/>
   </g>
   <g id="line2d_20">
    <path clip-path="url(#pd461603ef9)" style="fill: none; stroke-dasharray: 1.85,0.8; stroke-dashoffset: 0; stroke: #808080; stroke-opacity: 0.5; stroke-width: 0.5"/>
   </g>
   <g id="line2d_21">
    <path clip-path="url(#pd461603ef9)" style="fill: none; stroke-dasharray: 1.85,0.8; stroke-dashoffset: 0; stroke: #808080; stroke-opacity: 0.5; stroke-width: 0.5"/>
   </g>
   <g id="line2d_22">
    <path clip-path="url(#pd461603ef9)" style="fill: none; stroke-dasharray: 1.85,0.8; stroke-dashoffset: 0; stroke: #808080; stroke-opacity: 0.5; stroke-width: 0.5"/>
   </g>
   <g id="line2d_23">
    <path clip-path="url(#pd461603ef9)" style="fill: none; stroke-dasharray: 1.85,0.8; stroke-dashoffset: 0; stroke: #808080; stroke-opacity: 0.5; stroke-width: 0.5"/>
   </g>
   <g id="line2d_24">
    <path d="M 5.365583 11.737518 
L 17.920583 11.710917 
L 30.475583 11.701756 
L 43.030583 11.717025 
L 55.585583 11.747632 
L 68.140583 11.774508 
L 80.695583 11.783379 
L 93.250583 11.771241 
L 105.805583 11.744098 
L 118.360583 11.714518 
L 130.915583 11.698836 
L 143.470583 11.709021 
L 156.025583 11.740125 
L 168.580583 11.771181 
L 181.135583 11.785344 
L 193.690583 11.777554 
L 206.245583 11.749834 
L 215.079705 11.722663 
" clip-path="url(#pd461603ef9)" style="fill: none; stroke-dasharray: 1.85,0.8; stroke-dashoffset: 0; stroke: #808080; stroke-opacity: 0.5; stroke-width: 0.5"/>
   </g>
   <g id="line2d_25">
    <path d="M 5.365583 11.750105 
L 17.920583 11.775552 
L 30.475583 11.78244 
L 43.030583 11.768476 
L 55.585583 11.740748 
L 68.140583 11.712939 
L 80.695583 11.701004 
L 93.250583 11.714034 
L 105.805583 11.744648 
L 118.360583 11.773203 
L 130.915583 11.784463 
L 143.470583 11.774679 
L 156.025583 11.748308 
L 168.580583 11.716231 
L 181.135583 11.694946 
L 193.690583 11.700811 
L 206.245583 11.733079 
L 215.079705 11.757054 
" clip-path="url(#pd461603ef9)" style="fill: none; stroke-dasharray: 1.85,0.8; stroke-dashoffset: 0; stroke: #808080; stroke-opacity: 0.5; stroke-width: 0.5"/>
   </g>
   <g id="line2d_26">
    <path d="M 5.365583 10.582877 
L 17.920583 10.447122 
L 30.475583 10.309198 
L 43.030583 10.171756 
L 55.585583 10.038196 
L 68.140583 9.912851 
L 80.695583 9.800757 
L 93.250583 9.703744 
L 105.805583 9.615353 
L 118.360583 9.532637 
L 130.915583 9.462357 
L 143.470583 9.409832 
L 156.025583 9.37661 
L 168.580583 9.363526 
L 181.135583 9.382811 
L 193.690583 9.009926 
L 206.245583 7.732713 
" clip-path="url(#pd461603ef9)" style="fill: none; stroke-dasharray: 1.85,0.8; stroke-dashoffset: 0; stroke: #808080; stroke-opacity: 0.5; stroke-width: 0.5"/>
   </g>
   <g id="line2d_27">
    <path d="M 5.365583 10.249519 
L 17.920583 10.077649 
L 30.475583 9.906071 
L 43.030583 9.735793 
L 55.585583 9.567816 
L 68.140583 9.404786 
L 80.695583 9.252727 
L 93.250583 9.121058 
L 105.805583 9.019711 
L 118.360583 8.954425 
L 130.915583 8.922881 
L 143.470583 8.913593 
L 156.025583 8.90873 
L 168.580583 8.893272 
L 181.135583 8.870456 
L 193.690583 8.868971 
L 206.245583 8.924413 
L 215.079705 9.015571 
" clip-path="url(#pd461603ef9)" style="fill: none; stroke-dasharray: 1.85,0.8; stroke-dashoffset: 0; stroke: #808080; stroke-opacity: 0.5; stroke-width: 0.5"/>
   </g>
   <g id="line2d_28">
    <path d="M 5.365583 10.128589 
L 17.920583 10.222859 
L 30.475583 10.317405 
L 43.030583 10.411654 
L 55.585583 10.504243 
L 68.140583 10.593868 
L 80.695583 10.680205 
L 93.250583 10.763558 
L 105.805583 10.844264 
L 118.360583 10.922507 
L 130.915583 10.998559 
L 143.470583 11.074145 
L 156.025583 11.149445 
L 168.580583 11.218114 
L 181.135583 11.279626 
L 193.690583 11.335513 
L 206.245583 11.387513 
L 215.079705 11.423398 
" clip-path="url(#pd461603ef9)" style="fill: none; stroke-dasharray: 1.85,0.8; stroke-dashoffset: 0; stroke: #808080; stroke-opacity: 0.5; stroke-width: 0.5"/>
   </g>
   <g id="line2d_29">
    <path d="M 5.365583 9.856987 
L 17.920583 9.968413 
L 30.475583 10.078394 
L 43.030583 10.187547 
L 55.585583 10.296276 
L 68.140583 10.40423 
L 80.695583 10.5101 
L 93.250583 10.611867 
L 105.805583 10.707529 
L 118.360583 10.79616 
L 130.915583 10.878783 
L 143.470583 10.958159 
L 156.025583 11.037269 
L 168.580583 11.117645 
L 181.135583 11.198786 
L 193.690583 11.278476 
L 206.245583 11.35295 
L 215.079705 11.397457 
" clip-path="url(#pd461603ef9)" style="fill: none; stroke-dasharray: 1.85,0.8; stroke-dashoffset: 0; stroke: #808080; stroke-opacity: 0.5; stroke-width: 0.5"/>
   </g>
   <g id="line2d_30">
    <path d="M 5.365583 8.940071 
L 17.920583 8.699599 
L 30.475583 8.438029 
L 43.030583 8.342599 
L 55.585583 8.544812 
L 68.140583 8.958433 
L 80.695583 9.33796 
L 93.250583 9.556785 
L 105.805583 9.591601 
L 118.360583 9.452734 
L 130.915583 9.212989 
L 143.470583 9.013927 
L 156.025583 9.024195 
L 168.580583 9.363189 
L 181.135583 9.826913 
L 193.690583 10.175106 
L 206.245583 10.410144 
L 215.079705 10.478195 
" clip-path="url(#pd461603ef9)" style="fill: none; stroke-dasharray: 1.85,0.8; stroke-dashoffset: 0; stroke: #808080; stroke-opacity: 0.5; stroke-width: 0.5"/>
   </g>
   <g id="line2d_31">
    <path d="M 5.365583 8.379178 
L 17.920583 8.78858 
L 30.475583 9.123546 
L 43.030583 9.287785 
L 55.585583 9.260539 
L 68.140583 9.066363 
L 80.695583 8.804691 
L 93.250583 8.646325 
L 105.805583 8.762649 
L 118.360583 9.156581 
L 130.915583 9.570801 
L 143.470583 9.838816 
L 156.025583 9.937589 
L 168.580583 9.862844 
L 181.135583 9.666326 
L 193.690583 9.466119 
L 206.245583 9.350257 
L 215.079705 10.042891 
" clip-path="url(#pd461603ef9)" style="fill: none; stroke-dasharray: 1.85,0.8; stroke-dashoffset: 0; stroke: #808080; stroke-opacity: 0.5; stroke-width: 0.5"/>
   </g>
   <g id="line2d_32">
    <path clip-path="url(#pd461603ef9)" style="fill: none; stroke-dasharray: 1.85,0.8; stroke-dashoffset: 0; stroke: #808080; stroke-opacity: 0.5; stroke-width: 0.5"/>
   </g>
   <g id="line2d_33">
    <path clip-path="url(#pd461603ef9)" style="fill: none; stroke-dasharray: 1.85,0.8; stroke-dashoffset: 0; stroke: #808080; stroke-opacity: 0.5; stroke-width: 0.5"/>
   </g>
   <g id="line2d_34">
    <path clip-path="url(#pd461603ef9)" style="fill: none; stroke-dasharray: 1.85,0.8; stroke-dashoffset: 0; stroke: #808080; stroke-opacity: 0.5; stroke-width: 0.5"/>
   </g>
   <g id="line2d_35">
    <path clip-path="url(#pd461603ef9)" style="fill: none; stroke-dasharray: 1.85,0.8; stroke-dashoffset: 0; stroke: #808080; stroke-opacity: 0.5; stroke-width: 0.5"/>
   </g>
   <g id="line2d_36">
    <path clip-path="url(#pd461603ef9)" style="fill: none; stroke-dasharray: 1.85,0.8; stroke-dashoffset: 0; stroke: #808080; stroke-opacity: 0.5; stroke-width: 0.5"/>
   </g>
   <g id="line2d_37">
    <path clip-path="url(#pd461603ef9)" style="fill: none; stroke-dasharray: 1.85,0.8; stroke-dashoffset: 0; stroke: #808080; stroke-opacity: 0.5; stroke-width: 0.5"/>
   </g>
   <g id="line2d_38">
    <path clip-path="url(#pd461603ef9)" style="fill: none; stroke-dasharray: 1.85,0.8; stroke-dashoffset: 0; stroke: #808080; stroke-opacity: 0.5; stroke-width: 0.5"/>
   </g>
   <g id="line2d_39">
    <path clip-path="url(#pd461603ef9)" style="fill: none; stroke-dasharray: 1.85,0.8; stroke-dashoffset: 0; stroke: #808080; stroke-opacity: 0.5; stroke-width: 0.5"/>
   </g>
   <g id="line2d_40">
    <path d="M 5.365583 1.983107 
L 17.920583 2.026594 
L 30.475583 2.060915 
L 43.030583 2.087341 
L 55.585583 2.097812 
L 68.140583 2.081117 
L 80.695583 2.041536 
L 93.250583 2.007482 
L 105.805583 2.011177 
L 118.360583 2.045315 
L 130.915583 2.082863 
L 143.470583 2.112188 
L 156.025583 2.124627 
L 168.580583 2.114424 
L 181.135583 2.088548 
L 193.690583 2.067509 
L 206.245583 2.065165 
L 215.079705 2.068175 
" clip-path="url(#pd461603ef9)" style="fill: none; stroke-dasharray: 1.85,0.8; stroke-dashoffset: 0; stroke: #808080; stroke-opacity: 0.5; stroke-width: 0.5"/>
   </g>
   <g id="line2d_41">
    <path d="M 5.365583 1.871754 
L 17.920583 1.857386 
L 30.475583 1.844683 
L 43.030583 1.834758 
L 55.585583 1.828074 
L 68.140583 1.823837 
L 80.695583 1.819931 
L 93.250583 1.813617 
L 105.805583 1.80301 
L 118.360583 1.788871 
L 130.915583 1.775385 
L 143.470583 1.768541 
L 156.025583 1.772765 
L 168.580583 1.788514 
L 181.135583 1.812119 
L 193.690583 1.836393 
L 206.245583 1.850475 
L 215.079705 1.843889 
" clip-path="url(#pd461603ef9)" style="fill: none; stroke-dasharray: 1.85,0.8; stroke-dashoffset: 0; stroke: #808080; stroke-opacity: 0.5; stroke-width: 0.5"/>
   </g>
   <g id="line2d_42">
    <path d="M 5.365583 2.078513 
L 17.920583 2.088004 
L 30.475583 2.099024 
L 43.030583 2.111542 
L 55.585583 2.124538 
L 68.140583 2.136574 
L 80.695583 2.145927 
L 93.250583 2.150663 
L 105.805583 2.150392 
L 118.360583 2.147071 
L 130.915583 2.143018 
L 143.470583 2.142129 
L 156.025583 2.153095 
L 168.580583 2.205821 
L 181.135583 2.651657 
L 193.690583 1.752572 
L 206.245583 1.853814 
L 215.079705 1.974002 
" clip-path="url(#pd461603ef9)" style="fill: none; stroke-dasharray: 1.85,0.8; stroke-dashoffset: 0; stroke: #808080; stroke-opacity: 0.5; stroke-width: 0.5"/>
   </g>
   <g id="line2d_43">
    <path d="M 5.365583 2.07403 
L 17.920583 2.077812 
L 30.475583 2.081647 
L 43.030583 2.085503 
L 55.585583 2.089528 
L 68.140583 2.093819 
L 80.695583 2.09825 
L 93.250583 2.102658 
L 105.805583 2.107222 
L 118.360583 2.112491 
L 130.915583 2.118663 
L 143.470583 2.124473 
L 156.025583 2.126779 
L 168.580583 2.122463 
L 181.135583 2.113529 
L 193.690583 2.111402 
L 206.245583 2.132801 
L 215.079705 2.173042 
" clip-path="url(#pd461603ef9)" style="fill: none; stroke-dasharray: 1.85,0.8; stroke-dashoffset: 0; stroke: #808080; stroke-opacity: 0.5; stroke-width: 0.5"/>
   </g>
   <g id="line2d_44">
    <path d="M 5.365583 2.074402 
L 17.920583 2.047721 
L 30.475583 2.001627 
L 43.030583 1.974145 
L 55.585583 1.993163 
L 68.140583 2.034402 
L 80.695583 2.071761 
L 93.250583 2.100908 
L 105.805583 2.114778 
L 118.360583 2.104185 
L 130.915583 2.071655 
L 143.470583 2.038164 
L 156.025583 2.032118 
L 168.580583 2.057441 
L 181.135583 2.092404 
L 193.690583 2.115076 
L 206.245583 2.107114 
L 215.079705 2.076355 
" clip-path="url(#pd461603ef9)" style="fill: none; stroke-dasharray: 1.85,0.8; stroke-dashoffset: 0; stroke: #808080; stroke-opacity: 0.5; stroke-width: 0.5"/>
   </g>
   <g id="line2d_45">
    <path d="M 5.365583 1.700253 
L 17.920583 1.693195 
L 30.475583 1.68948 
L 43.030583 1.691086 
L 55.585583 1.69951 
L 68.140583 1.711436 
L 80.695583 1.719196 
L 93.250583 1.719816 
L 105.805583 1.713954 
L 118.360583 1.707399 
L 130.915583 1.706541 
L 143.470583 1.721016 
L 156.025583 1.78126 
L 168.580583 1.84611 
L 181.135583 1.830093 
L 193.690583 1.766009 
L 206.245583 1.71598 
L 215.079705 1.696334 
" clip-path="url(#pd461603ef9)" style="fill: none; stroke-dasharray: 1.85,0.8; stroke-dashoffset: 0; stroke: #808080; stroke-opacity: 0.5; stroke-width: 0.5"/>
   </g>
   <g id="line2d_46">
    <path d="M 5.365583 1.693496 
L 17.920583 1.703501 
L 30.475583 1.711244 
L 43.030583 1.712184 
L 55.585583 1.706443 
L 68.140583 1.699505 
L 80.695583 1.696205 
L 93.250583 1.700211 
L 105.805583 1.717015 
L 118.360583 1.738424 
L 130.915583 1.741676 
L 143.470583 1.733329 
L 156.025583 1.721894 
L 168.580583 1.714702 
L 181.135583 1.722349 
L 193.690583 1.785243 
L 206.245583 1.999907 
L 215.079705 2.154807 
" clip-path="url(#pd461603ef9)" style="fill: none; stroke-dasharray: 1.85,0.8; stroke-dashoffset: 0; stroke: #808080; stroke-opacity: 0.5; stroke-width: 0.5"/>
   </g>
   <g id="line2d_47">
    <path d="M 5.365583 1.691701 
L 17.920583 1.685619 
L 30.475583 1.681708 
L 43.030583 1.670633 
L 55.585583 1.648532 
L 68.140583 1.624697 
L 80.695583 1.609138 
L 93.250583 1.605186 
L 105.805583 1.614569 
L 118.360583 1.645058 
L 130.915583 1.727669 
L 143.470583 1.89667 
L 156.025583 1.838393 
L 168.580583 1.733556 
L 181.135583 1.708641 
L 193.690583 1.714307 
L 206.245583 1.733724 
L 215.079705 1.753656 
" clip-path="url(#pd461603ef9)" style="fill: none; stroke-dasharray: 1.85,0.8; stroke-dashoffset: 0; stroke: #808080; stroke-opacity: 0.5; stroke-width: 0.5"/>
   </g>
   <g id="line2d_48">
    <path d="M 5.365583 1.425711 
L 17.920583 1.451488 
L 30.475583 1.476623 
L 43.030583 1.500483 
L 55.585583 1.52252 
L 68.140583 1.54233 
L 80.695583 1.55969 
L 93.250583 1.574535 
L 105.805583 1.586917 
L 118.360583 1.596982 
L 130.915583 1.605 
L 143.470583 1.611375 
L 156.025583 1.616559 
L 168.580583 1.620875 
L 181.135583 1.624386 
L 193.690583 1.627073 
L 206.245583 1.629351 
L 215.079705 1.631302 
" clip-path="url(#pd461603ef9)" style="fill: none; stroke-dasharray: 1.85,0.8; stroke-dashoffset: 0; stroke: #808080; stroke-opacity: 0.5; stroke-width: 0.5"/>
   </g>
   <g id="line2d_49">
    <path d="M 5.365583 1.343752 
L 17.920583 1.388834 
L 30.475583 1.431565 
L 43.030583 1.47108 
L 55.585583 1.507015 
L 68.140583 1.539238 
L 80.695583 1.566747 
L 93.250583 1.585874 
L 105.805583 1.595832 
L 118.360583 1.603331 
L 130.915583 1.610863 
L 143.470583 1.617475 
L 156.025583 1.622501 
L 168.580583 1.625831 
L 181.135583 1.627951 
L 193.690583 1.622659 
L 206.245583 1.622322 
L 215.079705 1.625139 
" clip-path="url(#pd461603ef9)" style="fill: none; stroke-dasharray: 1.85,0.8; stroke-dashoffset: 0; stroke: #808080; stroke-opacity: 0.5; stroke-width: 0.5"/>
   </g>
   <g id="line2d_50">
    <path d="M 5.365583 1.214278 
L 17.920583 1.183416 
L 30.475583 1.146284 
L 43.030583 1.111715 
L 55.585583 1.087597 
L 68.140583 1.084289 
L 80.695583 1.112074 
L 93.250583 1.166066 
L 105.805583 1.207528 
L 118.360583 1.205696 
L 130.915583 1.174089 
L 143.470583 1.1334 
L 156.025583 1.095615 
L 168.580583 1.069314 
L 181.135583 1.065509 
L 193.690583 1.097853 
L 206.245583 1.160547 
L 215.079705 1.197152 
" clip-path="url(#pd461603ef9)" style="fill: none; stroke-dasharray: 1.85,0.8; stroke-dashoffset: 0; stroke: #808080; stroke-opacity: 0.5; stroke-width: 0.5"/>
   </g>
   <g id="line2d_51">
    <path d="M 5.365583 1.09658 
L 17.920583 1.106372 
L 30.475583 1.146201 
L 43.030583 1.197134 
L 55.585583 1.21647 
L 68.140583 1.196294 
L 80.695583 1.158753 
L 93.250583 1.119207 
L 105.805583 1.086958 
L 118.360583 1.071401 
L 130.915583 1.084215 
L 143.470583 1.131579 
L 156.025583 1.188328 
L 168.580583 1.209583 
L 181.135583 1.191093 
L 193.690583 1.154347 
L 206.245583 1.114889 
L 215.079705 1.091498 
" clip-path="url(#pd461603ef9)" style="fill: none; stroke-dasharray: 1.85,0.8; stroke-dashoffset: 0; stroke: #808080; stroke-opacity: 0.5; stroke-width: 0.5"/>
   </g>
   <g id="line2d_52">
    <path d="M 5.365583 0.935955 
L 17.920583 0.999654 
L 30.475583 0.919407 
L 43.030583 0.761499 
L 55.585583 0.601495 
L 68.140583 0.581227 
L 80.695583 0.843627 
L 93.250583 1.19207 
L 105.805583 1.411245 
L 118.360583 1.475168 
L 130.915583 1.422833 
L 143.470583 1.272692 
L 156.025583 1.056328 
L 168.580583 0.998307 
L 181.135583 1.280246 
L 193.690583 1.558812 
L 206.245583 1.640332 
L 215.079705 1.648815 
" clip-path="url(#pd461603ef9)" style="fill: none; stroke-dasharray: 1.85,0.8; stroke-dashoffset: 0; stroke: #808080; stroke-opacity: 0.5; stroke-width: 0.5"/>
   </g>
   <g id="line2d_53">
    <path d="M 5.365583 0.409675 
L 17.920583 0.365109 
L 30.475583 0.580807 
L 43.030583 0.950094 
L 55.585583 1.19182 
L 68.140583 1.257596 
L 80.695583 1.184865 
L 93.250583 1.020128 
L 105.805583 0.83636 
L 118.360583 0.817936 
L 130.915583 1.084615 
L 143.470583 1.398946 
L 156.025583 1.571478 
L 168.580583 1.607918 
L 181.135583 1.589404 
L 193.690583 1.48967 
L 206.245583 1.167332 
L 215.079705 0.759005 
" clip-path="url(#pd461603ef9)" style="fill: none; stroke-dasharray: 1.85,0.8; stroke-dashoffset: 0; stroke: #808080; stroke-opacity: 0.5; stroke-width: 0.5"/>
   </g>
   <g id="line2d_54">
    <path d="M 5.365583 0.126677 
L 17.920583 0.049812 
L 30.475583 -0.028938 
L 43.030583 -0.105337 
L 55.585583 -0.174993 
L 68.140583 -0.234917 
L 80.695583 -0.290967 
L 93.250583 -0.36619 
L 105.805583 -0.453645 
L 118.360583 -0.503704 
L 130.915583 -0.515425 
L 143.470583 -0.505227 
L 156.025583 -0.480061 
L 168.580583 -0.432479 
L 181.135583 -0.163693 
L 193.690583 -0.537197 
L 206.245583 -0.461225 
L 215.079705 -0.398556 
" clip-path="url(#pd461603ef9)" style="fill: none; stroke-dasharray: 1.85,0.8; stroke-dashoffset: 0; stroke: #808080; stroke-opacity: 0.5; stroke-width: 0.5"/>
   </g>
   <g id="line2d_55">
    <path d="M 5.365583 -0.060881 
L 17.920583 -0.030146 
L 30.475583 0.001789 
L 43.030583 0.035321 
L 55.585583 0.071202 
L 68.140583 0.110003 
L 80.695583 0.15184 
L 93.250583 0.196749 
L 105.805583 0.244868 
L 118.360583 0.296324 
L 130.915583 0.350975 
L 143.470583 0.408594 
L 156.025583 0.470308 
L 168.580583 0.532583 
L 181.135583 0.593595 
L 193.690583 0.652491 
L 206.245583 0.709072 
L 215.079705 0.748015 
" clip-path="url(#pd461603ef9)" style="fill: none; stroke-dasharray: 1.85,0.8; stroke-dashoffset: 0; stroke: #808080; stroke-opacity: 0.5; stroke-width: 0.5"/>
   </g>
   <g id="line2d_56">
    <path d="M 5.365583 -0.088157 
L 17.920583 -0.035051 
L 30.475583 0.015644 
L 43.030583 0.064536 
L 55.585583 0.112351 
L 68.140583 0.159776 
L 80.695583 0.207232 
L 93.250583 0.254694 
L 105.805583 0.301725 
L 118.360583 0.347825 
L 130.915583 0.393031 
L 143.470583 0.438366 
L 156.025583 0.485594 
L 168.580583 0.536318 
L 181.135583 0.591184 
L 193.690583 0.64973 
L 206.245583 0.710613 
L 215.079705 0.753536 
" clip-path="url(#pd461603ef9)" style="fill: none; stroke-dasharray: 1.85,0.8; stroke-dashoffset: 0; stroke: #808080; stroke-opacity: 0.5; stroke-width: 0.5"/>
   </g>
   <g id="line2d_57">
    <path d="M 5.365583 -0.381491 
L 17.920583 -0.424786 
L 30.475583 -0.554145 
L 43.030583 -0.758208 
L 55.585583 -0.834167 
L 68.140583 -0.541093 
L 80.695583 -0.292583 
L 93.250583 -0.243338 
L 105.805583 -0.248676 
L 118.360583 -0.260037 
L 130.915583 -0.277697 
L 143.470583 -0.312648 
L 156.025583 -0.329665 
L 168.580583 -0.212086 
L 181.135583 -0.115328 
L 193.690583 -0.118341 
L 206.245583 -0.153071 
L 215.079705 -0.173319 
" clip-path="url(#pd461603ef9)" style="fill: none; stroke-dasharray: 1.85,0.8; stroke-dashoffset: 0; stroke: #808080; stroke-opacity: 0.5; stroke-width: 0.5"/>
   </g>
   <g id="line2d_58">
    <path d="M 5.365583 -0.507051 
L 17.920583 -0.709895 
L 30.475583 -0.950834 
L 32.711812 -1 
M 130.15996 -1 
L 130.915583 -0.994326 
L 143.470583 -0.908229 
L 156.025583 -0.828788 
L 168.580583 -0.754508 
L 181.135583 -0.684614 
L 193.690583 -0.619343 
L 206.245583 -0.559127 
L 215.079705 -0.519884 
" clip-path="url(#pd461603ef9)" style="fill: none; stroke-dasharray: 1.85,0.8; stroke-dashoffset: 0; stroke: #808080; stroke-opacity: 0.5; stroke-width: 0.5"/>
   </g>
   <g id="line2d_59">
    <path d="M 14.301456 -1 
L 17.920583 -0.860916 
L 30.475583 -0.426831 
L 43.030583 -0.312306 
L 55.585583 -0.300311 
L 68.140583 -0.318085 
L 80.695583 -0.372575 
L 93.250583 -0.471998 
L 105.805583 -0.519306 
L 118.360583 -0.343691 
L 130.915583 -0.19831 
L 143.470583 -0.184054 
L 156.025583 -0.204882 
L 168.580583 -0.220519 
L 181.135583 -0.222955 
L 193.690583 -0.216717 
L 206.245583 -0.197936 
L 215.079705 -0.143558 
" clip-path="url(#pd461603ef9)" style="fill: none; stroke-dasharray: 1.85,0.8; stroke-dashoffset: 0; stroke: #808080; stroke-opacity: 0.5; stroke-width: 0.5"/>
   </g>
   <g id="line2d_60">
    <path clip-path="url(#pd461603ef9)" style="fill: none; stroke-dasharray: 1.85,0.8; stroke-dashoffset: 0; stroke: #808080; stroke-opacity: 0.5; stroke-width: 0.5"/>
   </g>
   <g id="line2d_61">
    <path clip-path="url(#pd461603ef9)" style="fill: none; stroke-dasharray: 1.85,0.8; stroke-dashoffset: 0; stroke: #808080; stroke-opacity: 0.5; stroke-width: 0.5"/>
   </g>
   <g id="line2d_62">
    <path clip-path="url(#pd461603ef9)" style="fill: none; stroke-dasharray: 1.85,0.8; stroke-dashoffset: 0; stroke: #808080; stroke-opacity: 0.5; stroke-width: 0.5"/>
   </g>
   <g id="line2d_63">
    <path clip-path="url(#pd461603ef9)" style="fill: none; stroke-dasharray: 1.85,0.8; stroke-dashoffset: 0; stroke: #808080; stroke-opacity: 0.5; stroke-width: 0.5"/>
   </g>
   <g id="line2d_64">
    <path clip-path="url(#pd461603ef9)" style="fill: none; stroke-dasharray: 1.85,0.8; stroke-dashoffset: 0; stroke: #808080; stroke-opacity: 0.5; stroke-width: 0.5"/>
   </g>
   <g id="line2d_65">
    <path clip-path="url(#pd461603ef9)" style="fill: none; stroke-dasharray: 1.85,0.8; stroke-dashoffset: 0; stroke: #808080; stroke-opacity: 0.5; stroke-width: 0.5"/>
   </g>
   <g id="line2d_66">
    <path clip-path="url(#pd461603ef9)" style="fill: none; stroke-dasharray: 1.85,0.8; stroke-dashoffset: 0; stroke: #808080; stroke-opacity: 0.5; stroke-width: 0.5"/>
   </g>
   <g id="line2d_67">
    <path clip-path="url(#pd461603ef9)" style="fill: none; stroke-dasharray: 1.85,0.8; stroke-dashoffset: 0; stroke: #808080; stroke-opacity: 0.5; stroke-width: 0.5"/>
   </g>
   <g id="line2d_68">
    <path clip-path="url(#pd461603ef9)" style="fill: none; stroke-dasharray: 1.85,0.8; stroke-dashoffset: 0; stroke: #808080; stroke-opacity: 0.5; stroke-width: 0.5"/>
   </g>
   <g id="line2d_69">
    <path clip-path="url(#pd461603ef9)" style="fill: none; stroke-dasharray: 1.85,0.8; stroke-dashoffset: 0; stroke: #808080; stroke-opacity: 0.5; stroke-width: 0.5"/>
   </g>
   <g id="line2d_70">
    <path clip-path="url(#pd461603ef9)" style="fill: none; stroke-dasharray: 1.85,0.8; stroke-dashoffset: 0; stroke: #808080; stroke-opacity: 0.5; stroke-width: 0.5"/>
   </g>
   <g id="line2d_71">
    <path clip-path="url(#pd461603ef9)" style="fill: none; stroke-dasharray: 1.85,0.8; stroke-dashoffset: 0; stroke: #808080; stroke-opacity: 0.5; stroke-width: 0.5"/>
   </g>
   <g id="line2d_72">
    <path clip-path="url(#pd461603ef9)" style="fill: none; stroke-dasharray: 1.85,0.8; stroke-dashoffset: 0; stroke: #808080; stroke-opacity: 0.5; stroke-width: 0.5"/>
   </g>
   <g id="line2d_73">
    <path clip-path="url(#pd461603ef9)" style="fill: none; stroke-dasharray: 1.85,0.8; stroke-dashoffset: 0; stroke: #808080; stroke-opacity: 0.5; stroke-width: 0.5"/>
   </g>
   <g id="line2d_74">
    <path clip-path="url(#pd461603ef9)" style="fill: none; stroke-dasharray: 1.85,0.8; stroke-dashoffset: 0; stroke: #808080; stroke-opacity: 0.5; stroke-width: 0.5"/>
   </g>
   <g id="line2d_75">
    <path clip-path="url(#pd461603ef9)" style="fill: none; stroke-dasharray: 1.85,0.8; stroke-dashoffset: 0; stroke: #808080; stroke-opacity: 0.5; stroke-width: 0.5"/>
   </g>
   <g id="line2d_76">
    <path clip-path="url(#pd461603ef9)" style="fill: none; stroke-dasharray: 1.85,0.8; stroke-dashoffset: 0; stroke: #808080; stroke-opacity: 0.5; stroke-width: 0.5"/>
   </g>
   <g id="line2d_77">
    <path clip-path="url(#pd461603ef9)" style="fill: none; stroke-dasharray: 1.85,0.8; stroke-dashoffset: 0; stroke: #808080; stroke-opacity: 0.5; stroke-width: 0.5"/>
   </g>
   <g id="line2d_78">
    <path clip-path="url(#pd461603ef9)" style="fill: none; stroke-dasharray: 1.85,0.8; stroke-dashoffset: 0; stroke: #808080; stroke-opacity: 0.5; stroke-width: 0.5"/>
   </g>
   <g id="line2d_79">
    <path clip-path="url(#pd461603ef9)" style="fill: none; stroke-dasharray: 1.85,0.8; stroke-dashoffset: 0; stroke: #808080; stroke-opacity: 0.5; stroke-width: 0.5"/>
   </g>
   <g id="line2d_80">
    <path clip-path="url(#pd461603ef9)" style="fill: none; stroke-dasharray: 1.85,0.8; stroke-dashoffset: 0; stroke: #808080; stroke-opacity: 0.5; stroke-width: 0.5"/>
   </g>
   <g id="line2d_81">
    <path clip-path="url(#pd461603ef9)" style="fill: none; stroke-dasharray: 1.85,0.8; stroke-dashoffset: 0; stroke: #808080; stroke-opacity: 0.5; stroke-width: 0.5"/>
   </g>
   <g id="line2d_82">
    <path clip-path="url(#pd461603ef9)" style="fill: none; stroke-dasharray: 1.85,0.8; stroke-dashoffset: 0; stroke: #808080; stroke-opacity: 0.5; stroke-width: 0.5"/>
   </g>
   <g id="line2d_83">
    <path clip-path="url(#pd461603ef9)" style="fill: none; stroke-dasharray: 1.85,0.8; stroke-dashoffset: 0; stroke: #808080; stroke-opacity: 0.5; stroke-width: 0.5"/>
   </g>
   <g id="line2d_84">
    <path clip-path="url(#pd461603ef9)" style="fill: none; stroke-dasharray: 1.85,0.8; stroke-dashoffset: 0; stroke: #808080; stroke-opacity: 0.5; stroke-width: 0.5"/>
   </g>
   <g id="line2d_85">
    <path clip-path="url(#pd461603ef9)" style="fill: none; stroke-dasharray: 1.85,0.8; stroke-dashoffset: 0; stroke: #808080; stroke-opacity: 0.5; stroke-width: 0.5"/>
   </g>
   <g id="line2d_86">
    <path clip-path="url(#pd461603ef9)" style="fill: none; stroke-dasharray: 1.85,0.8; stroke-dashoffset: 0; stroke: #808080; stroke-opacity: 0.5; stroke-width: 0.5"/>
   </g>
   <g id="line2d_87">
    <path clip-path="url(#pd461603ef9)" style="fill: none; stroke-dasharray: 1.85,0.8; stroke-dashoffset: 0; stroke: #808080; stroke-opacity: 0.5; stroke-width: 0.5"/>
   </g>
   <g id="line2d_88">
    <path clip-path="url(#pd461603ef9)" style="fill: none; stroke-dasharray: 1.85,0.8; stroke-dashoffset: 0; stroke: #808080; stroke-opacity: 0.5; stroke-width: 0.5"/>
   </g>
   <g id="line2d_89">
    <path clip-path="url(#pd461603ef9)" style="fill: none; stroke-dasharray: 1.85,0.8; stroke-dashoffset: 0; stroke: #808080; stroke-opacity: 0.5; stroke-width: 0.5"/>
   </g>
   <g id="line2d_90">
    <path clip-path="url(#pd461603ef9)" style="fill: none; stroke-dasharray: 1.85,0.8; stroke-dashoffset: 0; stroke: #808080; stroke-opacity: 0.5; stroke-width: 0.5"/>
   </g>
   <g id="line2d_91">
    <path clip-path="url(#pd461603ef9)" style="fill: none; stroke-dasharray: 1.85,0.8; stroke-dashoffset: 0; stroke: #808080; stroke-opacity: 0.5; stroke-width: 0.5"/>
   </g>
   <g id="line2d_92">
    <path clip-path="url(#pd461603ef9)" style="fill: none; stroke-dasharray: 1.85,0.8; stroke-dashoffset: 0; stroke: #808080; stroke-opacity: 0.5; stroke-width: 0.5"/>
   </g>
   <g id="line2d_93">
    <path clip-path="url(#pd461603ef9)" style="fill: none; stroke-dasharray: 1.85,0.8; stroke-dashoffset: 0; stroke: #808080; stroke-opacity: 0.5; stroke-width: 0.5"/>
   </g>
   <g id="line2d_94">
    <path clip-path="url(#pd461603ef9)" style="fill: none; stroke-dasharray: 1.85,0.8; stroke-dashoffset: 0; stroke: #808080; stroke-opacity: 0.5; stroke-width: 0.5"/>
   </g>
   <g id="line2d_95">
    <path clip-path="url(#pd461603ef9)" style="fill: none; stroke-dasharray: 1.85,0.8; stroke-dashoffset: 0; stroke: #808080; stroke-opacity: 0.5; stroke-width: 0.5"/>
   </g>
   <g id="line2d_96">
    <path clip-path="url(#pd461603ef9)" style="fill: none; stroke-dasharray: 1.85,0.8; stroke-dashoffset: 0; stroke: #808080; stroke-opacity: 0.5; stroke-width: 0.5"/>
   </g>
   <g id="line2d_97">
    <path clip-path="url(#pd461603ef9)" style="fill: none; stroke-dasharray: 1.85,0.8; stroke-dashoffset: 0; stroke: #808080; stroke-opacity: 0.5; stroke-width: 0.5"/>
   </g>
   <g id="line2d_98">
    <path d="M 193.690583 11.133852 
L 206.245583 10.280595 
L 215.079705 9.814596 
" clip-path="url(#pd461603ef9)" style="fill: none; stroke-dasharray: 1.85,0.8; stroke-dashoffset: 0; stroke: #808080; stroke-opacity: 0.5; stroke-width: 0.5"/>
   </g>
   <g id="line2d_99">
    <path clip-path="url(#pd461603ef9)" style="fill: none; stroke-dasharray: 1.85,0.8; stroke-dashoffset: 0; stroke: #808080; stroke-opacity: 0.5; stroke-width: 0.5"/>
   </g>
   <g id="line2d_100">
    <path clip-path="url(#pd461603ef9)" style="fill: none; stroke-dasharray: 1.85,0.8; stroke-dashoffset: 0; stroke: #808080; stroke-opacity: 0.5; stroke-width: 0.5"/>
   </g>
   <g id="line2d_101">
    <path clip-path="url(#pd461603ef9)" style="fill: none; stroke-dasharray: 1.85,0.8; stroke-dashoffset: 0; stroke: #808080; stroke-opacity: 0.5; stroke-width: 0.5"/>
   </g>
   <g id="line2d_102">
    <path clip-path="url(#pd461603ef9)" style="fill: none; stroke-dasharray: 1.85,0.8; stroke-dashoffset: 0; stroke: #808080; stroke-opacity: 0.5; stroke-width: 0.5"/>
   </g>
   <g id="line2d_103">
    <path clip-path="url(#pd461603ef9)" style="fill: none; stroke-dasharray: 1.85,0.8; stroke-dashoffset: 0; stroke: #808080; stroke-opacity: 0.5; stroke-width: 0.5"/>
   </g>
   <g id="line2d_104">
    <path clip-path="url(#pd461603ef9)" style="fill: none; stroke-dasharray: 1.85,0.8; stroke-dashoffset: 0; stroke: #808080; stroke-opacity: 0.5; stroke-width: 0.5"/>
   </g>
   <g id="line2d_105">
    <path clip-path="url(#pd461603ef9)" style="fill: none; stroke-dasharray: 1.85,0.8; stroke-dashoffset: 0; stroke: #808080; stroke-opacity: 0.5; stroke-width: 0.5"/>
   </g>
   <g id="line2d_106">
    <path clip-path="url(#pd461603ef9)" style="fill: none; stroke-dasharray: 1.85,0.8; stroke-dashoffset: 0; stroke: #808080; stroke-opacity: 0.5; stroke-width: 0.5"/>
   </g>
   <g id="line2d_107">
    <path clip-path="url(#pd461603ef9)" style="fill: none; stroke-dasharray: 1.85,0.8; stroke-dashoffset: 0; stroke: #808080; stroke-opacity: 0.5; stroke-width: 0.5"/>
   </g>
   <g id="line2d_108">
    <path d="M 5.365583 10.423956 
L 17.920583 10.423956 
L 30.475583 10.423956 
L 43.030583 10.423956 
L 55.585583 10.423956 
L 68.140583 10.423956 
L 80.695583 10.423956 
L 93.250583 10.423956 
L 105.805583 10.423956 
L 118.360583 10.423956 
L 130.915583 10.423956 
L 143.470583 10.423956 
L 156.025583 10.423956 
L 168.580583 10.423956 
L 181.135583 10.423956 
L 193.690583 10.423956 
L 206.245583 10.423956 
L 215.079705 10.423956 
" clip-path="url(#pd461603ef9)" style="fill: none; stroke-dasharray: 3.2,0.8,0.5,0.8; stroke-dashoffset: 0; stroke: #008000; stroke-width: 0.5"/>
   </g>
   <g id="line2d_109">
    <path clip-path="url(#pd461603ef9)" style="fill: none; stroke-dasharray: 3.2,0.8,0.5,0.8; stroke-dashoffset: 0; stroke: #008000; stroke-width: 0.5"/>
   </g>
   <g id="patch_3">
    <path d="M 17.920583 71.272736 
L 17.920583 4.744736 
" style="fill: none; stroke: #000000; stroke-width: 0.4; stroke-linejoin: miter; stroke-linecap: square"/>
   </g>
   <g id="patch_4">
    <path d="M 206.245583 71.272736 
L 206.245583 4.744736 
" style="fill: none; stroke: #000000; stroke-width: 0.4; stroke-linejoin: miter; stroke-linecap: square"/>
   </g>
   <g id="patch_5">
    <path d="M 17.920583 71.272736 
L 206.245583 71.272736 
" style="fill: none; stroke: #000000; stroke-width: 0.4; stroke-linejoin: miter; stroke-linecap: square"/>
   </g>
   <g id="patch_6">
    <path d="M 17.920583 4.744736 
L 206.245583 4.744736 
" style="fill: none; stroke: #000000; stroke-width: 0.4; stroke-linejoin: miter; stroke-linecap: square"/>
   </g>
  </g>
 </g>
 <defs>
  <clipPath id="pd461603ef9">
   <rect x="17.920583" y="4.744736" width="188.325" height="66.528"/>
  </clipPath>
 </defs>
</svg>
