<?xml version="1.0" encoding="utf-8" standalone="no"?>
<!DOCTYPE svg PUBLIC "-//W3C//DTD SVG 1.1//EN"
  "http://www.w3.org/Graphics/SVG/1.1/DTD/svg11.dtd">
<svg xmlns:xlink="http://www.w3.org/1999/xlink" width="133.194482pt" height="73.224426pt" viewBox="0 0 133.194482 73.224426" xmlns="http://www.w3.org/2000/svg" version="1.1">
 <metadata>
  <rdf:RDF xmlns:dc="http://purl.org/dc/elements/1.1/" xmlns:cc="http://creativecommons.org/ns#" xmlns:rdf="http://www.w3.org/1999/02/22-rdf-syntax-ns#">
   <cc:Work>
    <dc:type rdf:resource="http://purl.org/dc/dcmitype/StillImage"/>
    <dc:date>2024-07-24T17:56:50.238112</dc:date>
    <dc:format>image/svg+xml</dc:format>
    <dc:creator>
     <cc:Agent>
      <dc:title>Matplotlib v3.8.4, https://matplotlib.org/</dc:title>
     </cc:Agent>
    </dc:creator>
   </cc:Work>
  </rdf:RDF>
 </metadata>
 <defs>
  <style type="text/css">*{stroke-linejoin: round; stroke-linecap: butt}</style>
 </defs>
 <g id="figure_1">
  <g id="patch_1">
   <path d="M 0 73.224426 
L 133.194482 73.224426 
L 133.194482 0 
L 0 0 
z
" style="fill: #ffffff"/>
  </g>
  <g id="axes_1">
   <g id="patch_2">
    <path d="M 17.994482 59.04 
L 129.594482 59.04 
L 129.594482 3.6 
L 17.994482 3.6 
z
" style="fill: #ffffff"/>
   </g>
   <g id="matplotlib.axis_1">
    <g id="xtick_1">
     <g id="line2d_1">
      <defs>
       <path id="m6379770e6e" d="M 0 0 
L 0 -2.5 
" style="stroke: #000000; stroke-width: 0.6"/>
      </defs>
      <g>
       <use xlink:href="#m6379770e6e" x="37.794482" y="59.04" style="stroke: #000000; stroke-width: 0.6"/>
      </g>
     </g>
     <g id="text_1">
      <!-- -20 -->
      <g transform="translate(32.148988 68.074741) scale(0.08 -0.08)">
       <defs>
        <path id="LMSans17-Regular-2d" d="M 1664 1216 
L 1664 1587 
L 64 1587 
L 64 1216 
L 1664 1216 
z
" transform="scale(0.015625)"/>
        <path id="LMSans17-Regular-32" d="M 2701 0 
L 2701 435 
L 1613 435 
C 1536 435 1459 428 1382 428 
L 742 428 
L 742 435 
L 1651 1353 
C 1830 1538 2099 1761 2285 1984 
C 2464 2201 2701 2507 2701 2953 
C 2701 3655 2227 4288 1421 4288 
C 787 4288 422 3891 250 3272 
L 499 2928 
C 640 3508 838 3878 1338 3878 
C 1888 3878 2195 3431 2195 2940 
C 2195 2354 1747 1901 1408 1563 
L 301 409 
L 301 0 
L 2701 0 
z
" transform="scale(0.015625)"/>
        <path id="LMSans17-Regular-30" d="M 2758 2075 
C 2758 2441 2752 3122 2490 3648 
C 2227 4153 1805 4288 1504 4288 
C 1069 4288 698 4031 506 3622 
C 301 3193 243 2749 243 2075 
C 243 1612 262 1046 493 551 
C 755 6 1197 -128 1498 -128 
C 1894 -128 2278 83 2496 525 
C 2720 988 2758 1496 2758 2075 
z
M 2272 2145 
C 2272 1547 2272 262 1498 262 
C 1011 262 864 821 819 1008 
C 742 1329 730 1637 730 2145 
C 730 2544 730 2994 851 3347 
C 998 3756 1254 3897 1498 3897 
C 1971 3897 2125 3423 2176 3257 
C 2272 2917 2272 2518 2272 2145 
z
" transform="scale(0.015625)"/>
       </defs>
       <use xlink:href="#LMSans17-Regular-2d" transform="scale(0.996264)"/>
       <use xlink:href="#LMSans17-Regular-32" transform="translate(31.229402 0) scale(0.996264)"/>
       <use xlink:href="#LMSans17-Regular-30" transform="translate(78.073405 0) scale(0.996264)"/>
      </g>
     </g>
    </g>
    <g id="xtick_2">
     <g id="line2d_2">
      <g>
       <use xlink:href="#m6379770e6e" x="73.794482" y="59.04" style="stroke: #000000; stroke-width: 0.6"/>
      </g>
     </g>
    </g>
    <g id="xtick_3">
     <g id="line2d_3">
      <g>
       <use xlink:href="#m6379770e6e" x="109.794482" y="59.04" style="stroke: #000000; stroke-width: 0.6"/>
      </g>
     </g>
     <g id="text_2">
      <!-- 20 -->
      <g transform="translate(105.56036 68.074741) scale(0.08 -0.08)">
       <use xlink:href="#LMSans17-Regular-32" transform="scale(0.996264)"/>
       <use xlink:href="#LMSans17-Regular-30" transform="translate(46.844004 0) scale(0.996264)"/>
      </g>
     </g>
    </g>
    <g id="text_3">
     <!-- $x/a$ -->
     <g transform="translate(67.282791 67.60201) scale(0.08 -0.08)">
      <defs>
       <path id="LMSans17-Oblique-78" d="M 2758 0 
L 1888 1420 
L 3238 2752 
L 2682 2752 
L 1741 1785 
L 1184 2752 
L 614 2752 
L 1440 1420 
L 0 0 
L 563 0 
L 1600 1126 
L 2195 0 
L 2758 0 
z
" transform="scale(0.015625)"/>
       <path id="LMMathItalic12-Regular-3d" d="M 2784 4678 
C 2784 4755 2720 4800 2669 4800 
C 2637 4800 2579 4800 2528 4659 
L 384 -1364 
L 346 -1479 
C 346 -1556 410 -1600 461 -1600 
C 499 -1600 557 -1594 602 -1460 
L 2746 4563 
L 2784 4678 
z
" transform="scale(0.015625)"/>
       <path id="LMSans17-Oblique-61" d="M 2470 -13 
L 2854 1789 
C 2982 2399 2643 2816 2067 2816 
C 1786 2816 1466 2764 1069 2559 
L 1018 2133 
C 1203 2250 1517 2438 1978 2438 
C 2304 2438 2451 2185 2368 1782 
L 2317 1536 
C 1286 1504 582 1209 474 711 
C 422 452 467 -64 998 -64 
C 1094 -64 1619 -52 2048 224 
L 1997 -13 
L 2470 -13 
z
M 2163 824 
C 2138 711 2106 559 1888 446 
C 1702 339 1485 326 1395 326 
C 1075 326 896 503 947 723 
C 1043 1165 2048 1209 2246 1216 
L 2163 824 
z
" transform="scale(0.015625)"/>
      </defs>
      <use xlink:href="#LMSans17-Oblique-78" transform="scale(0.996264)"/>
      <use xlink:href="#LMMathItalic12-Regular-3d" transform="translate(53.199854 0) scale(0.996264)"/>
      <use xlink:href="#LMSans17-Oblique-61" transform="translate(101.974772 0) scale(0.996264)"/>
     </g>
    </g>
   </g>
   <g id="matplotlib.axis_2">
    <g id="ytick_1">
     <g id="line2d_4">
      <defs>
       <path id="m2e1ca22b89" d="M 0 0 
L 2.5 0 
" style="stroke: #000000; stroke-width: 0.6"/>
      </defs>
      <g>
       <use xlink:href="#m2e1ca22b89" x="17.994482" y="52.97625" style="stroke: #000000; stroke-width: 0.6"/>
      </g>
     </g>
     <g id="text_4">
      <!-- -1 -->
      <g transform="translate(7.437617 55.74362) scale(0.08 -0.08)">
       <defs>
        <path id="LMSans17-Regular-31" d="M 2573 0 
L 2573 371 
L 1818 371 
L 1818 4288 
L 1696 4288 
C 1350 3951 947 3903 538 3891 
L 538 3520 
C 723 3526 1024 3539 1325 3673 
L 1325 371 
L 570 371 
L 570 0 
L 2573 0 
z
" transform="scale(0.015625)"/>
       </defs>
       <use xlink:href="#LMSans17-Regular-2d" transform="scale(0.996264)"/>
       <use xlink:href="#LMSans17-Regular-31" transform="translate(31.229402 0) scale(0.996264)"/>
      </g>
     </g>
    </g>
    <g id="ytick_2">
     <g id="line2d_5">
      <g>
       <use xlink:href="#m2e1ca22b89" x="17.994482" y="31.32" style="stroke: #000000; stroke-width: 0.6"/>
      </g>
     </g>
    </g>
    <g id="ytick_3">
     <g id="line2d_6">
      <g>
       <use xlink:href="#m2e1ca22b89" x="17.994482" y="9.66375" style="stroke: #000000; stroke-width: 0.6"/>
      </g>
     </g>
     <g id="text_5">
      <!-- 1 -->
      <g transform="translate(10.26036 12.43112) scale(0.08 -0.08)">
       <use xlink:href="#LMSans17-Regular-31" transform="scale(0.996264)"/>
      </g>
     </g>
    </g>
    <g id="text_6">
     <!-- $\Delta_0'$ -->
     <g transform="translate(9.733676 36.436281) rotate(-90) scale(0.08 -0.08)">
      <defs>
       <path id="CMSS17-1" d="M 2790 4416 
L 2221 4416 
L 250 0 
L 4762 0 
L 2790 4416 
z
M 1920 2635 
C 2106 3060 2368 3639 2458 3944 
C 2560 3620 2822 3035 3021 2590 
L 3949 505 
L 973 505 
L 1920 2635 
z
" transform="scale(0.015625)"/>
       <path id="LMMathSymbols10-Regular-30" d="M 1632 3076 
C 1677 3171 1677 3228 1677 3253 
C 1677 3444 1498 3584 1318 3584 
C 1062 3584 1005 3374 979 3292 
L 205 523 
C 198 497 186 466 186 434 
C 186 364 352 320 403 320 
C 403 320 448 320 486 408 
L 1632 3076 
z
" transform="scale(0.015625)"/>
      </defs>
      <use xlink:href="#CMSS17-1" transform="scale(0.996264)"/>
      <use xlink:href="#LMMathSymbols10-Regular-30" transform="translate(78.072736 36.153639) scale(0.697382)"/>
      <use xlink:href="#LMSans17-Regular-30" transform="translate(78.072736 -24.62935) scale(0.697382)"/>
     </g>
    </g>
   </g>
   <g id="line2d_7">
    <path d="M 19.794482 21.359176 
L 21.594482 6.572247 
L 23.394482 5.39116 
L 25.194482 9.368649 
L 26.994482 10.210631 
L 28.794482 9.198377 
L 30.594482 8.809629 
L 32.394482 9.741661 
L 34.194482 10.365342 
L 35.994482 9.714858 
L 37.794482 9.351475 
L 39.594482 9.718789 
L 41.394482 9.938575 
L 43.194482 9.785695 
L 44.994482 9.616122 
L 46.794482 9.779895 
L 48.594482 9.761537 
L 50.394482 9.495438 
L 52.194482 9.64676 
L 53.994482 9.75326 
L 55.794482 9.691523 
L 57.594482 10.025251 
L 59.394482 10.511998 
L 61.194482 10.864472 
L 62.994482 10.809895 
L 64.794482 12.616502 
L 66.594482 18.269921 
L 68.394482 19.165515 
L 70.194482 19.846227 
L 71.994482 27.485714 
L 73.794482 55.833349 
L 75.594482 27.485714 
L 77.394482 19.846227 
L 79.194482 19.165515 
L 80.994482 18.269921 
L 82.794482 12.616502 
L 84.594482 10.809895 
L 86.394482 10.864472 
L 88.194482 10.511998 
L 89.994482 10.025251 
L 91.794482 9.691523 
L 93.594482 9.75326 
L 95.394482 9.64676 
L 97.194482 9.495438 
L 98.994482 9.761537 
L 100.794482 9.779895 
L 102.594482 9.616122 
L 104.394482 9.785695 
L 106.194482 9.938575 
L 107.994482 9.718789 
L 109.794482 9.351475 
L 111.594482 9.714858 
L 113.394482 10.365342 
L 115.194482 9.741661 
L 116.994482 8.809629 
L 118.794482 9.198377 
L 120.594482 10.210631 
L 122.394482 9.368649 
L 124.194482 5.39116 
L 125.994482 6.572247 
L 127.794482 21.359176 
" clip-path="url(#pd29df5f0ca)" style="fill: none; stroke: #1f77b4; stroke-width: 0.5; stroke-linecap: square"/>
    <defs>
     <path id="m99571288a2" d="M 0 0.5 
C 0.132602 0.5 0.25979 0.447317 0.353553 0.353553 
C 0.447317 0.25979 0.5 0.132602 0.5 0 
C 0.5 -0.132602 0.447317 -0.25979 0.353553 -0.353553 
C 0.25979 -0.447317 0.132602 -0.5 0 -0.5 
C -0.132602 -0.5 -0.25979 -0.447317 -0.353553 -0.353553 
C -0.447317 -0.25979 -0.5 -0.132602 -0.5 0 
C -0.5 0.132602 -0.447317 0.25979 -0.353553 0.353553 
C -0.25979 0.447317 -0.132602 0.5 0 0.5 
z
" style="stroke: #1f77b4"/>
    </defs>
    <g clip-path="url(#pd29df5f0ca)">
     <use xlink:href="#m99571288a2" x="19.794482" y="21.359176" style="fill: #1f77b4; stroke: #1f77b4"/>
     <use xlink:href="#m99571288a2" x="21.594482" y="6.572247" style="fill: #1f77b4; stroke: #1f77b4"/>
     <use xlink:href="#m99571288a2" x="23.394482" y="5.39116" style="fill: #1f77b4; stroke: #1f77b4"/>
     <use xlink:href="#m99571288a2" x="25.194482" y="9.368649" style="fill: #1f77b4; stroke: #1f77b4"/>
     <use xlink:href="#m99571288a2" x="26.994482" y="10.210631" style="fill: #1f77b4; stroke: #1f77b4"/>
     <use xlink:href="#m99571288a2" x="28.794482" y="9.198377" style="fill: #1f77b4; stroke: #1f77b4"/>
     <use xlink:href="#m99571288a2" x="30.594482" y="8.809629" style="fill: #1f77b4; stroke: #1f77b4"/>
     <use xlink:href="#m99571288a2" x="32.394482" y="9.741661" style="fill: #1f77b4; stroke: #1f77b4"/>
     <use xlink:href="#m99571288a2" x="34.194482" y="10.365342" style="fill: #1f77b4; stroke: #1f77b4"/>
     <use xlink:href="#m99571288a2" x="35.994482" y="9.714858" style="fill: #1f77b4; stroke: #1f77b4"/>
     <use xlink:href="#m99571288a2" x="37.794482" y="9.351475" style="fill: #1f77b4; stroke: #1f77b4"/>
     <use xlink:href="#m99571288a2" x="39.594482" y="9.718789" style="fill: #1f77b4; stroke: #1f77b4"/>
     <use xlink:href="#m99571288a2" x="41.394482" y="9.938575" style="fill: #1f77b4; stroke: #1f77b4"/>
     <use xlink:href="#m99571288a2" x="43.194482" y="9.785695" style="fill: #1f77b4; stroke: #1f77b4"/>
     <use xlink:href="#m99571288a2" x="44.994482" y="9.616122" style="fill: #1f77b4; stroke: #1f77b4"/>
     <use xlink:href="#m99571288a2" x="46.794482" y="9.779895" style="fill: #1f77b4; stroke: #1f77b4"/>
     <use xlink:href="#m99571288a2" x="48.594482" y="9.761537" style="fill: #1f77b4; stroke: #1f77b4"/>
     <use xlink:href="#m99571288a2" x="50.394482" y="9.495438" style="fill: #1f77b4; stroke: #1f77b4"/>
     <use xlink:href="#m99571288a2" x="52.194482" y="9.64676" style="fill: #1f77b4; stroke: #1f77b4"/>
     <use xlink:href="#m99571288a2" x="53.994482" y="9.75326" style="fill: #1f77b4; stroke: #1f77b4"/>
     <use xlink:href="#m99571288a2" x="55.794482" y="9.691523" style="fill: #1f77b4; stroke: #1f77b4"/>
     <use xlink:href="#m99571288a2" x="57.594482" y="10.025251" style="fill: #1f77b4; stroke: #1f77b4"/>
     <use xlink:href="#m99571288a2" x="59.394482" y="10.511998" style="fill: #1f77b4; stroke: #1f77b4"/>
     <use xlink:href="#m99571288a2" x="61.194482" y="10.864472" style="fill: #1f77b4; stroke: #1f77b4"/>
     <use xlink:href="#m99571288a2" x="62.994482" y="10.809895" style="fill: #1f77b4; stroke: #1f77b4"/>
     <use xlink:href="#m99571288a2" x="64.794482" y="12.616502" style="fill: #1f77b4; stroke: #1f77b4"/>
     <use xlink:href="#m99571288a2" x="66.594482" y="18.269921" style="fill: #1f77b4; stroke: #1f77b4"/>
     <use xlink:href="#m99571288a2" x="68.394482" y="19.165515" style="fill: #1f77b4; stroke: #1f77b4"/>
     <use xlink:href="#m99571288a2" x="70.194482" y="19.846227" style="fill: #1f77b4; stroke: #1f77b4"/>
     <use xlink:href="#m99571288a2" x="71.994482" y="27.485714" style="fill: #1f77b4; stroke: #1f77b4"/>
     <use xlink:href="#m99571288a2" x="73.794482" y="55.833349" style="fill: #1f77b4; stroke: #1f77b4"/>
     <use xlink:href="#m99571288a2" x="75.594482" y="27.485714" style="fill: #1f77b4; stroke: #1f77b4"/>
     <use xlink:href="#m99571288a2" x="77.394482" y="19.846227" style="fill: #1f77b4; stroke: #1f77b4"/>
     <use xlink:href="#m99571288a2" x="79.194482" y="19.165515" style="fill: #1f77b4; stroke: #1f77b4"/>
     <use xlink:href="#m99571288a2" x="80.994482" y="18.269921" style="fill: #1f77b4; stroke: #1f77b4"/>
     <use xlink:href="#m99571288a2" x="82.794482" y="12.616502" style="fill: #1f77b4; stroke: #1f77b4"/>
     <use xlink:href="#m99571288a2" x="84.594482" y="10.809895" style="fill: #1f77b4; stroke: #1f77b4"/>
     <use xlink:href="#m99571288a2" x="86.394482" y="10.864472" style="fill: #1f77b4; stroke: #1f77b4"/>
     <use xlink:href="#m99571288a2" x="88.194482" y="10.511998" style="fill: #1f77b4; stroke: #1f77b4"/>
     <use xlink:href="#m99571288a2" x="89.994482" y="10.025251" style="fill: #1f77b4; stroke: #1f77b4"/>
     <use xlink:href="#m99571288a2" x="91.794482" y="9.691523" style="fill: #1f77b4; stroke: #1f77b4"/>
     <use xlink:href="#m99571288a2" x="93.594482" y="9.75326" style="fill: #1f77b4; stroke: #1f77b4"/>
     <use xlink:href="#m99571288a2" x="95.394482" y="9.64676" style="fill: #1f77b4; stroke: #1f77b4"/>
     <use xlink:href="#m99571288a2" x="97.194482" y="9.495438" style="fill: #1f77b4; stroke: #1f77b4"/>
     <use xlink:href="#m99571288a2" x="98.994482" y="9.761537" style="fill: #1f77b4; stroke: #1f77b4"/>
     <use xlink:href="#m99571288a2" x="100.794482" y="9.779895" style="fill: #1f77b4; stroke: #1f77b4"/>
     <use xlink:href="#m99571288a2" x="102.594482" y="9.616122" style="fill: #1f77b4; stroke: #1f77b4"/>
     <use xlink:href="#m99571288a2" x="104.394482" y="9.785695" style="fill: #1f77b4; stroke: #1f77b4"/>
     <use xlink:href="#m99571288a2" x="106.194482" y="9.938575" style="fill: #1f77b4; stroke: #1f77b4"/>
     <use xlink:href="#m99571288a2" x="107.994482" y="9.718789" style="fill: #1f77b4; stroke: #1f77b4"/>
     <use xlink:href="#m99571288a2" x="109.794482" y="9.351475" style="fill: #1f77b4; stroke: #1f77b4"/>
     <use xlink:href="#m99571288a2" x="111.594482" y="9.714858" style="fill: #1f77b4; stroke: #1f77b4"/>
     <use xlink:href="#m99571288a2" x="113.394482" y="10.365342" style="fill: #1f77b4; stroke: #1f77b4"/>
     <use xlink:href="#m99571288a2" x="115.194482" y="9.741661" style="fill: #1f77b4; stroke: #1f77b4"/>
     <use xlink:href="#m99571288a2" x="116.994482" y="8.809629" style="fill: #1f77b4; stroke: #1f77b4"/>
     <use xlink:href="#m99571288a2" x="118.794482" y="9.198377" style="fill: #1f77b4; stroke: #1f77b4"/>
     <use xlink:href="#m99571288a2" x="120.594482" y="10.210631" style="fill: #1f77b4; stroke: #1f77b4"/>
     <use xlink:href="#m99571288a2" x="122.394482" y="9.368649" style="fill: #1f77b4; stroke: #1f77b4"/>
     <use xlink:href="#m99571288a2" x="124.194482" y="5.39116" style="fill: #1f77b4; stroke: #1f77b4"/>
     <use xlink:href="#m99571288a2" x="125.994482" y="6.572247" style="fill: #1f77b4; stroke: #1f77b4"/>
     <use xlink:href="#m99571288a2" x="127.794482" y="21.359176" style="fill: #1f77b4; stroke: #1f77b4"/>
    </g>
   </g>
   <g id="LineCollection_1">
    <path d="M -1 31.32 
L 134.194482 31.32 
" clip-path="url(#pd29df5f0ca)" style="fill: none; stroke-dasharray: 1.85,0.8; stroke-dashoffset: 0; stroke: #000000; stroke-width: 0.5"/>
   </g>
   <g id="patch_3">
    <path d="M 17.994482 59.04 
L 17.994482 3.6 
" style="fill: none; stroke: #000000; stroke-width: 0.4; stroke-linejoin: miter; stroke-linecap: square"/>
   </g>
   <g id="patch_4">
    <path d="M 129.594482 59.04 
L 129.594482 3.6 
" style="fill: none; stroke: #000000; stroke-width: 0.4; stroke-linejoin: miter; stroke-linecap: square"/>
   </g>
   <g id="patch_5">
    <path d="M 17.994482 59.04 
L 129.594482 59.04 
" style="fill: none; stroke: #000000; stroke-width: 0.4; stroke-linejoin: miter; stroke-linecap: square"/>
   </g>
   <g id="patch_6">
    <path d="M 17.994482 3.6 
L 129.594482 3.6 
" style="fill: none; stroke: #000000; stroke-width: 0.4; stroke-linejoin: miter; stroke-linecap: square"/>
   </g>
  </g>
 </g>
 <defs>
  <clipPath id="pd29df5f0ca">
   <rect x="17.994482" y="3.6" width="111.6" height="55.44"/>
  </clipPath>
 </defs>
</svg>
