<?xml version="1.0" encoding="utf-8" standalone="no"?>
<!DOCTYPE svg PUBLIC "-//W3C//DTD SVG 1.1//EN"
  "http://www.w3.org/Graphics/SVG/1.1/DTD/svg11.dtd">
<svg xmlns:xlink="http://www.w3.org/1999/xlink" width="135.552009pt" height="73.351796pt" viewBox="0 0 135.552009 73.351796" xmlns="http://www.w3.org/2000/svg" version="1.1">
 <metadata>
  <rdf:RDF xmlns:dc="http://purl.org/dc/elements/1.1/" xmlns:cc="http://creativecommons.org/ns#" xmlns:rdf="http://www.w3.org/1999/02/22-rdf-syntax-ns#">
   <cc:Work>
    <dc:type rdf:resource="http://purl.org/dc/dcmitype/StillImage"/>
    <dc:date>2024-07-18T17:30:35.393719</dc:date>
    <dc:format>image/svg+xml</dc:format>
    <dc:creator>
     <cc:Agent>
      <dc:title>Matplotlib v3.8.4, https://matplotlib.org/</dc:title>
     </cc:Agent>
    </dc:creator>
   </cc:Work>
  </rdf:RDF>
 </metadata>
 <defs>
  <style type="text/css">*{stroke-linejoin: round; stroke-linecap: butt}</style>
 </defs>
 <g id="figure_1">
  <g id="patch_1">
   <path d="M 0 73.351796 
L 135.552009 73.351796 
L 135.552009 0 
L 0 0 
z
" style="fill: #ffffff"/>
  </g>
  <g id="axes_1">
   <g id="patch_2">
    <path d="M 17.920583 59.16737 
L 129.520583 59.16737 
L 129.520583 3.72737 
L 17.920583 3.72737 
z
" style="fill: #ffffff"/>
   </g>
   <g id="matplotlib.axis_1">
    <g id="xtick_1">
     <g id="line2d_1">
      <defs>
       <path id="m1120765ee8" d="M 0 0 
L 0 -2.5 
" style="stroke: #000000; stroke-width: 0.6"/>
      </defs>
      <g>
       <use xlink:href="#m1120765ee8" x="17.920583" y="59.16737" style="stroke: #000000; stroke-width: 0.6"/>
      </g>
     </g>
     <g id="text_1">
      <!-- 0 -->
      <g transform="translate(15.803522 68.202111) scale(0.08 -0.08)">
       <defs>
        <path id="LMSans17-Regular-30" d="M 2758 2075 
C 2758 2441 2752 3122 2490 3648 
C 2227 4153 1805 4288 1504 4288 
C 1069 4288 698 4031 506 3622 
C 301 3193 243 2749 243 2075 
C 243 1612 262 1046 493 551 
C 755 6 1197 -128 1498 -128 
C 1894 -128 2278 83 2496 525 
C 2720 988 2758 1496 2758 2075 
z
M 2272 2145 
C 2272 1547 2272 262 1498 262 
C 1011 262 864 821 819 1008 
C 742 1329 730 1637 730 2145 
C 730 2544 730 2994 851 3347 
C 998 3756 1254 3897 1498 3897 
C 1971 3897 2125 3423 2176 3257 
C 2272 2917 2272 2518 2272 2145 
z
" transform="scale(0.015625)"/>
       </defs>
       <use xlink:href="#LMSans17-Regular-30" transform="scale(0.996264)"/>
      </g>
     </g>
    </g>
    <g id="xtick_2">
     <g id="line2d_2">
      <g>
       <use xlink:href="#m1120765ee8" x="45.820583" y="59.16737" style="stroke: #000000; stroke-width: 0.6"/>
      </g>
     </g>
    </g>
    <g id="xtick_3">
     <g id="line2d_3">
      <g>
       <use xlink:href="#m1120765ee8" x="73.720583" y="59.16737" style="stroke: #000000; stroke-width: 0.6"/>
      </g>
     </g>
    </g>
    <g id="xtick_4">
     <g id="line2d_4">
      <g>
       <use xlink:href="#m1120765ee8" x="101.620583" y="59.16737" style="stroke: #000000; stroke-width: 0.6"/>
      </g>
     </g>
    </g>
    <g id="xtick_5">
     <g id="line2d_5">
      <g>
       <use xlink:href="#m1120765ee8" x="129.520583" y="59.16737" style="stroke: #000000; stroke-width: 0.6"/>
      </g>
     </g>
     <g id="text_2">
      <!-- $\pi$ -->
      <g transform="translate(127.089157 68.202111) scale(0.08 -0.08)">
       <defs>
        <path id="LMMathItalic12-Regular-19" d="M 3539 2611 
C 3539 2752 3418 2752 3302 2752 
L 1197 2752 
C 1050 2752 832 2752 538 2438 
C 371 2253 166 1914 166 1876 
C 166 1838 198 1825 237 1825 
C 282 1825 288 1844 320 1883 
C 653 2406 986 2406 1146 2406 
L 1510 2406 
C 1370 1927 1210 1372 685 255 
C 634 153 634 140 634 101 
C 634 -33 749 -64 806 -64 
C 992 -64 1043 101 1120 370 
C 1222 695 1222 708 1286 963 
L 1658 2406 
L 2381 2406 
C 2208 1691 2099 1225 2099 714 
C 2099 625 2099 -64 2362 -64 
C 2496 -64 2611 57 2611 165 
C 2611 197 2611 210 2566 306 
C 2394 746 2394 1295 2394 1340 
C 2394 1378 2394 1831 2528 2406 
L 3245 2406 
C 3328 2406 3539 2406 3539 2611 
z
" transform="scale(0.015625)"/>
       </defs>
       <use xlink:href="#LMMathItalic12-Regular-19" transform="scale(0.996264)"/>
      </g>
     </g>
    </g>
    <g id="text_3">
     <!-- $\gamma$ -->
     <g transform="translate(71.539751 67.286476) scale(0.08 -0.08)">
      <defs>
       <path id="LMMathItalic12-Regular-d" d="M 3405 2701 
C 3405 2701 3398 2752 3341 2752 
C 3341 2752 3296 2752 3283 2726 
C 3270 2714 3046 2282 2854 1850 
C 2758 1634 2630 1348 2419 789 
C 2406 1100 2394 1589 2150 2161 
C 2022 2479 1805 2816 1338 2816 
C 550 2816 122 1818 122 1653 
C 122 1596 166 1596 186 1596 
C 243 1596 243 1609 275 1691 
C 410 2085 819 2396 1261 2396 
C 2150 2396 2278 1412 2278 783 
C 2278 383 2234 249 2195 122 
C 2074 -271 1862 -1059 1862 -1237 
C 1862 -1287 1882 -1344 1933 -1344 
C 2029 -1344 2086 -1135 2157 -881 
C 2310 -322 2349 -43 2381 211 
C 2400 364 2765 1412 3270 2409 
C 3315 2510 3405 2682 3405 2701 
z
" transform="scale(0.015625)"/>
      </defs>
      <use xlink:href="#LMMathItalic12-Regular-d" transform="scale(0.996264)"/>
     </g>
    </g>
   </g>
   <g id="matplotlib.axis_2">
    <g id="ytick_1">
     <g id="line2d_6">
      <defs>
       <path id="me8b3f88268" d="M 0 0 
L 2.5 0 
" style="stroke: #000000; stroke-width: 0.6"/>
      </defs>
      <g>
       <use xlink:href="#me8b3f88268" x="17.920583" y="59.16737" style="stroke: #000000; stroke-width: 0.6"/>
      </g>
     </g>
     <g id="text_4">
      <!-- 0 -->
      <g transform="translate(10.186461 61.934741) scale(0.08 -0.08)">
       <use xlink:href="#LMSans17-Regular-30" transform="scale(0.996264)"/>
      </g>
     </g>
    </g>
    <g id="ytick_2">
     <g id="line2d_7">
      <g>
       <use xlink:href="#me8b3f88268" x="17.920583" y="6.36737" style="stroke: #000000; stroke-width: 0.6"/>
      </g>
     </g>
     <g id="text_5">
      <!-- 0.4 -->
      <g transform="translate(3.6 9.134741) scale(0.08 -0.08)">
       <defs>
        <path id="LMSans17-Regular-2e" d="M 1088 0 
L 1088 512 
L 576 512 
L 576 0 
L 1088 0 
z
" transform="scale(0.015625)"/>
        <path id="LMSans17-Regular-34" d="M 2835 1088 
L 2835 1478 
L 2253 1478 
L 2253 4224 
L 1690 4224 
L 166 1478 
L 166 1088 
L 1747 1088 
L 1747 0 
L 2253 0 
L 2253 1088 
L 2835 1088 
z
M 1766 1478 
L 659 1478 
C 1030 2138 1760 3472 1766 3926 
L 1766 1478 
z
" transform="scale(0.015625)"/>
       </defs>
       <use xlink:href="#LMSans17-Regular-30" transform="scale(0.996264)"/>
       <use xlink:href="#LMSans17-Regular-2e" transform="translate(46.844004 0) scale(0.996264)"/>
       <use xlink:href="#LMSans17-Regular-34" transform="translate(72.869166 0) scale(0.996264)"/>
      </g>
     </g>
    </g>
    <g id="text_6">
     <!-- $\omega_n$ -->
     <g transform="translate(10.050315 35.719854) rotate(-90) scale(0.08 -0.08)">
      <defs>
       <path id="LMMathItalic12-Regular-21" d="M 3642 1533 
C 3712 1807 3795 2133 3795 2394 
C 3795 2548 3763 2682 3680 2765 
C 3642 2797 3590 2816 3539 2816 
C 3469 2816 3398 2784 3341 2726 
C 3283 2669 3251 2599 3251 2535 
C 3251 2484 3270 2433 3309 2394 
C 3462 2254 3539 2050 3539 1820 
C 3539 1737 3526 1647 3507 1558 
C 3360 964 3002 352 2483 352 
C 2112 352 1907 620 1862 977 
C 1939 1156 2003 1347 2048 1533 
C 2061 1590 2074 1654 2074 1711 
C 2074 1788 2048 1845 1971 1845 
C 1856 1845 1805 1692 1773 1558 
C 1722 1367 1690 1175 1683 990 
C 1472 626 1165 352 800 352 
C 416 352 250 671 250 1073 
C 250 1220 275 1373 314 1533 
C 410 1916 627 2279 877 2624 
C 890 2650 896 2669 896 2694 
C 896 2726 883 2758 851 2777 
C 832 2784 806 2784 806 2784 
C 768 2784 730 2765 704 2733 
C 442 2362 275 1960 173 1558 
C 109 1303 77 1047 77 818 
C 77 320 250 -64 723 -64 
C 1133 -64 1459 236 1702 645 
C 1760 230 1971 -64 2406 -64 
C 3066 -64 3450 760 3642 1533 
z
" transform="scale(0.015625)"/>
       <path id="LMSans17-Oblique-6e" d="M 2618 12 
L 3014 1881 
C 3098 2284 3117 2816 2394 2816 
C 1984 2816 1670 2604 1446 2387 
L 1530 2783 
L 1062 2783 
L 474 0 
L 960 0 
L 1286 1556 
C 1376 1962 1626 2425 2061 2425 
C 2624 2425 2566 2045 2515 1827 
L 2131 0 
L 2618 12 
z
" transform="scale(0.015625)"/>
      </defs>
      <use xlink:href="#LMMathItalic12-Regular-21" transform="scale(0.996264)"/>
      <use xlink:href="#LMSans17-Oblique-6e" transform="translate(60.743753 -14.943915) scale(0.697382)"/>
     </g>
    </g>
   </g>
   <g id="line2d_8">
    <path clip-path="url(#pf73890c8fd)" style="fill: none; stroke-dasharray: 1.85,0.8; stroke-dashoffset: 0; stroke: #808080; stroke-width: 0.5"/>
   </g>
   <g id="line2d_9">
    <path d="M 17.920583 36.345793 
L 21.408083 36.400121 
L 24.895583 36.378143 
L 28.383083 34.991268 
L 31.870583 35.421746 
L 35.358083 34.671917 
L 38.845583 34.004185 
L 42.333083 33.623927 
L 45.820583 33.508344 
L 49.308083 33.418119 
L 52.795583 33.111087 
L 56.283083 32.504767 
L 59.770583 30.024634 
L 63.258083 30.335113 
L 66.745583 31.094875 
L 70.233083 31.099562 
L 73.720583 30.333005 
L 77.208083 31.099562 
L 80.695583 31.094875 
L 84.183083 30.335113 
L 87.670583 30.024634 
L 91.158083 32.504767 
L 94.645583 33.111087 
L 98.133083 33.418119 
L 101.620583 33.508344 
L 105.108083 33.623927 
L 108.595583 34.004185 
L 112.083083 34.671917 
L 115.570583 35.421746 
L 119.058083 34.991268 
L 122.545583 36.378143 
L 126.033083 36.400121 
L 129.520583 36.345793 
" clip-path="url(#pf73890c8fd)" style="fill: none; stroke: #0000ff; stroke-width: 0.5; stroke-linecap: square"/>
   </g>
   <g id="line2d_10">
    <path clip-path="url(#pf73890c8fd)" style="fill: none; stroke-dasharray: 1.85,0.8; stroke-dashoffset: 0; stroke: #808080; stroke-width: 0.5"/>
   </g>
   <g id="line2d_11">
    <path d="M 17.920583 31.142962 
L 21.408083 30.414694 
L 24.895583 30.438509 
L 28.383083 31.439857 
L 31.870583 31.694858 
L 35.358083 29.383694 
L 38.845583 28.991782 
L 42.333083 28.684049 
L 45.820583 28.462146 
L 49.308083 28.1836 
L 52.795583 27.598013 
L 56.283083 26.565215 
L 59.770583 25.153286 
L 63.258083 25.400862 
L 66.745583 23.33167 
L 70.233083 23.343629 
L 73.720583 23.408369 
L 77.208083 23.343629 
L 80.695583 23.33167 
L 84.183083 25.400862 
L 87.670583 25.153286 
L 91.158083 26.565215 
L 94.645583 27.598013 
L 98.133083 28.1836 
L 101.620583 28.462146 
L 105.108083 28.684049 
L 108.595583 28.991782 
L 112.083083 29.383694 
L 115.570583 31.694858 
L 119.058083 31.439857 
L 122.545583 30.438509 
L 126.033083 30.414694 
L 129.520583 31.142962 
" clip-path="url(#pf73890c8fd)" style="fill: none; stroke-dasharray: 1.85,0.8; stroke-dashoffset: 0; stroke: #ff0000; stroke-width: 0.5"/>
   </g>
   <g id="line2d_12">
    <path clip-path="url(#pf73890c8fd)" style="fill: none; stroke-dasharray: 1.85,0.8; stroke-dashoffset: 0; stroke: #808080; stroke-width: 0.5"/>
   </g>
   <g id="line2d_13">
    <path d="M 17.920583 30.333269 
L 21.408083 31.099826 
L 24.895583 31.095139 
L 28.383083 30.335377 
L 31.870583 30.024898 
L 35.358083 32.505031 
L 38.845583 33.111351 
L 42.333083 33.418383 
L 45.820583 33.508608 
L 49.308083 33.624191 
L 52.795583 34.004449 
L 56.283083 34.672181 
L 59.770583 35.42201 
L 63.258083 34.991532 
L 66.745583 36.378407 
L 70.233083 36.400385 
L 73.720583 36.346057 
L 77.208083 36.400385 
L 80.695583 36.378407 
L 84.183083 34.991532 
L 87.670583 35.42201 
L 91.158083 34.672181 
L 94.645583 34.004449 
L 98.133083 33.624191 
L 101.620583 33.508608 
L 105.108083 33.418383 
L 108.595583 33.111351 
L 112.083083 32.505031 
L 115.570583 30.024898 
L 119.058083 30.335377 
L 122.545583 31.095139 
L 126.033083 31.099826 
L 129.520583 30.333269 
" clip-path="url(#pf73890c8fd)" style="fill: none; stroke: #ff0000; stroke-width: 0.5; stroke-linecap: square"/>
   </g>
   <g id="line2d_14">
    <path d="M 17.920583 23.408105 
L 21.408083 23.343365 
L 24.895583 23.331406 
L 28.383083 25.400598 
L 31.870583 25.153022 
L 35.358083 26.564951 
L 38.845583 27.597749 
L 42.333083 28.183336 
L 45.820583 28.461882 
L 49.308083 28.683785 
L 52.795583 28.991518 
L 56.283083 29.38343 
L 59.770583 31.694594 
L 63.258083 31.439593 
L 66.745583 30.438245 
L 70.233083 30.41443 
L 73.720583 31.142698 
L 77.208083 30.41443 
L 80.695583 30.438245 
L 84.183083 31.439593 
L 87.670583 31.694594 
L 91.158083 29.38343 
L 94.645583 28.991518 
L 98.133083 28.683785 
L 101.620583 28.461882 
L 105.108083 28.183336 
L 108.595583 27.597749 
L 112.083083 26.564951 
L 115.570583 25.153022 
L 119.058083 25.400598 
L 122.545583 23.331406 
L 126.033083 23.343365 
L 129.520583 23.408105 
" clip-path="url(#pf73890c8fd)" style="fill: none; stroke-dasharray: 1.85,0.8; stroke-dashoffset: 0; stroke: #0000ff; stroke-width: 0.5"/>
   </g>
   <g id="line2d_15">
    <path clip-path="url(#pf73890c8fd)" style="fill: none; stroke-dasharray: 1.85,0.8; stroke-dashoffset: 0; stroke: #808080; stroke-width: 0.5"/>
   </g>
   <g id="line2d_16">
    <path clip-path="url(#pf73890c8fd)" style="fill: none; stroke-dasharray: 1.85,0.8; stroke-dashoffset: 0; stroke: #808080; stroke-width: 0.5"/>
   </g>
   <g id="line2d_17">
    <path clip-path="url(#pf73890c8fd)" style="fill: none; stroke-dasharray: 1.85,0.8; stroke-dashoffset: 0; stroke: #808080; stroke-width: 0.5"/>
   </g>
   <g id="line2d_18">
    <path clip-path="url(#pf73890c8fd)" style="fill: none; stroke-dasharray: 1.85,0.8; stroke-dashoffset: 0; stroke: #808080; stroke-width: 0.5"/>
   </g>
   <g id="line2d_19">
    <path clip-path="url(#pf73890c8fd)" style="fill: none; stroke-dasharray: 1.85,0.8; stroke-dashoffset: 0; stroke: #808080; stroke-width: 0.5"/>
   </g>
   <g id="line2d_20">
    <path clip-path="url(#pf73890c8fd)" style="fill: none; stroke-dasharray: 1.85,0.8; stroke-dashoffset: 0; stroke: #808080; stroke-width: 0.5"/>
   </g>
   <g id="line2d_21">
    <path clip-path="url(#pf73890c8fd)" style="fill: none; stroke-dasharray: 1.85,0.8; stroke-dashoffset: 0; stroke: #808080; stroke-width: 0.5"/>
   </g>
   <g id="line2d_22">
    <path clip-path="url(#pf73890c8fd)" style="fill: none; stroke-dasharray: 1.85,0.8; stroke-dashoffset: 0; stroke: #808080; stroke-width: 0.5"/>
   </g>
   <g id="line2d_23">
    <path clip-path="url(#pf73890c8fd)" style="fill: none; stroke-dasharray: 1.85,0.8; stroke-dashoffset: 0; stroke: #808080; stroke-width: 0.5"/>
   </g>
   <g id="line2d_24">
    <path d="M 17.920583 12.73288 
L 21.408083 12.730781 
L 24.895583 12.727337 
L 28.383083 12.72082 
L 31.870583 12.700188 
L 35.358083 12.632015 
L 38.845583 12.584561 
L 42.333083 12.556784 
L 45.820583 12.55489 
L 49.308083 12.568683 
L 52.795583 12.582147 
L 56.283083 12.578267 
L 59.770583 12.512459 
L 63.258083 12.481529 
L 66.745583 12.46109 
L 70.233083 12.493725 
L 73.720583 12.54462 
L 77.208083 12.493725 
L 80.695583 12.46109 
L 84.183083 12.481529 
L 87.670583 12.512459 
L 91.158083 12.578267 
L 94.645583 12.582147 
L 98.133083 12.568683 
L 101.620583 12.55489 
L 105.108083 12.556784 
L 108.595583 12.584561 
L 112.083083 12.632015 
L 115.570583 12.700188 
L 119.058083 12.72082 
L 122.545583 12.727337 
L 126.033083 12.730781 
L 129.520583 12.73288 
" clip-path="url(#pf73890c8fd)" style="fill: none; stroke-dasharray: 1.85,0.8; stroke-dashoffset: 0; stroke: #808080; stroke-width: 0.5"/>
   </g>
   <g id="line2d_25">
    <path d="M 17.920583 12.694068 
L 21.408083 12.692508 
L 24.895583 12.689539 
L 28.383083 12.669844 
L 31.870583 12.660742 
L 35.358083 12.645671 
L 38.845583 12.648164 
L 42.333083 12.643482 
L 45.820583 12.622725 
L 49.308083 12.584355 
L 52.795583 12.538534 
L 56.283083 12.502208 
L 59.770583 12.519537 
L 63.258083 12.549365 
L 66.745583 12.527482 
L 70.233083 12.495675 
L 73.720583 12.455391 
L 77.208083 12.495675 
L 80.695583 12.527482 
L 84.183083 12.549365 
L 87.670583 12.519537 
L 91.158083 12.502208 
L 94.645583 12.538534 
L 98.133083 12.584355 
L 101.620583 12.622725 
L 105.108083 12.643482 
L 108.595583 12.648164 
L 112.083083 12.645671 
L 115.570583 12.660742 
L 119.058083 12.669844 
L 122.545583 12.689539 
L 126.033083 12.692508 
L 129.520583 12.694068 
" clip-path="url(#pf73890c8fd)" style="fill: none; stroke-dasharray: 1.85,0.8; stroke-dashoffset: 0; stroke: #808080; stroke-width: 0.5"/>
   </g>
   <g id="line2d_26">
    <path d="M 17.920583 12.544884 
L 21.408083 12.493989 
L 24.895583 12.461354 
L 28.383083 12.481793 
L 31.870583 12.512723 
L 35.358083 12.578531 
L 38.845583 12.582411 
L 42.333083 12.568947 
L 45.820583 12.555154 
L 49.308083 12.557048 
L 52.795583 12.584825 
L 56.283083 12.632279 
L 59.770583 12.700452 
L 63.258083 12.721084 
L 66.745583 12.727601 
L 70.233083 12.731045 
L 73.720583 12.733144 
L 77.208083 12.731045 
L 80.695583 12.727601 
L 84.183083 12.721084 
L 87.670583 12.700452 
L 91.158083 12.632279 
L 94.645583 12.584825 
L 98.133083 12.557048 
L 101.620583 12.555154 
L 105.108083 12.568947 
L 108.595583 12.582411 
L 112.083083 12.578531 
L 115.570583 12.512723 
L 119.058083 12.481793 
L 122.545583 12.461354 
L 126.033083 12.493989 
L 129.520583 12.544884 
" clip-path="url(#pf73890c8fd)" style="fill: none; stroke-dasharray: 1.85,0.8; stroke-dashoffset: 0; stroke: #808080; stroke-width: 0.5"/>
   </g>
   <g id="line2d_27">
    <path d="M 17.920583 12.455655 
L 21.408083 12.495939 
L 24.895583 12.527746 
L 28.383083 12.549629 
L 31.870583 12.519801 
L 35.358083 12.502472 
L 38.845583 12.538798 
L 42.333083 12.584619 
L 45.820583 12.622989 
L 49.308083 12.643746 
L 52.795583 12.648428 
L 56.283083 12.645935 
L 59.770583 12.661006 
L 63.258083 12.670108 
L 66.745583 12.689803 
L 70.233083 12.692772 
L 73.720583 12.694332 
L 77.208083 12.692772 
L 80.695583 12.689803 
L 84.183083 12.670108 
L 87.670583 12.661006 
L 91.158083 12.645935 
L 94.645583 12.648428 
L 98.133083 12.643746 
L 101.620583 12.622989 
L 105.108083 12.584619 
L 108.595583 12.538798 
L 112.083083 12.502472 
L 115.570583 12.519801 
L 119.058083 12.549629 
L 122.545583 12.527746 
L 126.033083 12.495939 
L 129.520583 12.455655 
" clip-path="url(#pf73890c8fd)" style="fill: none; stroke-dasharray: 1.85,0.8; stroke-dashoffset: 0; stroke: #808080; stroke-width: 0.5"/>
   </g>
   <g id="line2d_28">
    <path clip-path="url(#pf73890c8fd)" style="fill: none; stroke-dasharray: 1.85,0.8; stroke-dashoffset: 0; stroke: #808080; stroke-width: 0.5"/>
   </g>
   <g id="line2d_29">
    <path clip-path="url(#pf73890c8fd)" style="fill: none; stroke-dasharray: 1.85,0.8; stroke-dashoffset: 0; stroke: #808080; stroke-width: 0.5"/>
   </g>
   <g id="line2d_30">
    <path clip-path="url(#pf73890c8fd)" style="fill: none; stroke-dasharray: 1.85,0.8; stroke-dashoffset: 0; stroke: #808080; stroke-width: 0.5"/>
   </g>
   <g id="line2d_31">
    <path clip-path="url(#pf73890c8fd)" style="fill: none; stroke-dasharray: 1.85,0.8; stroke-dashoffset: 0; stroke: #808080; stroke-width: 0.5"/>
   </g>
   <g id="line2d_32">
    <path d="M 17.920583 10.791921 
L 21.408083 10.773767 
L 24.895583 10.752704 
L 28.383083 10.67003 
L 31.870583 10.636852 
L 35.358083 10.538546 
L 38.845583 10.483082 
L 42.333083 10.434927 
L 45.820583 10.392289 
L 49.308083 10.357361 
L 52.795583 10.322139 
L 56.283083 10.268978 
L 59.770583 10.145873 
L 63.258083 10.109485 
L 66.745583 10.037493 
L 70.233083 10.084234 
L 73.720583 10.134722 
L 77.208083 10.084234 
L 80.695583 10.037493 
L 84.183083 10.109485 
L 87.670583 10.145873 
L 91.158083 10.268978 
L 94.645583 10.322139 
L 98.133083 10.357361 
L 101.620583 10.392289 
L 105.108083 10.434927 
L 108.595583 10.483082 
L 112.083083 10.538546 
L 115.570583 10.636852 
L 119.058083 10.67003 
L 122.545583 10.752704 
L 126.033083 10.773767 
L 129.520583 10.791921 
" clip-path="url(#pf73890c8fd)" style="fill: none; stroke-dasharray: 1.85,0.8; stroke-dashoffset: 0; stroke: #808080; stroke-width: 0.5"/>
   </g>
   <g id="line2d_33">
    <path d="M 17.920583 10.761967 
L 21.408083 10.736231 
L 24.895583 10.705043 
L 28.383083 10.642812 
L 31.870583 10.598834 
L 35.358083 10.557413 
L 38.845583 10.545065 
L 42.333083 10.495517 
L 45.820583 10.41221 
L 49.308083 10.315409 
L 52.795583 10.219821 
L 56.283083 10.141292 
L 59.770583 10.149077 
L 63.258083 10.188395 
L 66.745583 10.118954 
L 70.233083 10.074746 
L 73.720583 9.996267 
L 77.208083 10.074746 
L 80.695583 10.118954 
L 84.183083 10.188395 
L 87.670583 10.149077 
L 91.158083 10.141292 
L 94.645583 10.219821 
L 98.133083 10.315409 
L 101.620583 10.41221 
L 105.108083 10.495517 
L 108.595583 10.545065 
L 112.083083 10.557413 
L 115.570583 10.598834 
L 119.058083 10.642812 
L 122.545583 10.705043 
L 126.033083 10.736231 
L 129.520583 10.761967 
" clip-path="url(#pf73890c8fd)" style="fill: none; stroke-dasharray: 1.85,0.8; stroke-dashoffset: 0; stroke: #808080; stroke-width: 0.5"/>
   </g>
   <g id="line2d_34">
    <path d="M 17.920583 10.134986 
L 21.408083 10.084498 
L 24.895583 10.037757 
L 28.383083 10.109749 
L 31.870583 10.146137 
L 35.358083 10.269242 
L 38.845583 10.322403 
L 42.333083 10.357625 
L 45.820583 10.392553 
L 49.308083 10.435191 
L 52.795583 10.483346 
L 56.283083 10.53881 
L 59.770583 10.637116 
L 63.258083 10.670294 
L 66.745583 10.752968 
L 70.233083 10.774031 
L 73.720583 10.792185 
L 77.208083 10.774031 
L 80.695583 10.752968 
L 84.183083 10.670294 
L 87.670583 10.637116 
L 91.158083 10.53881 
L 94.645583 10.483346 
L 98.133083 10.435191 
L 101.620583 10.392553 
L 105.108083 10.357625 
L 108.595583 10.322403 
L 112.083083 10.269242 
L 115.570583 10.146137 
L 119.058083 10.109749 
L 122.545583 10.037757 
L 126.033083 10.084498 
L 129.520583 10.134986 
" clip-path="url(#pf73890c8fd)" style="fill: none; stroke-dasharray: 1.85,0.8; stroke-dashoffset: 0; stroke: #808080; stroke-width: 0.5"/>
   </g>
   <g id="line2d_35">
    <path d="M 17.920583 9.996531 
L 21.408083 10.07501 
L 24.895583 10.119218 
L 28.383083 10.188659 
L 31.870583 10.149341 
L 35.358083 10.141556 
L 38.845583 10.220085 
L 42.333083 10.315673 
L 45.820583 10.412474 
L 49.308083 10.495781 
L 52.795583 10.545329 
L 56.283083 10.557677 
L 59.770583 10.599098 
L 63.258083 10.643076 
L 66.745583 10.705307 
L 70.233083 10.736495 
L 73.720583 10.762231 
L 77.208083 10.736495 
L 80.695583 10.705307 
L 84.183083 10.643076 
L 87.670583 10.599098 
L 91.158083 10.557677 
L 94.645583 10.545329 
L 98.133083 10.495781 
L 101.620583 10.412474 
L 105.108083 10.315673 
L 108.595583 10.220085 
L 112.083083 10.141556 
L 115.570583 10.149341 
L 119.058083 10.188659 
L 122.545583 10.119218 
L 126.033083 10.07501 
L 129.520583 9.996531 
" clip-path="url(#pf73890c8fd)" style="fill: none; stroke-dasharray: 1.85,0.8; stroke-dashoffset: 0; stroke: #808080; stroke-width: 0.5"/>
   </g>
   <g id="line2d_36">
    <path clip-path="url(#pf73890c8fd)" style="fill: none; stroke-dasharray: 1.85,0.8; stroke-dashoffset: 0; stroke: #808080; stroke-width: 0.5"/>
   </g>
   <g id="line2d_37">
    <path d="M 17.920583 8.78754 
L 21.408083 8.787447 
L 24.895583 8.783598 
L 28.383083 8.893863 
L 31.870583 8.804384 
L 35.358083 8.510132 
L 38.845583 8.271682 
L 42.333083 8.164941 
L 45.820583 8.228894 
L 49.308083 8.378554 
L 52.795583 8.529124 
L 56.283083 8.60761 
L 59.770583 8.395255 
L 63.258083 8.248941 
L 66.745583 8.293454 
L 70.233083 8.448112 
L 73.720583 8.692581 
L 77.208083 8.448112 
L 80.695583 8.293454 
L 84.183083 8.248941 
L 87.670583 8.395255 
L 91.158083 8.60761 
L 94.645583 8.529124 
L 98.133083 8.378554 
L 101.620583 8.228894 
L 105.108083 8.164941 
L 108.595583 8.271682 
L 112.083083 8.510132 
L 115.570583 8.804384 
L 119.058083 8.893863 
L 122.545583 8.783598 
L 126.033083 8.787447 
L 129.520583 8.78754 
" clip-path="url(#pf73890c8fd)" style="fill: none; stroke-dasharray: 1.85,0.8; stroke-dashoffset: 0; stroke: #808080; stroke-width: 0.5"/>
   </g>
   <g id="line2d_38">
    <path d="M 17.920583 8.692845 
L 21.408083 8.448376 
L 24.895583 8.293718 
L 28.383083 8.249205 
L 31.870583 8.395519 
L 35.358083 8.607874 
L 38.845583 8.529388 
L 42.333083 8.378818 
L 45.820583 8.229158 
L 49.308083 8.165205 
L 52.795583 8.271946 
L 56.283083 8.510396 
L 59.770583 8.804648 
L 63.258083 8.894127 
L 66.745583 8.783862 
L 70.233083 8.787711 
L 73.720583 8.787804 
L 77.208083 8.787711 
L 80.695583 8.783862 
L 84.183083 8.894127 
L 87.670583 8.804648 
L 91.158083 8.510396 
L 94.645583 8.271946 
L 98.133083 8.165205 
L 101.620583 8.229158 
L 105.108083 8.378818 
L 108.595583 8.529388 
L 112.083083 8.607874 
L 115.570583 8.395519 
L 119.058083 8.249205 
L 122.545583 8.293718 
L 126.033083 8.448376 
L 129.520583 8.692845 
" clip-path="url(#pf73890c8fd)" style="fill: none; stroke-dasharray: 1.85,0.8; stroke-dashoffset: 0; stroke: #808080; stroke-width: 0.5"/>
   </g>
   <g id="line2d_39">
    <path d="M 17.920583 8.622248 
L 21.408083 8.635279 
L 24.895583 8.643036 
L 28.383083 8.53515 
L 31.870583 8.532396 
L 35.358083 8.509445 
L 38.845583 8.572087 
L 42.333083 8.636939 
L 45.820583 8.638273 
L 49.308083 8.546248 
L 52.795583 8.397908 
L 56.283083 8.276385 
L 59.770583 8.434699 
L 63.258083 8.590719 
L 66.745583 8.637788 
L 70.233083 8.491253 
L 73.720583 8.284185 
L 77.208083 8.491253 
L 80.695583 8.637788 
L 84.183083 8.590719 
L 87.670583 8.434699 
L 91.158083 8.276385 
L 94.645583 8.397908 
L 98.133083 8.546248 
L 101.620583 8.638273 
L 105.108083 8.636939 
L 108.595583 8.572087 
L 112.083083 8.509445 
L 115.570583 8.532396 
L 119.058083 8.53515 
L 122.545583 8.643036 
L 126.033083 8.635279 
L 129.520583 8.622248 
" clip-path="url(#pf73890c8fd)" style="fill: none; stroke-dasharray: 1.85,0.8; stroke-dashoffset: 0; stroke: #808080; stroke-width: 0.5"/>
   </g>
   <g id="line2d_40">
    <path d="M 17.920583 8.284449 
L 21.408083 8.491517 
L 24.895583 8.638052 
L 28.383083 8.590983 
L 31.870583 8.434963 
L 35.358083 8.276649 
L 38.845583 8.398172 
L 42.333083 8.546512 
L 45.820583 8.638537 
L 49.308083 8.637203 
L 52.795583 8.572351 
L 56.283083 8.509709 
L 59.770583 8.53266 
L 63.258083 8.535414 
L 66.745583 8.6433 
L 70.233083 8.635543 
L 73.720583 8.622512 
L 77.208083 8.635543 
L 80.695583 8.6433 
L 84.183083 8.535414 
L 87.670583 8.53266 
L 91.158083 8.509709 
L 94.645583 8.572351 
L 98.133083 8.637203 
L 101.620583 8.638537 
L 105.108083 8.546512 
L 108.595583 8.398172 
L 112.083083 8.276649 
L 115.570583 8.434963 
L 119.058083 8.590983 
L 122.545583 8.638052 
L 126.033083 8.491517 
L 129.520583 8.284449 
" clip-path="url(#pf73890c8fd)" style="fill: none; stroke-dasharray: 1.85,0.8; stroke-dashoffset: 0; stroke: #808080; stroke-width: 0.5"/>
   </g>
   <g id="line2d_41">
    <path d="M 17.920583 4.897634 
L 21.408083 4.279229 
L 24.895583 3.620401 
L 28.383083 4.18093 
L 31.870583 3.233452 
L 35.358083 2.676943 
L 38.845583 2.552526 
L 42.333083 2.523065 
L 45.820583 2.531859 
L 49.308083 2.569217 
L 52.795583 2.599487 
L 56.283083 2.597488 
L 59.770583 2.567137 
L 63.258083 2.567065 
L 66.745583 2.580668 
L 70.233083 2.584692 
L 73.720583 2.5881 
L 77.208083 2.584692 
L 80.695583 2.580668 
L 84.183083 2.567065 
L 87.670583 2.567137 
L 91.158083 2.597488 
L 94.645583 2.599487 
L 98.133083 2.569217 
L 101.620583 2.531859 
L 105.108083 2.523065 
L 108.595583 2.552526 
L 112.083083 2.676943 
L 115.570583 3.233452 
L 119.058083 4.18093 
L 122.545583 3.620401 
L 126.033083 4.279229 
L 129.520583 4.897634 
" clip-path="url(#pf73890c8fd)" style="fill: none; stroke-dasharray: 1.85,0.8; stroke-dashoffset: 0; stroke: #808080; stroke-width: 0.5"/>
   </g>
   <g id="line2d_42">
    <path clip-path="url(#pf73890c8fd)" style="fill: none; stroke-dasharray: 1.85,0.8; stroke-dashoffset: 0; stroke: #808080; stroke-width: 0.5"/>
   </g>
   <g id="line2d_43">
    <path clip-path="url(#pf73890c8fd)" style="fill: none; stroke-dasharray: 1.85,0.8; stroke-dashoffset: 0; stroke: #808080; stroke-width: 0.5"/>
   </g>
   <g id="line2d_44">
    <path clip-path="url(#pf73890c8fd)" style="fill: none; stroke-dasharray: 1.85,0.8; stroke-dashoffset: 0; stroke: #808080; stroke-width: 0.5"/>
   </g>
   <g id="line2d_45">
    <path clip-path="url(#pf73890c8fd)" style="fill: none; stroke-dasharray: 1.85,0.8; stroke-dashoffset: 0; stroke: #808080; stroke-width: 0.5"/>
   </g>
   <g id="line2d_46">
    <path clip-path="url(#pf73890c8fd)" style="fill: none; stroke-dasharray: 1.85,0.8; stroke-dashoffset: 0; stroke: #808080; stroke-width: 0.5"/>
   </g>
   <g id="line2d_47">
    <path clip-path="url(#pf73890c8fd)" style="fill: none; stroke-dasharray: 1.85,0.8; stroke-dashoffset: 0; stroke: #808080; stroke-width: 0.5"/>
   </g>
   <g id="line2d_48">
    <path clip-path="url(#pf73890c8fd)" style="fill: none; stroke-dasharray: 1.85,0.8; stroke-dashoffset: 0; stroke: #808080; stroke-width: 0.5"/>
   </g>
   <g id="line2d_49">
    <path d="M 38.845583 1.902854 
L 42.333083 1.842652 
M 108.595583 1.902854 
L 112.083083 1.923629 
" clip-path="url(#pf73890c8fd)" style="fill: none; stroke-dasharray: 1.85,0.8; stroke-dashoffset: 0; stroke: #808080; stroke-width: 0.5"/>
   </g>
   <g id="line2d_50">
    <path clip-path="url(#pf73890c8fd)" style="fill: none; stroke-dasharray: 1.85,0.8; stroke-dashoffset: 0; stroke: #808080; stroke-width: 0.5"/>
   </g>
   <g id="line2d_51">
    <path clip-path="url(#pf73890c8fd)" style="fill: none; stroke-dasharray: 1.85,0.8; stroke-dashoffset: 0; stroke: #808080; stroke-width: 0.5"/>
   </g>
   <g id="line2d_52">
    <path clip-path="url(#pf73890c8fd)" style="fill: none; stroke-dasharray: 1.85,0.8; stroke-dashoffset: 0; stroke: #808080; stroke-width: 0.5"/>
   </g>
   <g id="line2d_53">
    <path clip-path="url(#pf73890c8fd)" style="fill: none; stroke-dasharray: 1.85,0.8; stroke-dashoffset: 0; stroke: #808080; stroke-width: 0.5"/>
   </g>
   <g id="line2d_54">
    <path d="M 52.795583 1.903118 
L 56.283083 1.923893 
M 94.645583 1.903118 
L 98.133083 1.842916 
" clip-path="url(#pf73890c8fd)" style="fill: none; stroke-dasharray: 1.85,0.8; stroke-dashoffset: 0; stroke: #808080; stroke-width: 0.5"/>
   </g>
   <g id="line2d_55">
    <path d="M 17.920583 3.062898 
L 21.408083 2.959181 
L 24.895583 2.879307 
L 28.383083 2.987052 
L 31.870583 2.923796 
L 35.358083 2.8456 
L 38.845583 2.888962 
L 42.333083 2.951549 
L 45.820583 2.970731 
L 49.308083 2.943311 
L 52.795583 2.910557 
L 56.283083 2.897775 
L 59.770583 2.923198 
L 63.258083 2.940397 
L 66.745583 3.015667 
L 70.233083 3.035981 
L 73.720583 3.054501 
L 77.208083 3.035981 
L 80.695583 3.015667 
L 84.183083 2.940397 
L 87.670583 2.923198 
L 91.158083 2.897775 
L 94.645583 2.910557 
L 98.133083 2.943311 
L 101.620583 2.970731 
L 105.108083 2.951549 
L 108.595583 2.888962 
L 112.083083 2.8456 
L 115.570583 2.923796 
L 119.058083 2.987052 
L 122.545583 2.879307 
L 126.033083 2.959181 
L 129.520583 3.062898 
" clip-path="url(#pf73890c8fd)" style="fill: none; stroke-dasharray: 1.85,0.8; stroke-dashoffset: 0; stroke: #808080; stroke-width: 0.5"/>
   </g>
   <g id="line2d_56">
    <path d="M 17.920583 3.054237 
L 21.408083 3.035717 
L 24.895583 3.015403 
L 28.383083 2.940133 
L 31.870583 2.922934 
L 35.358083 2.897511 
L 38.845583 2.910293 
L 42.333083 2.943047 
L 45.820583 2.970467 
L 49.308083 2.951285 
L 52.795583 2.888698 
L 56.283083 2.845336 
L 59.770583 2.923532 
L 63.258083 2.986788 
L 66.745583 2.879043 
L 70.233083 2.958917 
L 73.720583 3.062634 
L 77.208083 2.958917 
L 80.695583 2.879043 
L 84.183083 2.986788 
L 87.670583 2.923532 
L 91.158083 2.845336 
L 94.645583 2.888698 
L 98.133083 2.951285 
L 101.620583 2.970467 
L 105.108083 2.943047 
L 108.595583 2.910293 
L 112.083083 2.897511 
L 115.570583 2.922934 
L 119.058083 2.940133 
L 122.545583 3.015403 
L 126.033083 3.035717 
L 129.520583 3.054237 
" clip-path="url(#pf73890c8fd)" style="fill: none; stroke-dasharray: 1.85,0.8; stroke-dashoffset: 0; stroke: #808080; stroke-width: 0.5"/>
   </g>
   <g id="line2d_57">
    <path d="M 17.920583 2.841761 
L 21.408083 2.932348 
L 24.895583 2.928737 
L 28.383083 2.871414 
L 31.870583 2.938233 
L 35.358083 3.019353 
L 38.845583 2.992123 
L 42.333083 2.937042 
L 45.820583 2.884205 
L 49.308083 2.874227 
L 52.795583 2.890487 
L 56.283083 2.888316 
L 59.770583 2.862418 
L 63.258083 2.859991 
L 66.745583 2.835067 
L 70.233083 2.832092 
L 73.720583 2.829308 
L 77.208083 2.832092 
L 80.695583 2.835067 
L 84.183083 2.859991 
L 87.670583 2.862418 
L 91.158083 2.888316 
L 94.645583 2.890487 
L 98.133083 2.874227 
L 101.620583 2.884205 
L 105.108083 2.937042 
L 108.595583 2.992123 
L 112.083083 3.019353 
L 115.570583 2.938233 
L 119.058083 2.871414 
L 122.545583 2.928737 
L 126.033083 2.932348 
L 129.520583 2.841761 
" clip-path="url(#pf73890c8fd)" style="fill: none; stroke-dasharray: 1.85,0.8; stroke-dashoffset: 0; stroke: #808080; stroke-width: 0.5"/>
   </g>
   <g id="line2d_58">
    <path d="M 17.920583 2.829044 
L 21.408083 2.831828 
L 24.895583 2.834803 
L 28.383083 2.859727 
L 31.870583 2.862154 
L 35.358083 2.888052 
L 38.845583 2.890223 
L 42.333083 2.873963 
L 45.820583 2.883941 
L 49.308083 2.936778 
L 52.795583 2.991859 
L 56.283083 3.019089 
L 59.770583 2.937969 
L 63.258083 2.87115 
L 66.745583 2.928473 
L 70.233083 2.932084 
L 73.720583 2.841497 
L 77.208083 2.932084 
L 80.695583 2.928473 
L 84.183083 2.87115 
L 87.670583 2.937969 
L 91.158083 3.019089 
L 94.645583 2.991859 
L 98.133083 2.936778 
L 101.620583 2.883941 
L 105.108083 2.873963 
L 108.595583 2.890223 
L 112.083083 2.888052 
L 115.570583 2.862154 
L 119.058083 2.859727 
L 122.545583 2.834803 
L 126.033083 2.831828 
L 129.520583 2.829044 
" clip-path="url(#pf73890c8fd)" style="fill: none; stroke-dasharray: 1.85,0.8; stroke-dashoffset: 0; stroke: #808080; stroke-width: 0.5"/>
   </g>
   <g id="line2d_59">
    <path d="M 17.920583 2.140649 
L 21.408083 2.116049 
L 24.895583 2.094017 
L 28.383083 1.991642 
L 31.870583 1.967248 
L 35.358083 1.873211 
L 38.845583 1.834763 
L 42.333083 1.811345 
L 45.820583 1.785249 
M 63.258083 2.51783 
L 66.745583 2.571821 
L 70.233083 2.524225 
L 73.720583 2.461714 
L 77.208083 2.524225 
L 80.695583 2.571821 
L 84.183083 2.51783 
L 87.670583 2.2699 
M 105.108083 1.811345 
L 108.595583 1.834763 
L 112.083083 1.873211 
L 115.570583 1.967248 
L 119.058083 1.991642 
L 122.545583 2.094017 
L 126.033083 2.116049 
L 129.520583 2.140649 
" clip-path="url(#pf73890c8fd)" style="fill: none; stroke-dasharray: 1.85,0.8; stroke-dashoffset: 0; stroke: #808080; stroke-width: 0.5"/>
   </g>
   <g id="line2d_60">
    <path d="M 17.920583 2.162263 
L 21.408083 2.185255 
L 24.895583 2.208712 
L 28.383083 2.295005 
L 31.870583 2.32039 
L 35.358083 2.400806 
L 38.845583 2.453045 
L 42.333083 2.498481 
L 45.820583 2.498551 
L 49.308083 2.491559 
L 52.795583 2.491771 
L 56.283083 2.495391 
L 59.770583 2.494953 
L 63.258083 2.49436 
L 66.745583 2.49017 
L 70.233083 2.492589 
L 73.720583 2.501264 
L 77.208083 2.492589 
L 80.695583 2.49017 
L 84.183083 2.49436 
L 87.670583 2.494953 
L 91.158083 2.495391 
L 94.645583 2.491771 
L 98.133083 2.491559 
L 101.620583 2.498551 
L 105.108083 2.498481 
L 108.595583 2.453045 
L 112.083083 2.400806 
L 115.570583 2.32039 
L 119.058083 2.295005 
L 122.545583 2.208712 
L 126.033083 2.185255 
L 129.520583 2.162263 
" clip-path="url(#pf73890c8fd)" style="fill: none; stroke-dasharray: 1.85,0.8; stroke-dashoffset: 0; stroke: #808080; stroke-width: 0.5"/>
   </g>
   <g id="line2d_61">
    <path d="M 17.920583 2.252605 
L 21.408083 2.28733 
L 24.895583 2.319205 
L 28.383083 2.386335 
L 31.870583 2.433069 
L 35.358083 2.483921 
L 38.845583 2.493579 
L 42.333083 2.503771 
L 45.820583 2.506757 
L 49.308083 2.496639 
L 52.795583 2.49988 
L 56.283083 2.498649 
L 59.770583 2.489827 
L 63.258083 2.492199 
L 66.745583 2.47205 
L 70.233083 2.480242 
L 73.720583 2.497213 
L 77.208083 2.480242 
L 80.695583 2.47205 
L 84.183083 2.492199 
L 87.670583 2.489827 
L 91.158083 2.498649 
L 94.645583 2.49988 
L 98.133083 2.496639 
L 101.620583 2.506757 
L 105.108083 2.503771 
L 108.595583 2.493579 
L 112.083083 2.483921 
L 115.570583 2.433069 
L 119.058083 2.386335 
L 122.545583 2.319205 
L 126.033083 2.28733 
L 129.520583 2.252605 
" clip-path="url(#pf73890c8fd)" style="fill: none; stroke-dasharray: 1.85,0.8; stroke-dashoffset: 0; stroke: #808080; stroke-width: 0.5"/>
   </g>
   <g id="line2d_62">
    <path d="M 17.920583 2.577896 
L 21.408083 2.570142 
L 24.895583 2.561385 
L 28.383083 2.545617 
L 31.870583 2.535326 
L 35.358083 2.526239 
L 38.845583 2.525927 
L 42.333083 2.536984 
L 45.820583 2.587536 
L 49.308083 2.617051 
L 52.795583 2.614745 
L 56.283083 2.595078 
L 59.770583 2.551315 
L 63.258083 2.539045 
L 66.745583 2.558595 
L 70.233083 2.575213 
L 73.720583 2.58388 
L 77.208083 2.575213 
L 80.695583 2.558595 
L 84.183083 2.539045 
L 87.670583 2.551315 
L 91.158083 2.595078 
L 94.645583 2.614745 
L 98.133083 2.617051 
L 101.620583 2.587536 
L 105.108083 2.536984 
L 108.595583 2.525927 
L 112.083083 2.526239 
L 115.570583 2.535326 
L 119.058083 2.545617 
L 122.545583 2.561385 
L 126.033083 2.570142 
L 129.520583 2.577896 
" clip-path="url(#pf73890c8fd)" style="fill: none; stroke-dasharray: 1.85,0.8; stroke-dashoffset: 0; stroke: #808080; stroke-width: 0.5"/>
   </g>
   <g id="line2d_63">
    <path d="M 17.920583 2.587836 
L 21.408083 2.584428 
L 24.895583 2.580404 
L 28.383083 2.566801 
L 31.870583 2.566873 
L 35.358083 2.597224 
L 38.845583 2.599223 
L 42.333083 2.568953 
L 45.820583 2.531595 
L 49.308083 2.522801 
L 52.795583 2.552262 
L 56.283083 2.676679 
L 59.770583 3.233188 
L 63.258083 4.180666 
L 66.745583 3.620137 
L 70.233083 4.278965 
L 73.720583 4.89737 
L 77.208083 4.278965 
L 80.695583 3.620137 
L 84.183083 4.180666 
L 87.670583 3.233188 
L 91.158083 2.676679 
L 94.645583 2.552262 
L 98.133083 2.522801 
L 101.620583 2.531595 
L 105.108083 2.568953 
L 108.595583 2.599223 
L 112.083083 2.597224 
L 115.570583 2.566873 
L 119.058083 2.566801 
L 122.545583 2.580404 
L 126.033083 2.584428 
L 129.520583 2.587836 
" clip-path="url(#pf73890c8fd)" style="fill: none; stroke-dasharray: 1.85,0.8; stroke-dashoffset: 0; stroke: #808080; stroke-width: 0.5"/>
   </g>
   <g id="line2d_64">
    <path d="M 17.920583 2.584144 
L 21.408083 2.575477 
L 24.895583 2.558859 
L 28.383083 2.539309 
L 31.870583 2.551579 
L 35.358083 2.595342 
L 38.845583 2.615009 
L 42.333083 2.617315 
L 45.820583 2.5878 
L 49.308083 2.537248 
L 52.795583 2.526191 
L 56.283083 2.526503 
L 59.770583 2.53559 
L 63.258083 2.545881 
L 66.745583 2.561649 
L 70.233083 2.570406 
L 73.720583 2.57816 
L 77.208083 2.570406 
L 80.695583 2.561649 
L 84.183083 2.545881 
L 87.670583 2.53559 
L 91.158083 2.526503 
L 94.645583 2.526191 
L 98.133083 2.537248 
L 101.620583 2.5878 
L 105.108083 2.617315 
L 108.595583 2.615009 
L 112.083083 2.595342 
L 115.570583 2.551579 
L 119.058083 2.539309 
L 122.545583 2.558859 
L 126.033083 2.575477 
L 129.520583 2.584144 
" clip-path="url(#pf73890c8fd)" style="fill: none; stroke-dasharray: 1.85,0.8; stroke-dashoffset: 0; stroke: #808080; stroke-width: 0.5"/>
   </g>
   <g id="line2d_65">
    <path d="M 17.920583 2.461978 
L 21.408083 2.524489 
L 24.895583 2.572085 
L 28.383083 2.518094 
L 31.870583 2.270164 
M 49.308083 1.811609 
L 52.795583 1.835027 
L 56.283083 1.873475 
L 59.770583 1.967512 
L 63.258083 1.991906 
L 66.745583 2.094281 
L 70.233083 2.116313 
L 73.720583 2.140913 
L 77.208083 2.116313 
L 80.695583 2.094281 
L 84.183083 1.991906 
L 87.670583 1.967512 
L 91.158083 1.873475 
L 94.645583 1.835027 
L 98.133083 1.811609 
L 101.620583 1.785513 
M 119.058083 2.518094 
L 122.545583 2.572085 
L 126.033083 2.524489 
L 129.520583 2.461978 
" clip-path="url(#pf73890c8fd)" style="fill: none; stroke-dasharray: 1.85,0.8; stroke-dashoffset: 0; stroke: #808080; stroke-width: 0.5"/>
   </g>
   <g id="line2d_66">
    <path d="M 17.920583 2.497477 
L 21.408083 2.480506 
L 24.895583 2.472314 
L 28.383083 2.492463 
L 31.870583 2.490091 
L 35.358083 2.498913 
L 38.845583 2.500144 
L 42.333083 2.496903 
L 45.820583 2.507021 
L 49.308083 2.504035 
L 52.795583 2.493843 
L 56.283083 2.484185 
L 59.770583 2.433333 
L 63.258083 2.386599 
L 66.745583 2.319469 
L 70.233083 2.287594 
L 73.720583 2.252869 
L 77.208083 2.287594 
L 80.695583 2.319469 
L 84.183083 2.386599 
L 87.670583 2.433333 
L 91.158083 2.484185 
L 94.645583 2.493843 
L 98.133083 2.504035 
L 101.620583 2.507021 
L 105.108083 2.496903 
L 108.595583 2.500144 
L 112.083083 2.498913 
L 115.570583 2.490091 
L 119.058083 2.492463 
L 122.545583 2.472314 
L 126.033083 2.480506 
L 129.520583 2.497477 
" clip-path="url(#pf73890c8fd)" style="fill: none; stroke-dasharray: 1.85,0.8; stroke-dashoffset: 0; stroke: #808080; stroke-width: 0.5"/>
   </g>
   <g id="line2d_67">
    <path d="M 17.920583 2.501528 
L 21.408083 2.492853 
L 24.895583 2.490434 
L 28.383083 2.494624 
L 31.870583 2.495217 
L 35.358083 2.495655 
L 38.845583 2.492035 
L 42.333083 2.491823 
L 45.820583 2.498815 
L 49.308083 2.498745 
L 52.795583 2.453309 
L 56.283083 2.40107 
L 59.770583 2.320654 
L 63.258083 2.295269 
L 66.745583 2.208976 
L 70.233083 2.185519 
L 73.720583 2.162527 
L 77.208083 2.185519 
L 80.695583 2.208976 
L 84.183083 2.295269 
L 87.670583 2.320654 
L 91.158083 2.40107 
L 94.645583 2.453309 
L 98.133083 2.498745 
L 101.620583 2.498815 
L 105.108083 2.491823 
L 108.595583 2.492035 
L 112.083083 2.495655 
L 115.570583 2.495217 
L 119.058083 2.494624 
L 122.545583 2.490434 
L 126.033083 2.492853 
L 129.520583 2.501528 
" clip-path="url(#pf73890c8fd)" style="fill: none; stroke-dasharray: 1.85,0.8; stroke-dashoffset: 0; stroke: #808080; stroke-width: 0.5"/>
   </g>
   <g id="line2d_68">
    <path d="M 17.920583 9.66737 
L 21.408083 9.66737 
L 24.895583 9.66737 
L 28.383083 9.66737 
L 31.870583 9.66737 
L 35.358083 9.66737 
L 38.845583 9.66737 
L 42.333083 9.66737 
L 45.820583 9.66737 
L 49.308083 9.66737 
L 52.795583 9.66737 
L 56.283083 9.66737 
L 59.770583 9.66737 
L 63.258083 9.66737 
L 66.745583 9.66737 
L 70.233083 9.66737 
L 73.720583 9.66737 
L 77.208083 9.66737 
L 80.695583 9.66737 
L 84.183083 9.66737 
L 87.670583 9.66737 
L 91.158083 9.66737 
L 94.645583 9.66737 
L 98.133083 9.66737 
L 101.620583 9.66737 
L 105.108083 9.66737 
L 108.595583 9.66737 
L 112.083083 9.66737 
L 115.570583 9.66737 
L 119.058083 9.66737 
L 122.545583 9.66737 
L 126.033083 9.66737 
L 129.520583 9.66737 
" clip-path="url(#pf73890c8fd)" style="fill: none; stroke-dasharray: 3.2,0.8,0.5,0.8; stroke-dashoffset: 0; stroke: #008000; stroke-width: 0.5"/>
   </g>
   <g id="line2d_69">
    <path clip-path="url(#pf73890c8fd)" style="fill: none; stroke-dasharray: 3.2,0.8,0.5,0.8; stroke-dashoffset: 0; stroke: #008000; stroke-width: 0.5"/>
   </g>
   <g id="patch_3">
    <path d="M 17.920583 59.16737 
L 17.920583 3.72737 
" style="fill: none; stroke: #000000; stroke-width: 0.4; stroke-linejoin: miter; stroke-linecap: square"/>
   </g>
   <g id="patch_4">
    <path d="M 129.520583 59.16737 
L 129.520583 3.72737 
" style="fill: none; stroke: #000000; stroke-width: 0.4; stroke-linejoin: miter; stroke-linecap: square"/>
   </g>
   <g id="patch_5">
    <path d="M 17.920583 59.16737 
L 129.520583 59.16737 
" style="fill: none; stroke: #000000; stroke-width: 0.4; stroke-linejoin: miter; stroke-linecap: square"/>
   </g>
   <g id="patch_6">
    <path d="M 17.920583 3.72737 
L 129.520583 3.72737 
" style="fill: none; stroke: #000000; stroke-width: 0.4; stroke-linejoin: miter; stroke-linecap: square"/>
   </g>
  </g>
 </g>
 <defs>
  <clipPath id="pf73890c8fd">
   <rect x="17.920583" y="3.72737" width="111.6" height="55.44"/>
  </clipPath>
 </defs>
</svg>
