<?xml version="1.0" encoding="utf-8" standalone="no"?>
<!DOCTYPE svg PUBLIC "-//W3C//DTD SVG 1.1//EN"
  "http://www.w3.org/Graphics/SVG/1.1/DTD/svg11.dtd">
<svg xmlns:xlink="http://www.w3.org/1999/xlink" width="202.512009pt" height="73.224426pt" viewBox="0 0 202.512009 73.224426" xmlns="http://www.w3.org/2000/svg" version="1.1">
 <metadata>
  <rdf:RDF xmlns:dc="http://purl.org/dc/elements/1.1/" xmlns:cc="http://creativecommons.org/ns#" xmlns:rdf="http://www.w3.org/1999/02/22-rdf-syntax-ns#">
   <cc:Work>
    <dc:type rdf:resource="http://purl.org/dc/dcmitype/StillImage"/>
    <dc:date>2024-08-06T22:49:56.716266</dc:date>
    <dc:format>image/svg+xml</dc:format>
    <dc:creator>
     <cc:Agent>
      <dc:title>Matplotlib v3.8.4, https://matplotlib.org/</dc:title>
     </cc:Agent>
    </dc:creator>
   </cc:Work>
  </rdf:RDF>
 </metadata>
 <defs>
  <style type="text/css">*{stroke-linejoin: round; stroke-linecap: butt}</style>
 </defs>
 <g id="figure_1">
  <g id="patch_1">
   <path d="M 0 73.224426 
L 202.512009 73.224426 
L 202.512009 0 
L 0 0 
z
" style="fill: #ffffff"/>
  </g>
  <g id="axes_1">
   <g id="patch_2">
    <path d="M 17.920583 59.04 
L 196.480583 59.04 
L 196.480583 3.6 
L 17.920583 3.6 
z
" style="fill: #ffffff"/>
   </g>
   <g id="matplotlib.axis_1">
    <g id="xtick_1">
     <g id="line2d_1">
      <defs>
       <path id="ma03d77632a" d="M 0 0 
L 0 -2.5 
" style="stroke: #000000; stroke-width: 0.6"/>
      </defs>
      <g>
       <use xlink:href="#ma03d77632a" x="17.920583" y="59.04" style="stroke: #000000; stroke-width: 0.6"/>
      </g>
     </g>
     <g id="text_1">
      <!-- 0 -->
      <g transform="translate(15.803522 68.074741) scale(0.08 -0.08)">
       <defs>
        <path id="LMSans17-Regular-30" d="M 2758 2075 
C 2758 2441 2752 3122 2490 3648 
C 2227 4153 1805 4288 1504 4288 
C 1069 4288 698 4031 506 3622 
C 301 3193 243 2749 243 2075 
C 243 1612 262 1046 493 551 
C 755 6 1197 -128 1498 -128 
C 1894 -128 2278 83 2496 525 
C 2720 988 2758 1496 2758 2075 
z
M 2272 2145 
C 2272 1547 2272 262 1498 262 
C 1011 262 864 821 819 1008 
C 742 1329 730 1637 730 2145 
C 730 2544 730 2994 851 3347 
C 998 3756 1254 3897 1498 3897 
C 1971 3897 2125 3423 2176 3257 
C 2272 2917 2272 2518 2272 2145 
z
" transform="scale(0.015625)"/>
       </defs>
       <use xlink:href="#LMSans17-Regular-30" transform="scale(0.996264)"/>
      </g>
     </g>
    </g>
    <g id="xtick_2">
     <g id="line2d_2">
      <g>
       <use xlink:href="#ma03d77632a" x="62.560583" y="59.04" style="stroke: #000000; stroke-width: 0.6"/>
      </g>
     </g>
    </g>
    <g id="xtick_3">
     <g id="line2d_3">
      <g>
       <use xlink:href="#ma03d77632a" x="107.200583" y="59.04" style="stroke: #000000; stroke-width: 0.6"/>
      </g>
     </g>
    </g>
    <g id="xtick_4">
     <g id="line2d_4">
      <g>
       <use xlink:href="#ma03d77632a" x="151.840583" y="59.04" style="stroke: #000000; stroke-width: 0.6"/>
      </g>
     </g>
    </g>
    <g id="xtick_5">
     <g id="line2d_5">
      <g>
       <use xlink:href="#ma03d77632a" x="196.480583" y="59.04" style="stroke: #000000; stroke-width: 0.6"/>
      </g>
     </g>
     <g id="text_2">
      <!-- $\pi$ -->
      <g transform="translate(194.049157 68.074741) scale(0.08 -0.08)">
       <defs>
        <path id="LMMathItalic12-Regular-19" d="M 3539 2611 
C 3539 2752 3418 2752 3302 2752 
L 1197 2752 
C 1050 2752 832 2752 538 2438 
C 371 2253 166 1914 166 1876 
C 166 1838 198 1825 237 1825 
C 282 1825 288 1844 320 1883 
C 653 2406 986 2406 1146 2406 
L 1510 2406 
C 1370 1927 1210 1372 685 255 
C 634 153 634 140 634 101 
C 634 -33 749 -64 806 -64 
C 992 -64 1043 101 1120 370 
C 1222 695 1222 708 1286 963 
L 1658 2406 
L 2381 2406 
C 2208 1691 2099 1225 2099 714 
C 2099 625 2099 -64 2362 -64 
C 2496 -64 2611 57 2611 165 
C 2611 197 2611 210 2566 306 
C 2394 746 2394 1295 2394 1340 
C 2394 1378 2394 1831 2528 2406 
L 3245 2406 
C 3328 2406 3539 2406 3539 2611 
z
" transform="scale(0.015625)"/>
       </defs>
       <use xlink:href="#LMMathItalic12-Regular-19" transform="scale(0.996264)"/>
      </g>
     </g>
    </g>
    <g id="text_3">
     <!-- $\gamma$ -->
     <g transform="translate(105.019751 67.159106) scale(0.08 -0.08)">
      <defs>
       <path id="LMMathItalic12-Regular-d" d="M 3405 2701 
C 3405 2701 3398 2752 3341 2752 
C 3341 2752 3296 2752 3283 2726 
C 3270 2714 3046 2282 2854 1850 
C 2758 1634 2630 1348 2419 789 
C 2406 1100 2394 1589 2150 2161 
C 2022 2479 1805 2816 1338 2816 
C 550 2816 122 1818 122 1653 
C 122 1596 166 1596 186 1596 
C 243 1596 243 1609 275 1691 
C 410 2085 819 2396 1261 2396 
C 2150 2396 2278 1412 2278 783 
C 2278 383 2234 249 2195 122 
C 2074 -271 1862 -1059 1862 -1237 
C 1862 -1287 1882 -1344 1933 -1344 
C 2029 -1344 2086 -1135 2157 -881 
C 2310 -322 2349 -43 2381 211 
C 2400 364 2765 1412 3270 2409 
C 3315 2510 3405 2682 3405 2701 
z
" transform="scale(0.015625)"/>
      </defs>
      <use xlink:href="#LMMathItalic12-Regular-d" transform="scale(0.996264)"/>
     </g>
    </g>
   </g>
   <g id="matplotlib.axis_2">
    <g id="ytick_1">
     <g id="line2d_6">
      <defs>
       <path id="m9c91e026c7" d="M 0 0 
L 2.5 0 
" style="stroke: #000000; stroke-width: 0.6"/>
      </defs>
      <g>
       <use xlink:href="#m9c91e026c7" x="17.920583" y="59.04" style="stroke: #000000; stroke-width: 0.6"/>
      </g>
     </g>
     <g id="text_4">
      <!-- 0 -->
      <g transform="translate(10.186461 61.80737) scale(0.08 -0.08)">
       <use xlink:href="#LMSans17-Regular-30" transform="scale(0.996264)"/>
      </g>
     </g>
    </g>
    <g id="ytick_2">
     <g id="line2d_7">
      <g>
       <use xlink:href="#m9c91e026c7" x="17.920583" y="15.271579" style="stroke: #000000; stroke-width: 0.6"/>
      </g>
     </g>
     <g id="text_5">
      <!-- 0.3 -->
      <g transform="translate(3.6 18.038949) scale(0.08 -0.08)">
       <defs>
        <path id="LMSans17-Regular-2e" d="M 1088 0 
L 1088 512 
L 576 512 
L 576 0 
L 1088 0 
z
" transform="scale(0.015625)"/>
        <path id="LMSans17-Regular-33" d="M 2752 1164 
C 2752 1670 2400 2092 1920 2252 
C 2304 2463 2586 2860 2586 3321 
C 2586 3859 2093 4288 1491 4288 
C 941 4288 512 3948 333 3583 
C 378 3519 493 3334 550 3238 
C 691 3615 1056 3897 1485 3897 
C 1843 3897 2080 3660 2080 3321 
C 2080 2969 1856 2585 1478 2496 
C 1453 2483 1056 2444 1005 2438 
L 1005 2048 
L 1440 2048 
C 2042 2048 2214 1514 2214 1143 
C 2214 640 1933 268 1472 268 
C 1114 268 608 434 320 902 
C 275 678 275 665 250 512 
C 550 89 1037 -128 1485 -128 
C 2214 -128 2752 464 2752 1136 
L 2752 1164 
z
" transform="scale(0.015625)"/>
       </defs>
       <use xlink:href="#LMSans17-Regular-30" transform="scale(0.996264)"/>
       <use xlink:href="#LMSans17-Regular-2e" transform="translate(46.844004 0) scale(0.996264)"/>
       <use xlink:href="#LMSans17-Regular-33" transform="translate(72.869166 0) scale(0.996264)"/>
      </g>
     </g>
    </g>
    <g id="text_6">
     <!-- $\omega_n$ -->
     <g transform="translate(10.050315 35.592484) rotate(-90) scale(0.08 -0.08)">
      <defs>
       <path id="LMMathItalic12-Regular-21" d="M 3642 1533 
C 3712 1807 3795 2133 3795 2394 
C 3795 2548 3763 2682 3680 2765 
C 3642 2797 3590 2816 3539 2816 
C 3469 2816 3398 2784 3341 2726 
C 3283 2669 3251 2599 3251 2535 
C 3251 2484 3270 2433 3309 2394 
C 3462 2254 3539 2050 3539 1820 
C 3539 1737 3526 1647 3507 1558 
C 3360 964 3002 352 2483 352 
C 2112 352 1907 620 1862 977 
C 1939 1156 2003 1347 2048 1533 
C 2061 1590 2074 1654 2074 1711 
C 2074 1788 2048 1845 1971 1845 
C 1856 1845 1805 1692 1773 1558 
C 1722 1367 1690 1175 1683 990 
C 1472 626 1165 352 800 352 
C 416 352 250 671 250 1073 
C 250 1220 275 1373 314 1533 
C 410 1916 627 2279 877 2624 
C 890 2650 896 2669 896 2694 
C 896 2726 883 2758 851 2777 
C 832 2784 806 2784 806 2784 
C 768 2784 730 2765 704 2733 
C 442 2362 275 1960 173 1558 
C 109 1303 77 1047 77 818 
C 77 320 250 -64 723 -64 
C 1133 -64 1459 236 1702 645 
C 1760 230 1971 -64 2406 -64 
C 3066 -64 3450 760 3642 1533 
z
" transform="scale(0.015625)"/>
       <path id="LMSans17-Oblique-6e" d="M 2618 12 
L 3014 1881 
C 3098 2284 3117 2816 2394 2816 
C 1984 2816 1670 2604 1446 2387 
L 1530 2783 
L 1062 2783 
L 474 0 
L 960 0 
L 1286 1556 
C 1376 1962 1626 2425 2061 2425 
C 2624 2425 2566 2045 2515 1827 
L 2131 0 
L 2618 12 
z
" transform="scale(0.015625)"/>
      </defs>
      <use xlink:href="#LMMathItalic12-Regular-21" transform="scale(0.996264)"/>
      <use xlink:href="#LMSans17-Oblique-6e" transform="translate(60.743753 -14.943915) scale(0.697382)"/>
     </g>
    </g>
   </g>
   <g id="line2d_8">
    <path d="M 17.920583 33.816151 
L 23.500583 33.876198 
L 29.080583 33.851907 
L 34.660583 32.319045 
L 40.240583 32.794836 
L 45.820583 31.966078 
L 51.400583 31.228058 
L 56.980583 30.807772 
L 62.560583 30.680024 
L 68.140583 30.580301 
L 73.720583 30.24095 
L 79.300583 29.570807 
L 84.880583 26.829607 
L 90.460583 27.172768 
L 96.040583 28.012505 
L 101.620583 28.017685 
L 107.200583 27.170439 
L 112.780583 28.017685 
L 118.360583 28.012505 
L 123.940583 27.172768 
L 129.520583 26.829607 
L 135.100583 29.570807 
L 140.680583 30.24095 
L 146.260583 30.580301 
L 151.840583 30.680024 
L 157.420583 30.807772 
L 163.000583 31.228058 
L 168.580583 31.966078 
L 174.160583 32.794836 
L 179.740583 32.319045 
L 185.320583 33.851907 
L 190.900583 33.876198 
L 196.480583 33.816151 
" clip-path="url(#p2ad9f55659)" style="fill: none; stroke: #0000ff; stroke-width: 0.5; stroke-linecap: square"/>
   </g>
   <g id="line2d_9">
    <path clip-path="url(#p2ad9f55659)" style="fill: none; stroke-dasharray: 1.85,0.8; stroke-dashoffset: 0; stroke: #808080; stroke-width: 0.5"/>
   </g>
   <g id="line2d_10">
    <path clip-path="url(#p2ad9f55659)" style="fill: none; stroke-dasharray: 1.85,0.8; stroke-dashoffset: 0; stroke: #808080; stroke-width: 0.5"/>
   </g>
   <g id="line2d_11">
    <path d="M 17.920583 28.065653 
L 23.500583 27.260726 
L 29.080583 27.287048 
L 34.660583 28.3938 
L 40.240583 28.675644 
L 45.820583 26.1212 
L 51.400583 25.688034 
L 56.980583 25.347907 
L 62.560583 25.102647 
L 68.140583 24.79478 
L 73.720583 24.147552 
L 79.300583 23.006039 
L 84.880583 21.445485 
L 90.460583 21.719122 
L 96.040583 19.43212 
L 101.620583 19.445338 
L 107.200583 19.516893 
L 112.780583 19.445338 
L 118.360583 19.43212 
L 123.940583 21.719122 
L 129.520583 21.445485 
L 135.100583 23.006039 
L 140.680583 24.147552 
L 146.260583 24.79478 
L 151.840583 25.102647 
L 157.420583 25.347907 
L 163.000583 25.688034 
L 168.580583 26.1212 
L 174.160583 28.675644 
L 179.740583 28.3938 
L 185.320583 27.287048 
L 190.900583 27.260726 
L 196.480583 28.065653 
" clip-path="url(#p2ad9f55659)" style="fill: none; stroke-dasharray: 1.85,0.8; stroke-dashoffset: 0; stroke: #ff0000; stroke-width: 0.5"/>
   </g>
   <g id="line2d_12">
    <path clip-path="url(#p2ad9f55659)" style="fill: none; stroke-dasharray: 1.85,0.8; stroke-dashoffset: 0; stroke: #808080; stroke-width: 0.5"/>
   </g>
   <g id="line2d_13">
    <path d="M 17.920583 27.17073 
L 23.500583 28.017977 
L 29.080583 28.012797 
L 34.660583 27.17306 
L 40.240583 26.829899 
L 45.820583 29.571099 
L 51.400583 30.241242 
L 56.980583 30.580593 
L 62.560583 30.680316 
L 68.140583 30.808064 
L 73.720583 31.22835 
L 79.300583 31.96637 
L 84.880583 32.795128 
L 90.460583 32.319337 
L 96.040583 33.852199 
L 101.620583 33.876489 
L 107.200583 33.816443 
L 112.780583 33.876489 
L 118.360583 33.852199 
L 123.940583 32.319337 
L 129.520583 32.795128 
L 135.100583 31.96637 
L 140.680583 31.22835 
L 146.260583 30.808064 
L 151.840583 30.680316 
L 157.420583 30.580593 
L 163.000583 30.241242 
L 168.580583 29.571099 
L 174.160583 26.829899 
L 179.740583 27.17306 
L 185.320583 28.012797 
L 190.900583 28.017977 
L 196.480583 27.17073 
" clip-path="url(#p2ad9f55659)" style="fill: none; stroke: #ff0000; stroke-width: 0.5; stroke-linecap: square"/>
   </g>
   <g id="line2d_14">
    <path clip-path="url(#p2ad9f55659)" style="fill: none; stroke-dasharray: 1.85,0.8; stroke-dashoffset: 0; stroke: #808080; stroke-width: 0.5"/>
   </g>
   <g id="line2d_15">
    <path d="M 17.920583 19.516602 
L 23.500583 19.445046 
L 29.080583 19.431829 
L 34.660583 21.71883 
L 40.240583 21.445194 
L 45.820583 23.005747 
L 51.400583 24.14726 
L 56.980583 24.794489 
L 62.560583 25.102355 
L 68.140583 25.347616 
L 73.720583 25.687742 
L 79.300583 26.120908 
L 84.880583 28.675352 
L 90.460583 28.393509 
L 96.040583 27.286756 
L 101.620583 27.260435 
L 107.200583 28.065362 
L 112.780583 27.260435 
L 118.360583 27.286756 
L 123.940583 28.393509 
L 129.520583 28.675352 
L 135.100583 26.120908 
L 140.680583 25.687742 
L 146.260583 25.347616 
L 151.840583 25.102355 
L 157.420583 24.794489 
L 163.000583 24.14726 
L 168.580583 23.005747 
L 174.160583 21.445194 
L 179.740583 21.71883 
L 185.320583 19.431829 
L 190.900583 19.445046 
L 196.480583 19.516602 
" clip-path="url(#p2ad9f55659)" style="fill: none; stroke-dasharray: 1.85,0.8; stroke-dashoffset: 0; stroke: #0000ff; stroke-width: 0.5"/>
   </g>
   <g id="line2d_16">
    <path d="M 17.920583 7.674771 
L 23.500583 7.673047 
L 29.080583 7.669765 
L 34.660583 7.647998 
L 40.240583 7.637937 
L 45.820583 7.621279 
L 51.400583 7.624035 
L 56.980583 7.61886 
L 62.560583 7.595918 
L 68.140583 7.553509 
L 73.720583 7.502865 
L 79.300583 7.462715 
L 84.880583 7.481868 
L 90.460583 7.514836 
L 96.040583 7.490649 
L 101.620583 7.455495 
L 107.200583 7.41097 
L 112.780583 7.455495 
L 118.360583 7.490649 
L 123.940583 7.514836 
L 129.520583 7.481868 
L 135.100583 7.462715 
L 140.680583 7.502865 
L 146.260583 7.553509 
L 151.840583 7.595918 
L 157.420583 7.61886 
L 163.000583 7.624035 
L 168.580583 7.621279 
L 174.160583 7.637937 
L 179.740583 7.647998 
L 185.320583 7.669765 
L 190.900583 7.673047 
L 196.480583 7.674771 
" clip-path="url(#p2ad9f55659)" style="fill: none; stroke-dasharray: 1.85,0.8; stroke-dashoffset: 0; stroke: #808080; stroke-width: 0.5"/>
   </g>
   <g id="line2d_17">
    <path d="M 17.920583 7.717668 
L 23.500583 7.715348 
L 29.080583 7.711542 
L 34.660583 7.704339 
L 40.240583 7.681536 
L 45.820583 7.606186 
L 51.400583 7.553737 
L 56.980583 7.523036 
L 62.560583 7.520942 
L 68.140583 7.536187 
L 73.720583 7.551069 
L 79.300583 7.546781 
L 84.880583 7.474046 
L 90.460583 7.439859 
L 96.040583 7.417269 
L 101.620583 7.453339 
L 107.200583 7.509592 
L 112.780583 7.453339 
L 118.360583 7.417269 
L 123.940583 7.439859 
L 129.520583 7.474046 
L 135.100583 7.546781 
L 140.680583 7.551069 
L 146.260583 7.536187 
L 151.840583 7.520942 
L 157.420583 7.523036 
L 163.000583 7.553737 
L 168.580583 7.606186 
L 174.160583 7.681536 
L 179.740583 7.704339 
L 185.320583 7.711542 
L 190.900583 7.715348 
L 196.480583 7.717668 
" clip-path="url(#p2ad9f55659)" style="fill: none; stroke-dasharray: 1.85,0.8; stroke-dashoffset: 0; stroke: #808080; stroke-width: 0.5"/>
   </g>
   <g id="line2d_18">
    <path d="M 17.920583 7.509884 
L 23.500583 7.453631 
L 29.080583 7.417561 
L 34.660583 7.440151 
L 40.240583 7.474337 
L 45.820583 7.547073 
L 51.400583 7.551361 
L 56.980583 7.536479 
L 62.560583 7.521234 
L 68.140583 7.523328 
L 73.720583 7.554028 
L 79.300583 7.606478 
L 84.880583 7.681827 
L 90.460583 7.70463 
L 96.040583 7.711834 
L 101.620583 7.71564 
L 107.200583 7.71796 
L 112.780583 7.71564 
L 118.360583 7.711834 
L 123.940583 7.70463 
L 129.520583 7.681827 
L 135.100583 7.606478 
L 140.680583 7.554028 
L 146.260583 7.523328 
L 151.840583 7.521234 
L 157.420583 7.536479 
L 163.000583 7.551361 
L 168.580583 7.547073 
L 174.160583 7.474337 
L 179.740583 7.440151 
L 185.320583 7.417561 
L 190.900583 7.453631 
L 196.480583 7.509884 
" clip-path="url(#p2ad9f55659)" style="fill: none; stroke-dasharray: 1.85,0.8; stroke-dashoffset: 0; stroke: #808080; stroke-width: 0.5"/>
   </g>
   <g id="line2d_19">
    <path d="M 17.920583 7.411262 
L 23.500583 7.455786 
L 29.080583 7.490941 
L 34.660583 7.515128 
L 40.240583 7.48216 
L 45.820583 7.463007 
L 51.400583 7.503157 
L 56.980583 7.553801 
L 62.560583 7.59621 
L 68.140583 7.619151 
L 73.720583 7.624327 
L 79.300583 7.621571 
L 84.880583 7.638229 
L 90.460583 7.648289 
L 96.040583 7.670057 
L 101.620583 7.673339 
L 107.200583 7.675062 
L 112.780583 7.673339 
L 118.360583 7.670057 
L 123.940583 7.648289 
L 129.520583 7.638229 
L 135.100583 7.621571 
L 140.680583 7.624327 
L 146.260583 7.619151 
L 151.840583 7.59621 
L 157.420583 7.553801 
L 163.000583 7.503157 
L 168.580583 7.463007 
L 174.160583 7.48216 
L 179.740583 7.515128 
L 185.320583 7.490941 
L 190.900583 7.455786 
L 196.480583 7.411262 
" clip-path="url(#p2ad9f55659)" style="fill: none; stroke-dasharray: 1.85,0.8; stroke-dashoffset: 0; stroke: #808080; stroke-width: 0.5"/>
   </g>
   <g id="line2d_20">
    <path d="M 17.920583 5.572397 
L 23.500583 5.552333 
L 29.080583 5.529053 
L 34.660583 5.437676 
L 40.240583 5.401006 
L 45.820583 5.292352 
L 51.400583 5.23105 
L 56.980583 5.177826 
L 62.560583 5.130699 
L 68.140583 5.092095 
L 73.720583 5.053165 
L 79.300583 4.994409 
L 84.880583 4.858345 
L 90.460583 4.818126 
L 96.040583 4.738557 
L 101.620583 4.790218 
L 107.200583 4.84602 
L 112.780583 4.790218 
L 118.360583 4.738557 
L 123.940583 4.818126 
L 129.520583 4.858345 
L 135.100583 4.994409 
L 140.680583 5.053165 
L 146.260583 5.092095 
L 151.840583 5.130699 
L 157.420583 5.177826 
L 163.000583 5.23105 
L 168.580583 5.292352 
L 174.160583 5.401006 
L 179.740583 5.437676 
L 185.320583 5.529053 
L 190.900583 5.552333 
L 196.480583 5.572397 
" clip-path="url(#p2ad9f55659)" style="fill: none; stroke-dasharray: 1.85,0.8; stroke-dashoffset: 0; stroke: #808080; stroke-width: 0.5"/>
   </g>
   <g id="line2d_21">
    <path d="M 17.920583 5.539291 
L 23.500583 5.510846 
L 29.080583 5.476375 
L 34.660583 5.407594 
L 40.240583 5.358985 
L 45.820583 5.313205 
L 51.400583 5.299557 
L 56.980583 5.244794 
L 62.560583 5.152717 
L 68.140583 5.045726 
L 73.720583 4.940077 
L 79.300583 4.853282 
L 84.880583 4.861886 
L 90.460583 4.905343 
L 96.040583 4.828592 
L 101.620583 4.77973 
L 107.200583 4.692991 
L 112.780583 4.77973 
L 118.360583 4.828592 
L 123.940583 4.905343 
L 129.520583 4.861886 
L 135.100583 4.853282 
L 140.680583 4.940077 
L 146.260583 5.045726 
L 151.840583 5.152717 
L 157.420583 5.244794 
L 163.000583 5.299557 
L 168.580583 5.313205 
L 174.160583 5.358985 
L 179.740583 5.407594 
L 185.320583 5.476375 
L 190.900583 5.510846 
L 196.480583 5.539291 
" clip-path="url(#p2ad9f55659)" style="fill: none; stroke-dasharray: 1.85,0.8; stroke-dashoffset: 0; stroke: #808080; stroke-width: 0.5"/>
   </g>
   <g id="line2d_22">
    <path d="M 17.920583 4.846312 
L 23.500583 4.79051 
L 29.080583 4.738849 
L 34.660583 4.818418 
L 40.240583 4.858637 
L 45.820583 4.994701 
L 51.400583 5.053457 
L 56.980583 5.092387 
L 62.560583 5.130991 
L 68.140583 5.178118 
L 73.720583 5.231342 
L 79.300583 5.292643 
L 84.880583 5.401298 
L 90.460583 5.437968 
L 96.040583 5.529345 
L 101.620583 5.552625 
L 107.200583 5.572689 
L 112.780583 5.552625 
L 118.360583 5.529345 
L 123.940583 5.437968 
L 129.520583 5.401298 
L 135.100583 5.292643 
L 140.680583 5.231342 
L 146.260583 5.178118 
L 151.840583 5.130991 
L 157.420583 5.092387 
L 163.000583 5.053457 
L 168.580583 4.994701 
L 174.160583 4.858637 
L 179.740583 4.818418 
L 185.320583 4.738849 
L 190.900583 4.79051 
L 196.480583 4.846312 
" clip-path="url(#p2ad9f55659)" style="fill: none; stroke-dasharray: 1.85,0.8; stroke-dashoffset: 0; stroke: #808080; stroke-width: 0.5"/>
   </g>
   <g id="line2d_23">
    <path d="M 17.920583 4.693283 
L 23.500583 4.780022 
L 29.080583 4.828884 
L 34.660583 4.905635 
L 40.240583 4.862178 
L 45.820583 4.853573 
L 51.400583 4.940369 
L 56.980583 5.046018 
L 62.560583 5.153009 
L 68.140583 5.245086 
L 73.720583 5.299849 
L 79.300583 5.313496 
L 84.880583 5.359277 
L 90.460583 5.407885 
L 96.040583 5.476667 
L 101.620583 5.511138 
L 107.200583 5.539583 
L 112.780583 5.511138 
L 118.360583 5.476667 
L 123.940583 5.407885 
L 129.520583 5.359277 
L 135.100583 5.313496 
L 140.680583 5.299849 
L 146.260583 5.245086 
L 151.840583 5.153009 
L 157.420583 5.046018 
L 163.000583 4.940369 
L 168.580583 4.853573 
L 174.160583 4.862178 
L 179.740583 4.905635 
L 185.320583 4.828884 
L 190.900583 4.780022 
L 196.480583 4.693283 
" clip-path="url(#p2ad9f55659)" style="fill: none; stroke-dasharray: 1.85,0.8; stroke-dashoffset: 0; stroke: #808080; stroke-width: 0.5"/>
   </g>
   <g id="line2d_24">
    <path clip-path="url(#p2ad9f55659)" style="fill: none; stroke-dasharray: 1.85,0.8; stroke-dashoffset: 0; stroke: #808080; stroke-width: 0.5"/>
   </g>
   <g id="line2d_25">
    <path clip-path="url(#p2ad9f55659)" style="fill: none; stroke-dasharray: 1.85,0.8; stroke-dashoffset: 0; stroke: #808080; stroke-width: 0.5"/>
   </g>
   <g id="line2d_26">
    <path clip-path="url(#p2ad9f55659)" style="fill: none; stroke-dasharray: 1.85,0.8; stroke-dashoffset: 0; stroke: #808080; stroke-width: 0.5"/>
   </g>
   <g id="line2d_27">
    <path clip-path="url(#p2ad9f55659)" style="fill: none; stroke-dasharray: 1.85,0.8; stroke-dashoffset: 0; stroke: #808080; stroke-width: 0.5"/>
   </g>
   <g id="line2d_28">
    <path d="M 17.920583 3.35703 
L 23.500583 3.356927 
L 29.080583 3.352672 
L 34.660583 3.474544 
L 40.240583 3.375647 
L 45.820583 3.05042 
L 51.400583 2.78687 
L 56.980583 2.668894 
L 62.560583 2.739579 
L 68.140583 2.904992 
L 73.720583 3.071412 
L 79.300583 3.158159 
L 84.880583 2.923451 
L 90.460583 2.761736 
L 96.040583 2.810935 
L 101.620583 2.981872 
L 107.200583 3.252075 
L 112.780583 2.981872 
L 118.360583 2.810935 
L 123.940583 2.761736 
L 129.520583 2.923451 
L 135.100583 3.158159 
L 140.680583 3.071412 
L 146.260583 2.904992 
L 151.840583 2.739579 
L 157.420583 2.668894 
L 163.000583 2.78687 
L 168.580583 3.05042 
L 174.160583 3.375647 
L 179.740583 3.474544 
L 185.320583 3.352672 
L 190.900583 3.356927 
L 196.480583 3.35703 
" clip-path="url(#p2ad9f55659)" style="fill: none; stroke-dasharray: 1.85,0.8; stroke-dashoffset: 0; stroke: #808080; stroke-width: 0.5"/>
   </g>
   <g id="line2d_29">
    <path d="M 17.920583 3.252367 
L 23.500583 2.982164 
L 29.080583 2.811227 
L 34.660583 2.762028 
L 40.240583 2.923743 
L 45.820583 3.158451 
L 51.400583 3.071704 
L 56.980583 2.905284 
L 62.560583 2.73987 
L 68.140583 2.669185 
L 73.720583 2.787162 
L 79.300583 3.050712 
L 84.880583 3.375939 
L 90.460583 3.474836 
L 96.040583 3.352964 
L 101.620583 3.357218 
L 107.200583 3.357322 
L 112.780583 3.357218 
L 118.360583 3.352964 
L 123.940583 3.474836 
L 129.520583 3.375939 
L 135.100583 3.050712 
L 140.680583 2.787162 
L 146.260583 2.669185 
L 151.840583 2.73987 
L 157.420583 2.905284 
L 163.000583 3.071704 
L 168.580583 3.158451 
L 174.160583 2.923743 
L 179.740583 2.762028 
L 185.320583 2.811227 
L 190.900583 2.982164 
L 196.480583 3.252367 
" clip-path="url(#p2ad9f55659)" style="fill: none; stroke-dasharray: 1.85,0.8; stroke-dashoffset: 0; stroke: #808080; stroke-width: 0.5"/>
   </g>
   <g id="line2d_30">
    <path d="M 17.920583 3.174338 
L 23.500583 3.188741 
L 29.080583 3.197315 
L 34.660583 3.078072 
L 40.240583 3.075028 
L 45.820583 3.049661 
L 51.400583 3.118898 
L 56.980583 3.190576 
L 62.560583 3.19205 
L 68.140583 3.090338 
L 73.720583 2.926384 
L 79.300583 2.792068 
L 84.880583 2.967047 
L 90.460583 3.13949 
L 96.040583 3.191514 
L 101.620583 3.029555 
L 107.200583 2.80069 
L 112.780583 3.029555 
L 118.360583 3.191514 
L 123.940583 3.13949 
L 129.520583 2.967047 
L 135.100583 2.792068 
L 140.680583 2.926384 
L 146.260583 3.090338 
L 151.840583 3.19205 
L 157.420583 3.190576 
L 163.000583 3.118898 
L 168.580583 3.049661 
L 174.160583 3.075028 
L 179.740583 3.078072 
L 185.320583 3.197315 
L 190.900583 3.188741 
L 196.480583 3.174338 
" clip-path="url(#p2ad9f55659)" style="fill: none; stroke-dasharray: 1.85,0.8; stroke-dashoffset: 0; stroke: #808080; stroke-width: 0.5"/>
   </g>
   <g id="line2d_31">
    <path d="M 17.920583 2.800982 
L 23.500583 3.029847 
L 29.080583 3.191805 
L 34.660583 3.139782 
L 40.240583 2.967339 
L 45.820583 2.79236 
L 51.400583 2.926676 
L 56.980583 3.09063 
L 62.560583 3.192342 
L 68.140583 3.190867 
L 73.720583 3.119189 
L 79.300583 3.049953 
L 84.880583 3.07532 
L 90.460583 3.078364 
L 96.040583 3.197607 
L 101.620583 3.189033 
L 107.200583 3.17463 
L 112.780583 3.189033 
L 118.360583 3.197607 
L 123.940583 3.078364 
L 129.520583 3.07532 
L 135.100583 3.049953 
L 140.680583 3.119189 
L 146.260583 3.190867 
L 151.840583 3.192342 
L 157.420583 3.09063 
L 163.000583 2.926676 
L 168.580583 2.79236 
L 174.160583 2.967339 
L 179.740583 3.139782 
L 185.320583 3.191805 
L 190.900583 3.029847 
L 196.480583 2.800982 
" clip-path="url(#p2ad9f55659)" style="fill: none; stroke-dasharray: 1.85,0.8; stroke-dashoffset: 0; stroke: #808080; stroke-width: 0.5"/>
   </g>
   <g id="line2d_32">
    <path clip-path="url(#p2ad9f55659)" style="fill: none; stroke-dasharray: 1.85,0.8; stroke-dashoffset: 0; stroke: #808080; stroke-width: 0.5"/>
   </g>
   <g id="line2d_33">
    <path clip-path="url(#p2ad9f55659)" style="fill: none; stroke-dasharray: 1.85,0.8; stroke-dashoffset: 0; stroke: #808080; stroke-width: 0.5"/>
   </g>
   <g id="line2d_34">
    <path clip-path="url(#p2ad9f55659)" style="fill: none; stroke-dasharray: 1.85,0.8; stroke-dashoffset: 0; stroke: #808080; stroke-width: 0.5"/>
   </g>
   <g id="line2d_35">
    <path clip-path="url(#p2ad9f55659)" style="fill: none; stroke-dasharray: 1.85,0.8; stroke-dashoffset: 0; stroke: #808080; stroke-width: 0.5"/>
   </g>
   <g id="line2d_36">
    <path d="M 17.920583 -0.94234 
L 18.391311 -1 
M 196.009855 -1 
L 196.480583 -0.94234 
" clip-path="url(#p2ad9f55659)" style="fill: none; stroke-dasharray: 1.85,0.8; stroke-dashoffset: 0; stroke: #808080; stroke-width: 0.5"/>
   </g>
   <g id="line2d_37">
    <path clip-path="url(#p2ad9f55659)" style="fill: none; stroke-dasharray: 1.85,0.8; stroke-dashoffset: 0; stroke: #808080; stroke-width: 0.5"/>
   </g>
   <g id="line2d_38">
    <path clip-path="url(#p2ad9f55659)" style="fill: none; stroke-dasharray: 1.85,0.8; stroke-dashoffset: 0; stroke: #808080; stroke-width: 0.5"/>
   </g>
   <g id="line2d_39">
    <path clip-path="url(#p2ad9f55659)" style="fill: none; stroke-dasharray: 1.85,0.8; stroke-dashoffset: 0; stroke: #808080; stroke-width: 0.5"/>
   </g>
   <g id="line2d_40">
    <path clip-path="url(#p2ad9f55659)" style="fill: none; stroke-dasharray: 1.85,0.8; stroke-dashoffset: 0; stroke: #808080; stroke-width: 0.5"/>
   </g>
   <g id="line2d_41">
    <path clip-path="url(#p2ad9f55659)" style="fill: none; stroke-dasharray: 1.85,0.8; stroke-dashoffset: 0; stroke: #808080; stroke-width: 0.5"/>
   </g>
   <g id="line2d_42">
    <path clip-path="url(#p2ad9f55659)" style="fill: none; stroke-dasharray: 1.85,0.8; stroke-dashoffset: 0; stroke: #808080; stroke-width: 0.5"/>
   </g>
   <g id="line2d_43">
    <path clip-path="url(#p2ad9f55659)" style="fill: none; stroke-dasharray: 1.85,0.8; stroke-dashoffset: 0; stroke: #808080; stroke-width: 0.5"/>
   </g>
   <g id="line2d_44">
    <path clip-path="url(#p2ad9f55659)" style="fill: none; stroke-dasharray: 1.85,0.8; stroke-dashoffset: 0; stroke: #808080; stroke-width: 0.5"/>
   </g>
   <g id="line2d_45">
    <path clip-path="url(#p2ad9f55659)" style="fill: none; stroke-dasharray: 1.85,0.8; stroke-dashoffset: 0; stroke: #808080; stroke-width: 0.5"/>
   </g>
   <g id="line2d_46">
    <path clip-path="url(#p2ad9f55659)" style="fill: none; stroke-dasharray: 1.85,0.8; stroke-dashoffset: 0; stroke: #808080; stroke-width: 0.5"/>
   </g>
   <g id="line2d_47">
    <path d="M 106.732237 -1 
L 107.200583 -0.942632 
L 107.668929 -1 
" clip-path="url(#p2ad9f55659)" style="fill: none; stroke-dasharray: 1.85,0.8; stroke-dashoffset: 0; stroke: #808080; stroke-width: 0.5"/>
   </g>
   <g id="line2d_48">
    <path clip-path="url(#p2ad9f55659)" style="fill: none; stroke-dasharray: 1.85,0.8; stroke-dashoffset: 0; stroke: #808080; stroke-width: 0.5"/>
   </g>
   <g id="line2d_49">
    <path clip-path="url(#p2ad9f55659)" style="fill: none; stroke-dasharray: 1.85,0.8; stroke-dashoffset: 0; stroke: #808080; stroke-width: 0.5"/>
   </g>
   <g id="line2d_50">
    <path clip-path="url(#p2ad9f55659)" style="fill: none; stroke-dasharray: 1.85,0.8; stroke-dashoffset: 0; stroke: #808080; stroke-width: 0.5"/>
   </g>
   <g id="line2d_51">
    <path clip-path="url(#p2ad9f55659)" style="fill: none; stroke-dasharray: 1.85,0.8; stroke-dashoffset: 0; stroke: #808080; stroke-width: 0.5"/>
   </g>
   <g id="line2d_52">
    <path clip-path="url(#p2ad9f55659)" style="fill: none; stroke-dasharray: 1.85,0.8; stroke-dashoffset: 0; stroke: #808080; stroke-width: 0.5"/>
   </g>
   <g id="line2d_53">
    <path clip-path="url(#p2ad9f55659)" style="fill: none; stroke-dasharray: 1.85,0.8; stroke-dashoffset: 0; stroke: #808080; stroke-width: 0.5"/>
   </g>
   <g id="line2d_54">
    <path clip-path="url(#p2ad9f55659)" style="fill: none; stroke-dasharray: 1.85,0.8; stroke-dashoffset: 0; stroke: #808080; stroke-width: 0.5"/>
   </g>
   <g id="line2d_55">
    <path clip-path="url(#p2ad9f55659)" style="fill: none; stroke-dasharray: 1.85,0.8; stroke-dashoffset: 0; stroke: #808080; stroke-width: 0.5"/>
   </g>
   <g id="line2d_56">
    <path clip-path="url(#p2ad9f55659)" style="fill: none; stroke-dasharray: 1.85,0.8; stroke-dashoffset: 0; stroke: #808080; stroke-width: 0.5"/>
   </g>
   <g id="line2d_57">
    <path clip-path="url(#p2ad9f55659)" style="fill: none; stroke-dasharray: 1.85,0.8; stroke-dashoffset: 0; stroke: #808080; stroke-width: 0.5"/>
   </g>
   <g id="line2d_58">
    <path clip-path="url(#p2ad9f55659)" style="fill: none; stroke-dasharray: 1.85,0.8; stroke-dashoffset: 0; stroke: #808080; stroke-width: 0.5"/>
   </g>
   <g id="line2d_59">
    <path clip-path="url(#p2ad9f55659)" style="fill: none; stroke-dasharray: 1.85,0.8; stroke-dashoffset: 0; stroke: #808080; stroke-width: 0.5"/>
   </g>
   <g id="line2d_60">
    <path clip-path="url(#p2ad9f55659)" style="fill: none; stroke-dasharray: 1.85,0.8; stroke-dashoffset: 0; stroke: #808080; stroke-width: 0.5"/>
   </g>
   <g id="line2d_61">
    <path clip-path="url(#p2ad9f55659)" style="fill: none; stroke-dasharray: 1.85,0.8; stroke-dashoffset: 0; stroke: #808080; stroke-width: 0.5"/>
   </g>
   <g id="line2d_62">
    <path clip-path="url(#p2ad9f55659)" style="fill: none; stroke-dasharray: 1.85,0.8; stroke-dashoffset: 0; stroke: #808080; stroke-width: 0.5"/>
   </g>
   <g id="line2d_63">
    <path clip-path="url(#p2ad9f55659)" style="fill: none; stroke-dasharray: 1.85,0.8; stroke-dashoffset: 0; stroke: #808080; stroke-width: 0.5"/>
   </g>
   <g id="line2d_64">
    <path clip-path="url(#p2ad9f55659)" style="fill: none; stroke-dasharray: 1.85,0.8; stroke-dashoffset: 0; stroke: #808080; stroke-width: 0.5"/>
   </g>
   <g id="line2d_65">
    <path clip-path="url(#p2ad9f55659)" style="fill: none; stroke-dasharray: 1.85,0.8; stroke-dashoffset: 0; stroke: #808080; stroke-width: 0.5"/>
   </g>
   <g id="line2d_66">
    <path clip-path="url(#p2ad9f55659)" style="fill: none; stroke-dasharray: 1.85,0.8; stroke-dashoffset: 0; stroke: #808080; stroke-width: 0.5"/>
   </g>
   <g id="line2d_67">
    <path clip-path="url(#p2ad9f55659)" style="fill: none; stroke-dasharray: 1.85,0.8; stroke-dashoffset: 0; stroke: #808080; stroke-width: 0.5"/>
   </g>
   <g id="line2d_68">
    <path d="M 17.920583 4.329474 
L 23.500583 4.329474 
L 29.080583 4.329474 
L 34.660583 4.329474 
L 40.240583 4.329474 
L 45.820583 4.329474 
L 51.400583 4.329474 
L 56.980583 4.329474 
L 62.560583 4.329474 
L 68.140583 4.329474 
L 73.720583 4.329474 
L 79.300583 4.329474 
L 84.880583 4.329474 
L 90.460583 4.329474 
L 96.040583 4.329474 
L 101.620583 4.329474 
L 107.200583 4.329474 
L 112.780583 4.329474 
L 118.360583 4.329474 
L 123.940583 4.329474 
L 129.520583 4.329474 
L 135.100583 4.329474 
L 140.680583 4.329474 
L 146.260583 4.329474 
L 151.840583 4.329474 
L 157.420583 4.329474 
L 163.000583 4.329474 
L 168.580583 4.329474 
L 174.160583 4.329474 
L 179.740583 4.329474 
L 185.320583 4.329474 
L 190.900583 4.329474 
L 196.480583 4.329474 
" clip-path="url(#p2ad9f55659)" style="fill: none; stroke-dasharray: 3.2,0.8,0.5,0.8; stroke-dashoffset: 0; stroke: #008000; stroke-width: 0.5"/>
   </g>
   <g id="line2d_69">
    <path clip-path="url(#p2ad9f55659)" style="fill: none; stroke-dasharray: 3.2,0.8,0.5,0.8; stroke-dashoffset: 0; stroke: #008000; stroke-width: 0.5"/>
   </g>
   <g id="patch_3">
    <path d="M 17.920583 59.04 
L 17.920583 3.6 
" style="fill: none; stroke: #000000; stroke-width: 0.4; stroke-linejoin: miter; stroke-linecap: square"/>
   </g>
   <g id="patch_4">
    <path d="M 196.480583 59.04 
L 196.480583 3.6 
" style="fill: none; stroke: #000000; stroke-width: 0.4; stroke-linejoin: miter; stroke-linecap: square"/>
   </g>
   <g id="patch_5">
    <path d="M 17.920583 59.04 
L 196.480583 59.04 
" style="fill: none; stroke: #000000; stroke-width: 0.4; stroke-linejoin: miter; stroke-linecap: square"/>
   </g>
   <g id="patch_6">
    <path d="M 17.920583 3.6 
L 196.480583 3.6 
" style="fill: none; stroke: #000000; stroke-width: 0.4; stroke-linejoin: miter; stroke-linecap: square"/>
   </g>
   <g id="text_7">
    <!-- $d = {16}a$ -->
    <g transform="translate(133.984583 50.724) scale(0.08 -0.08)">
     <defs>
      <path id="LMSans17-Oblique-64" d="M 2611 -13 
L 3558 4416 
L 3085 4416 
L 2662 2495 
C 2502 2662 2208 2816 1850 2816 
C 1267 2816 672 2179 506 1375 
C 333 572 653 -64 1222 -64 
C 1664 -64 2010 172 2195 307 
L 2125 -13 
L 2611 -13 
z
M 2304 851 
C 2291 760 2266 663 2035 488 
C 1882 378 1715 326 1568 326 
C 1222 326 826 585 986 1369 
C 1158 2185 1722 2425 2074 2425 
C 2310 2425 2477 2308 2573 2114 
L 2304 851 
z
" transform="scale(0.015625)"/>
      <path id="LMSans17-Regular-3d" d="M 4339 2156 
C 4339 2272 4230 2272 4122 2272 
L 550 2272 
C 442 2272 333 2272 333 2156 
C 333 2048 429 2048 525 2048 
L 4147 2048 
C 4243 2048 4339 2048 4339 2156 
z
M 4339 1043 
C 4339 1152 4243 1152 4147 1152 
L 525 1152 
C 429 1152 333 1152 333 1043 
C 333 927 442 927 550 927 
L 4122 927 
C 4230 927 4339 927 4339 1043 
z
" transform="scale(0.015625)"/>
      <path id="LMSans17-Regular-31" d="M 2573 0 
L 2573 371 
L 1818 371 
L 1818 4288 
L 1696 4288 
C 1350 3951 947 3903 538 3891 
L 538 3520 
C 723 3526 1024 3539 1325 3673 
L 1325 371 
L 570 371 
L 570 0 
L 2573 0 
z
" transform="scale(0.015625)"/>
      <path id="LMSans17-Regular-36" d="M 2752 1388 
C 2752 2182 2362 2886 1779 2886 
C 1357 2886 992 2662 768 2380 
C 832 3290 1254 3897 1862 3897 
C 2029 3897 2246 3871 2496 3763 
L 2496 4160 
C 2227 4268 2035 4288 1856 4288 
C 1024 4288 250 3416 250 2035 
C 250 268 986 -128 1510 -128 
C 1798 -128 2086 -39 2362 281 
C 2643 619 2752 900 2752 1392 
L 2752 1388 
z
M 2246 1392 
C 2246 1143 2246 894 2099 638 
C 1978 441 1818 268 1510 268 
C 902 268 800 1117 774 1372 
C 774 1423 774 1455 781 1551 
C 781 2049 1069 2496 1536 2496 
C 1837 2496 1990 2336 2106 2138 
C 2240 1889 2246 1653 2246 1392 
z
" transform="scale(0.015625)"/>
      <path id="LMSans17-Oblique-61" d="M 2470 -13 
L 2854 1789 
C 2982 2399 2643 2816 2067 2816 
C 1786 2816 1466 2764 1069 2559 
L 1018 2133 
C 1203 2250 1517 2438 1978 2438 
C 2304 2438 2451 2185 2368 1782 
L 2317 1536 
C 1286 1504 582 1209 474 711 
C 422 452 467 -64 998 -64 
C 1094 -64 1619 -52 2048 224 
L 1997 -13 
L 2470 -13 
z
M 2163 824 
C 2138 711 2106 559 1888 446 
C 1702 339 1485 326 1395 326 
C 1075 326 896 503 947 723 
C 1043 1165 2048 1209 2246 1216 
L 2163 824 
z
" transform="scale(0.015625)"/>
     </defs>
     <use xlink:href="#LMSans17-Oblique-64" transform="scale(0.996264)"/>
     <use xlink:href="#LMSans17-Regular-3d" transform="translate(85.755063 0) scale(0.996264)"/>
     <use xlink:href="#LMSans17-Regular-31" transform="translate(186.298238 0) scale(0.996264)"/>
     <use xlink:href="#LMSans17-Regular-36" transform="translate(233.142242 0) scale(0.996264)"/>
     <use xlink:href="#LMSans17-Oblique-61" transform="translate(279.986245 0) scale(0.996264)"/>
    </g>
   </g>
  </g>
 </g>
 <defs>
  <clipPath id="p2ad9f55659">
   <rect x="17.920583" y="3.6" width="178.56" height="55.44"/>
  </clipPath>
 </defs>
</svg>
