<?xml version="1.0" encoding="utf-8" standalone="no"?>
<!DOCTYPE svg PUBLIC "-//W3C//DTD SVG 1.1//EN"
  "http://www.w3.org/Graphics/SVG/1.1/DTD/svg11.dtd">
<svg xmlns:xlink="http://www.w3.org/1999/xlink" width="202.512009pt" height="73.224426pt" viewBox="0 0 202.512009 73.224426" xmlns="http://www.w3.org/2000/svg" version="1.1">
 <metadata>
  <rdf:RDF xmlns:dc="http://purl.org/dc/elements/1.1/" xmlns:cc="http://creativecommons.org/ns#" xmlns:rdf="http://www.w3.org/1999/02/22-rdf-syntax-ns#">
   <cc:Work>
    <dc:type rdf:resource="http://purl.org/dc/dcmitype/StillImage"/>
    <dc:date>2024-08-12T10:52:50.565927</dc:date>
    <dc:format>image/svg+xml</dc:format>
    <dc:creator>
     <cc:Agent>
      <dc:title>Matplotlib v3.8.4, https://matplotlib.org/</dc:title>
     </cc:Agent>
    </dc:creator>
   </cc:Work>
  </rdf:RDF>
 </metadata>
 <defs>
  <style type="text/css">*{stroke-linejoin: round; stroke-linecap: butt}</style>
 </defs>
 <g id="figure_1">
  <g id="patch_1">
   <path d="M 0 73.224426 
L 202.512009 73.224426 
L 202.512009 0 
L 0 0 
z
" style="fill: #ffffff"/>
  </g>
  <g id="axes_1">
   <g id="patch_2">
    <path d="M 17.920583 59.04 
L 196.480583 59.04 
L 196.480583 3.6 
L 17.920583 3.6 
z
" style="fill: #ffffff"/>
   </g>
   <g id="matplotlib.axis_1">
    <g id="xtick_1">
     <g id="line2d_1">
      <defs>
       <path id="m26b4c4ef74" d="M 0 0 
L 0 -2.5 
" style="stroke: #000000; stroke-width: 0.6"/>
      </defs>
      <g>
       <use xlink:href="#m26b4c4ef74" x="17.920583" y="59.04" style="stroke: #000000; stroke-width: 0.6"/>
      </g>
     </g>
     <g id="text_1">
      <!-- 0 -->
      <g transform="translate(15.803522 68.074741) scale(0.08 -0.08)">
       <defs>
        <path id="LMSans17-Regular-30" d="M 2758 2075 
C 2758 2441 2752 3122 2490 3648 
C 2227 4153 1805 4288 1504 4288 
C 1069 4288 698 4031 506 3622 
C 301 3193 243 2749 243 2075 
C 243 1612 262 1046 493 551 
C 755 6 1197 -128 1498 -128 
C 1894 -128 2278 83 2496 525 
C 2720 988 2758 1496 2758 2075 
z
M 2272 2145 
C 2272 1547 2272 262 1498 262 
C 1011 262 864 821 819 1008 
C 742 1329 730 1637 730 2145 
C 730 2544 730 2994 851 3347 
C 998 3756 1254 3897 1498 3897 
C 1971 3897 2125 3423 2176 3257 
C 2272 2917 2272 2518 2272 2145 
z
" transform="scale(0.015625)"/>
       </defs>
       <use xlink:href="#LMSans17-Regular-30" transform="scale(0.996264)"/>
      </g>
     </g>
    </g>
    <g id="xtick_2">
     <g id="line2d_2">
      <g>
       <use xlink:href="#m26b4c4ef74" x="62.560583" y="59.04" style="stroke: #000000; stroke-width: 0.6"/>
      </g>
     </g>
    </g>
    <g id="xtick_3">
     <g id="line2d_3">
      <g>
       <use xlink:href="#m26b4c4ef74" x="107.200583" y="59.04" style="stroke: #000000; stroke-width: 0.6"/>
      </g>
     </g>
    </g>
    <g id="xtick_4">
     <g id="line2d_4">
      <g>
       <use xlink:href="#m26b4c4ef74" x="151.840583" y="59.04" style="stroke: #000000; stroke-width: 0.6"/>
      </g>
     </g>
    </g>
    <g id="xtick_5">
     <g id="line2d_5">
      <g>
       <use xlink:href="#m26b4c4ef74" x="196.480583" y="59.04" style="stroke: #000000; stroke-width: 0.6"/>
      </g>
     </g>
     <g id="text_2">
      <!-- $\pi$ -->
      <g transform="translate(194.049157 68.074741) scale(0.08 -0.08)">
       <defs>
        <path id="LMMathItalic12-Regular-19" d="M 3539 2611 
C 3539 2752 3418 2752 3302 2752 
L 1197 2752 
C 1050 2752 832 2752 538 2438 
C 371 2253 166 1914 166 1876 
C 166 1838 198 1825 237 1825 
C 282 1825 288 1844 320 1883 
C 653 2406 986 2406 1146 2406 
L 1510 2406 
C 1370 1927 1210 1372 685 255 
C 634 153 634 140 634 101 
C 634 -33 749 -64 806 -64 
C 992 -64 1043 101 1120 370 
C 1222 695 1222 708 1286 963 
L 1658 2406 
L 2381 2406 
C 2208 1691 2099 1225 2099 714 
C 2099 625 2099 -64 2362 -64 
C 2496 -64 2611 57 2611 165 
C 2611 197 2611 210 2566 306 
C 2394 746 2394 1295 2394 1340 
C 2394 1378 2394 1831 2528 2406 
L 3245 2406 
C 3328 2406 3539 2406 3539 2611 
z
" transform="scale(0.015625)"/>
       </defs>
       <use xlink:href="#LMMathItalic12-Regular-19" transform="scale(0.996264)"/>
      </g>
     </g>
    </g>
    <g id="text_3">
     <!-- $\gamma$ -->
     <g transform="translate(105.019751 67.159106) scale(0.08 -0.08)">
      <defs>
       <path id="LMMathItalic12-Regular-d" d="M 3405 2701 
C 3405 2701 3398 2752 3341 2752 
C 3341 2752 3296 2752 3283 2726 
C 3270 2714 3046 2282 2854 1850 
C 2758 1634 2630 1348 2419 789 
C 2406 1100 2394 1589 2150 2161 
C 2022 2479 1805 2816 1338 2816 
C 550 2816 122 1818 122 1653 
C 122 1596 166 1596 186 1596 
C 243 1596 243 1609 275 1691 
C 410 2085 819 2396 1261 2396 
C 2150 2396 2278 1412 2278 783 
C 2278 383 2234 249 2195 122 
C 2074 -271 1862 -1059 1862 -1237 
C 1862 -1287 1882 -1344 1933 -1344 
C 2029 -1344 2086 -1135 2157 -881 
C 2310 -322 2349 -43 2381 211 
C 2400 364 2765 1412 3270 2409 
C 3315 2510 3405 2682 3405 2701 
z
" transform="scale(0.015625)"/>
      </defs>
      <use xlink:href="#LMMathItalic12-Regular-d" transform="scale(0.996264)"/>
     </g>
    </g>
   </g>
   <g id="matplotlib.axis_2">
    <g id="ytick_1">
     <g id="line2d_6">
      <defs>
       <path id="m00bda09028" d="M 0 0 
L 2.5 0 
" style="stroke: #000000; stroke-width: 0.6"/>
      </defs>
      <g>
       <use xlink:href="#m00bda09028" x="17.920583" y="59.04" style="stroke: #000000; stroke-width: 0.6"/>
      </g>
     </g>
     <g id="text_4">
      <!-- 0 -->
      <g transform="translate(10.186461 61.80737) scale(0.08 -0.08)">
       <use xlink:href="#LMSans17-Regular-30" transform="scale(0.996264)"/>
      </g>
     </g>
    </g>
    <g id="ytick_2">
     <g id="line2d_7">
      <g>
       <use xlink:href="#m00bda09028" x="17.920583" y="15.271579" style="stroke: #000000; stroke-width: 0.6"/>
      </g>
     </g>
     <g id="text_5">
      <!-- 0.3 -->
      <g transform="translate(3.6 18.038949) scale(0.08 -0.08)">
       <defs>
        <path id="LMSans17-Regular-2e" d="M 1088 0 
L 1088 512 
L 576 512 
L 576 0 
L 1088 0 
z
" transform="scale(0.015625)"/>
        <path id="LMSans17-Regular-33" d="M 2752 1164 
C 2752 1670 2400 2092 1920 2252 
C 2304 2463 2586 2860 2586 3321 
C 2586 3859 2093 4288 1491 4288 
C 941 4288 512 3948 333 3583 
C 378 3519 493 3334 550 3238 
C 691 3615 1056 3897 1485 3897 
C 1843 3897 2080 3660 2080 3321 
C 2080 2969 1856 2585 1478 2496 
C 1453 2483 1056 2444 1005 2438 
L 1005 2048 
L 1440 2048 
C 2042 2048 2214 1514 2214 1143 
C 2214 640 1933 268 1472 268 
C 1114 268 608 434 320 902 
C 275 678 275 665 250 512 
C 550 89 1037 -128 1485 -128 
C 2214 -128 2752 464 2752 1136 
L 2752 1164 
z
" transform="scale(0.015625)"/>
       </defs>
       <use xlink:href="#LMSans17-Regular-30" transform="scale(0.996264)"/>
       <use xlink:href="#LMSans17-Regular-2e" transform="translate(46.844004 0) scale(0.996264)"/>
       <use xlink:href="#LMSans17-Regular-33" transform="translate(72.869166 0) scale(0.996264)"/>
      </g>
     </g>
    </g>
    <g id="text_6">
     <!-- $\omega_n$ -->
     <g transform="translate(10.050315 35.592484) rotate(-90) scale(0.08 -0.08)">
      <defs>
       <path id="LMMathItalic12-Regular-21" d="M 3642 1533 
C 3712 1807 3795 2133 3795 2394 
C 3795 2548 3763 2682 3680 2765 
C 3642 2797 3590 2816 3539 2816 
C 3469 2816 3398 2784 3341 2726 
C 3283 2669 3251 2599 3251 2535 
C 3251 2484 3270 2433 3309 2394 
C 3462 2254 3539 2050 3539 1820 
C 3539 1737 3526 1647 3507 1558 
C 3360 964 3002 352 2483 352 
C 2112 352 1907 620 1862 977 
C 1939 1156 2003 1347 2048 1533 
C 2061 1590 2074 1654 2074 1711 
C 2074 1788 2048 1845 1971 1845 
C 1856 1845 1805 1692 1773 1558 
C 1722 1367 1690 1175 1683 990 
C 1472 626 1165 352 800 352 
C 416 352 250 671 250 1073 
C 250 1220 275 1373 314 1533 
C 410 1916 627 2279 877 2624 
C 890 2650 896 2669 896 2694 
C 896 2726 883 2758 851 2777 
C 832 2784 806 2784 806 2784 
C 768 2784 730 2765 704 2733 
C 442 2362 275 1960 173 1558 
C 109 1303 77 1047 77 818 
C 77 320 250 -64 723 -64 
C 1133 -64 1459 236 1702 645 
C 1760 230 1971 -64 2406 -64 
C 3066 -64 3450 760 3642 1533 
z
" transform="scale(0.015625)"/>
       <path id="LMSans17-Oblique-6e" d="M 2618 12 
L 3014 1881 
C 3098 2284 3117 2816 2394 2816 
C 1984 2816 1670 2604 1446 2387 
L 1530 2783 
L 1062 2783 
L 474 0 
L 960 0 
L 1286 1556 
C 1376 1962 1626 2425 2061 2425 
C 2624 2425 2566 2045 2515 1827 
L 2131 0 
L 2618 12 
z
" transform="scale(0.015625)"/>
      </defs>
      <use xlink:href="#LMMathItalic12-Regular-21" transform="scale(0.996264)"/>
      <use xlink:href="#LMSans17-Oblique-6e" transform="translate(60.743753 -14.943915) scale(0.697382)"/>
     </g>
    </g>
   </g>
   <g id="line2d_8">
    <path clip-path="url(#p8cbcdcd729)" style="fill: none; stroke-dasharray: 1.85,0.8; stroke-dashoffset: 0; stroke: #808080; stroke-width: 0.5"/>
   </g>
   <g id="line2d_9">
    <path d="M 17.920583 39.071679 
L 23.500583 39.095789 
L 29.080583 38.983143 
L 34.660583 35.373173 
L 40.240583 37.29889 
L 45.820583 35.25548 
L 51.400583 34.82341 
L 56.980583 34.027229 
L 62.560583 34.493582 
L 68.140583 32.86085 
L 73.720583 31.162274 
L 79.300583 29.468401 
L 84.880583 30.403817 
L 90.460583 26.397557 
L 96.040583 26.329571 
L 101.620583 26.826093 
L 107.200583 27.044921 
L 112.780583 26.826093 
L 118.360583 26.329571 
L 123.940583 26.397557 
L 129.520583 30.403817 
L 135.100583 29.468401 
L 140.680583 31.162274 
L 146.260583 32.86085 
L 151.840583 34.493582 
L 157.420583 34.027229 
L 163.000583 34.82341 
L 168.580583 35.25548 
L 174.160583 37.29889 
L 179.740583 35.373173 
L 185.320583 38.983143 
L 190.900583 39.095789 
L 196.480583 39.071679 
" clip-path="url(#p8cbcdcd729)" style="fill: none; stroke: #0000ff; stroke-width: 0.5; stroke-linecap: square"/>
   </g>
   <g id="line2d_10">
    <path clip-path="url(#p8cbcdcd729)" style="fill: none; stroke-dasharray: 1.85,0.8; stroke-dashoffset: 0; stroke: #808080; stroke-width: 0.5"/>
   </g>
   <g id="line2d_11">
    <path d="M 17.920583 28.315543 
L 23.500583 28.539426 
L 29.080583 28.992033 
L 34.660583 30.047244 
L 40.240583 25.442294 
L 45.820583 25.47473 
L 51.400583 24.798729 
L 56.980583 23.666538 
L 62.560583 22.961805 
L 68.140583 21.977527 
L 73.720583 19.7539 
L 79.300583 17.250449 
L 84.880583 16.31967 
L 90.460583 17.598244 
L 96.040583 13.037924 
L 101.620583 13.257976 
L 107.200583 13.374733 
L 112.780583 13.257976 
L 118.360583 13.037924 
L 123.940583 17.598244 
L 129.520583 16.31967 
L 135.100583 17.250449 
L 140.680583 19.7539 
L 146.260583 21.977527 
L 151.840583 22.961805 
L 157.420583 23.666538 
L 163.000583 24.798729 
L 168.580583 25.47473 
L 174.160583 25.442294 
L 179.740583 30.047244 
L 185.320583 28.992033 
L 190.900583 28.539426 
L 196.480583 28.315543 
" clip-path="url(#p8cbcdcd729)" style="fill: none; stroke-dasharray: 1.85,0.8; stroke-dashoffset: 0; stroke: #ff0000; stroke-width: 0.5"/>
   </g>
   <g id="line2d_12">
    <path clip-path="url(#p8cbcdcd729)" style="fill: none; stroke-dasharray: 1.85,0.8; stroke-dashoffset: 0; stroke: #808080; stroke-width: 0.5"/>
   </g>
   <g id="line2d_13">
    <path d="M 17.920583 27.045212 
L 23.500583 26.826385 
L 29.080583 26.329863 
L 34.660583 26.397849 
L 40.240583 30.404109 
L 45.820583 29.468693 
L 51.400583 31.162566 
L 56.980583 32.861142 
L 62.560583 34.493873 
L 68.140583 34.027521 
L 73.720583 34.823702 
L 79.300583 35.255772 
L 84.880583 37.299182 
L 90.460583 35.373465 
L 96.040583 38.983435 
L 101.620583 39.096081 
L 107.200583 39.07197 
L 112.780583 39.096081 
L 118.360583 38.983435 
L 123.940583 35.373465 
L 129.520583 37.299182 
L 135.100583 35.255772 
L 140.680583 34.823702 
L 146.260583 34.027521 
L 151.840583 34.493873 
L 157.420583 32.861142 
L 163.000583 31.162566 
L 168.580583 29.468693 
L 174.160583 30.404109 
L 179.740583 26.397849 
L 185.320583 26.329863 
L 190.900583 26.826385 
L 196.480583 27.045212 
" clip-path="url(#p8cbcdcd729)" style="fill: none; stroke: #ff0000; stroke-width: 0.5; stroke-linecap: square"/>
   </g>
   <g id="line2d_14">
    <path d="M 17.920583 13.374441 
L 23.500583 13.257684 
L 29.080583 13.037632 
L 34.660583 17.597953 
L 40.240583 16.319378 
L 45.820583 17.250157 
L 51.400583 19.753609 
L 56.980583 21.977235 
L 62.560583 22.961514 
L 68.140583 23.666246 
L 73.720583 24.798438 
L 79.300583 25.474438 
L 84.880583 25.442002 
L 90.460583 30.046952 
L 96.040583 28.991741 
L 101.620583 28.539135 
L 107.200583 28.315251 
L 112.780583 28.539135 
L 118.360583 28.991741 
L 123.940583 30.046952 
L 129.520583 25.442002 
L 135.100583 25.474438 
L 140.680583 24.798438 
L 146.260583 23.666246 
L 151.840583 22.961514 
L 157.420583 21.977235 
L 163.000583 19.753609 
L 168.580583 17.250157 
L 174.160583 16.319378 
L 179.740583 17.597953 
L 185.320583 13.037632 
L 190.900583 13.257684 
L 196.480583 13.374441 
" clip-path="url(#p8cbcdcd729)" style="fill: none; stroke-dasharray: 1.85,0.8; stroke-dashoffset: 0; stroke: #0000ff; stroke-width: 0.5"/>
   </g>
   <g id="line2d_15">
    <path clip-path="url(#p8cbcdcd729)" style="fill: none; stroke-dasharray: 1.85,0.8; stroke-dashoffset: 0; stroke: #808080; stroke-width: 0.5"/>
   </g>
   <g id="line2d_16">
    <path clip-path="url(#p8cbcdcd729)" style="fill: none; stroke-dasharray: 1.85,0.8; stroke-dashoffset: 0; stroke: #808080; stroke-width: 0.5"/>
   </g>
   <g id="line2d_17">
    <path clip-path="url(#p8cbcdcd729)" style="fill: none; stroke-dasharray: 1.85,0.8; stroke-dashoffset: 0; stroke: #808080; stroke-width: 0.5"/>
   </g>
   <g id="line2d_18">
    <path clip-path="url(#p8cbcdcd729)" style="fill: none; stroke-dasharray: 1.85,0.8; stroke-dashoffset: 0; stroke: #808080; stroke-width: 0.5"/>
   </g>
   <g id="line2d_19">
    <path clip-path="url(#p8cbcdcd729)" style="fill: none; stroke-dasharray: 1.85,0.8; stroke-dashoffset: 0; stroke: #808080; stroke-width: 0.5"/>
   </g>
   <g id="line2d_20">
    <path clip-path="url(#p8cbcdcd729)" style="fill: none; stroke-dasharray: 1.85,0.8; stroke-dashoffset: 0; stroke: #808080; stroke-width: 0.5"/>
   </g>
   <g id="line2d_21">
    <path clip-path="url(#p8cbcdcd729)" style="fill: none; stroke-dasharray: 1.85,0.8; stroke-dashoffset: 0; stroke: #808080; stroke-width: 0.5"/>
   </g>
   <g id="line2d_22">
    <path clip-path="url(#p8cbcdcd729)" style="fill: none; stroke-dasharray: 1.85,0.8; stroke-dashoffset: 0; stroke: #808080; stroke-width: 0.5"/>
   </g>
   <g id="line2d_23">
    <path clip-path="url(#p8cbcdcd729)" style="fill: none; stroke-dasharray: 1.85,0.8; stroke-dashoffset: 0; stroke: #808080; stroke-width: 0.5"/>
   </g>
   <g id="line2d_24">
    <path clip-path="url(#p8cbcdcd729)" style="fill: none; stroke-dasharray: 1.85,0.8; stroke-dashoffset: 0; stroke: #808080; stroke-width: 0.5"/>
   </g>
   <g id="line2d_25">
    <path clip-path="url(#p8cbcdcd729)" style="fill: none; stroke-dasharray: 1.85,0.8; stroke-dashoffset: 0; stroke: #808080; stroke-width: 0.5"/>
   </g>
   <g id="line2d_26">
    <path clip-path="url(#p8cbcdcd729)" style="fill: none; stroke-dasharray: 1.85,0.8; stroke-dashoffset: 0; stroke: #808080; stroke-width: 0.5"/>
   </g>
   <g id="line2d_27">
    <path clip-path="url(#p8cbcdcd729)" style="fill: none; stroke-dasharray: 1.85,0.8; stroke-dashoffset: 0; stroke: #808080; stroke-width: 0.5"/>
   </g>
   <g id="line2d_28">
    <path clip-path="url(#p8cbcdcd729)" style="fill: none; stroke-dasharray: 1.85,0.8; stroke-dashoffset: 0; stroke: #808080; stroke-width: 0.5"/>
   </g>
   <g id="line2d_29">
    <path d="M 17.920583 7.735319 
L 23.500583 7.736356 
L 29.080583 7.738079 
L 34.660583 7.7659 
L 40.240583 7.700804 
L 45.820583 7.670171 
L 51.400583 7.616986 
L 56.980583 7.573754 
L 62.560583 7.570722 
L 68.140583 7.549512 
L 73.720583 7.544476 
L 79.300583 7.555671 
L 84.880583 7.590074 
L 90.460583 7.596978 
L 96.040583 7.537506 
L 101.620583 7.5038 
L 107.200583 7.491957 
L 112.780583 7.5038 
L 118.360583 7.537506 
L 123.940583 7.596978 
L 129.520583 7.590074 
L 135.100583 7.555671 
L 140.680583 7.544476 
L 146.260583 7.549512 
L 151.840583 7.570722 
L 157.420583 7.573754 
L 163.000583 7.616986 
L 168.580583 7.670171 
L 174.160583 7.700804 
L 179.740583 7.7659 
L 185.320583 7.738079 
L 190.900583 7.736356 
L 196.480583 7.735319 
" clip-path="url(#p8cbcdcd729)" style="fill: none; stroke-dasharray: 1.85,0.8; stroke-dashoffset: 0; stroke: #808080; stroke-width: 0.5"/>
   </g>
   <g id="line2d_30">
    <path d="M 17.920583 7.728546 
L 23.500583 7.728127 
L 29.080583 7.725322 
L 34.660583 7.699378 
L 40.240583 7.674504 
L 45.820583 7.648121 
L 51.400583 7.63973 
L 56.980583 7.643977 
L 62.560583 7.666775 
L 68.140583 7.650265 
L 73.720583 7.627431 
L 79.300583 7.563417 
L 84.880583 7.543096 
L 90.460583 7.529841 
L 96.040583 7.546716 
L 101.620583 7.575575 
L 107.200583 7.588917 
L 112.780583 7.575575 
L 118.360583 7.546716 
L 123.940583 7.529841 
L 129.520583 7.543096 
L 135.100583 7.563417 
L 140.680583 7.627431 
L 146.260583 7.650265 
L 151.840583 7.666775 
L 157.420583 7.643977 
L 163.000583 7.63973 
L 168.580583 7.648121 
L 174.160583 7.674504 
L 179.740583 7.699378 
L 185.320583 7.725322 
L 190.900583 7.728127 
L 196.480583 7.728546 
" clip-path="url(#p8cbcdcd729)" style="fill: none; stroke-dasharray: 1.85,0.8; stroke-dashoffset: 0; stroke: #808080; stroke-width: 0.5"/>
   </g>
   <g id="line2d_31">
    <path d="M 17.920583 7.589209 
L 23.500583 7.575867 
L 29.080583 7.547007 
L 34.660583 7.530133 
L 40.240583 7.543388 
L 45.820583 7.563709 
L 51.400583 7.627723 
L 56.980583 7.650557 
L 62.560583 7.667067 
L 68.140583 7.644269 
L 73.720583 7.640022 
L 79.300583 7.648412 
L 84.880583 7.674796 
L 90.460583 7.69967 
L 96.040583 7.725614 
L 101.620583 7.728419 
L 107.200583 7.728838 
L 112.780583 7.728419 
L 118.360583 7.725614 
L 123.940583 7.69967 
L 129.520583 7.674796 
L 135.100583 7.648412 
L 140.680583 7.640022 
L 146.260583 7.644269 
L 151.840583 7.667067 
L 157.420583 7.650557 
L 163.000583 7.627723 
L 168.580583 7.563709 
L 174.160583 7.543388 
L 179.740583 7.530133 
L 185.320583 7.547007 
L 190.900583 7.575867 
L 196.480583 7.589209 
" clip-path="url(#p8cbcdcd729)" style="fill: none; stroke-dasharray: 1.85,0.8; stroke-dashoffset: 0; stroke: #808080; stroke-width: 0.5"/>
   </g>
   <g id="line2d_32">
    <path d="M 17.920583 7.492248 
L 23.500583 7.504091 
L 29.080583 7.537798 
L 34.660583 7.597269 
L 40.240583 7.590366 
L 45.820583 7.555963 
L 51.400583 7.544767 
L 56.980583 7.549804 
L 62.560583 7.571014 
L 68.140583 7.574046 
L 73.720583 7.617277 
L 79.300583 7.670463 
L 84.880583 7.701096 
L 90.460583 7.766192 
L 96.040583 7.738371 
L 101.620583 7.736648 
L 107.200583 7.73561 
L 112.780583 7.736648 
L 118.360583 7.738371 
L 123.940583 7.766192 
L 129.520583 7.701096 
L 135.100583 7.670463 
L 140.680583 7.617277 
L 146.260583 7.574046 
L 151.840583 7.571014 
L 157.420583 7.549804 
L 163.000583 7.544767 
L 168.580583 7.555963 
L 174.160583 7.590366 
L 179.740583 7.597269 
L 185.320583 7.537798 
L 190.900583 7.504091 
L 196.480583 7.492248 
" clip-path="url(#p8cbcdcd729)" style="fill: none; stroke-dasharray: 1.85,0.8; stroke-dashoffset: 0; stroke: #808080; stroke-width: 0.5"/>
   </g>
   <g id="line2d_33">
    <path d="M 17.920583 6.714563 
L 23.500583 6.019393 
L 29.080583 4.073081 
L 34.660583 9.021827 
L 40.240583 1.358765 
L 43.870785 -1 
M 170.530381 -1 
L 174.160583 1.358765 
L 179.740583 9.021827 
L 185.320583 4.073081 
L 190.900583 6.019393 
L 196.480583 6.714563 
" clip-path="url(#p8cbcdcd729)" style="fill: none; stroke-dasharray: 1.85,0.8; stroke-dashoffset: 0; stroke: #808080; stroke-width: 0.5"/>
   </g>
   <g id="line2d_34">
    <path d="M 17.920583 5.568554 
L 23.500583 5.561978 
L 29.080583 5.544383 
L 34.660583 5.494583 
L 40.240583 5.441392 
L 45.820583 5.414406 
L 51.400583 5.360819 
L 56.980583 5.308351 
L 62.560583 5.317903 
L 68.140583 5.236931 
L 73.720583 5.169559 
L 79.300583 5.145625 
L 84.880583 5.179179 
L 90.460583 5.132871 
L 96.040583 5.064824 
L 101.620583 5.033676 
L 107.200583 5.017997 
L 112.780583 5.033676 
L 118.360583 5.064824 
L 123.940583 5.132871 
L 129.520583 5.179179 
L 135.100583 5.145625 
L 140.680583 5.169559 
L 146.260583 5.236931 
L 151.840583 5.317903 
L 157.420583 5.308351 
L 163.000583 5.360819 
L 168.580583 5.414406 
L 174.160583 5.441392 
L 179.740583 5.494583 
L 185.320583 5.544383 
L 190.900583 5.561978 
L 196.480583 5.568554 
" clip-path="url(#p8cbcdcd729)" style="fill: none; stroke-dasharray: 1.85,0.8; stroke-dashoffset: 0; stroke: #808080; stroke-width: 0.5"/>
   </g>
   <g id="line2d_35">
    <path d="M 17.920583 5.541847 
L 23.500583 5.529224 
L 29.080583 5.491283 
L 34.660583 5.471607 
L 40.240583 5.379547 
L 45.820583 5.343706 
L 51.400583 5.36256 
L 56.980583 5.346741 
L 62.560583 5.338989 
L 68.140583 5.291763 
L 73.720583 5.212244 
L 79.300583 5.120451 
L 84.880583 5.082297 
L 90.460583 5.075688 
L 96.040583 5.062917 
L 101.620583 5.100099 
L 107.200583 5.111287 
L 112.780583 5.100099 
L 118.360583 5.062917 
L 123.940583 5.075688 
L 129.520583 5.082297 
L 135.100583 5.120451 
L 140.680583 5.212244 
L 146.260583 5.291763 
L 151.840583 5.338989 
L 157.420583 5.346741 
L 163.000583 5.36256 
L 168.580583 5.343706 
L 174.160583 5.379547 
L 179.740583 5.471607 
L 185.320583 5.491283 
L 190.900583 5.529224 
L 196.480583 5.541847 
" clip-path="url(#p8cbcdcd729)" style="fill: none; stroke-dasharray: 1.85,0.8; stroke-dashoffset: 0; stroke: #808080; stroke-width: 0.5"/>
   </g>
   <g id="line2d_36">
    <path d="M 17.920583 5.111579 
L 23.500583 5.100391 
L 29.080583 5.063209 
L 34.660583 5.07598 
L 40.240583 5.082589 
L 45.820583 5.120743 
L 51.400583 5.212536 
L 56.980583 5.292055 
L 62.560583 5.339281 
L 68.140583 5.347033 
L 73.720583 5.362852 
L 79.300583 5.343998 
L 84.880583 5.379839 
L 90.460583 5.471899 
L 96.040583 5.491575 
L 101.620583 5.529516 
L 107.200583 5.542139 
L 112.780583 5.529516 
L 118.360583 5.491575 
L 123.940583 5.471899 
L 129.520583 5.379839 
L 135.100583 5.343998 
L 140.680583 5.362852 
L 146.260583 5.347033 
L 151.840583 5.339281 
L 157.420583 5.292055 
L 163.000583 5.212536 
L 168.580583 5.120743 
L 174.160583 5.082589 
L 179.740583 5.07598 
L 185.320583 5.063209 
L 190.900583 5.100391 
L 196.480583 5.111579 
" clip-path="url(#p8cbcdcd729)" style="fill: none; stroke-dasharray: 1.85,0.8; stroke-dashoffset: 0; stroke: #808080; stroke-width: 0.5"/>
   </g>
   <g id="line2d_37">
    <path d="M 17.920583 5.018289 
L 23.500583 5.033967 
L 29.080583 5.065116 
L 34.660583 5.133162 
L 40.240583 5.179471 
L 45.820583 5.145916 
L 51.400583 5.169851 
L 56.980583 5.237223 
L 62.560583 5.318195 
L 68.140583 5.308643 
L 73.720583 5.361111 
L 79.300583 5.414697 
L 84.880583 5.441684 
L 90.460583 5.494874 
L 96.040583 5.544675 
L 101.620583 5.56227 
L 107.200583 5.568845 
L 112.780583 5.56227 
L 118.360583 5.544675 
L 123.940583 5.494874 
L 129.520583 5.441684 
L 135.100583 5.414697 
L 140.680583 5.361111 
L 146.260583 5.308643 
L 151.840583 5.318195 
L 157.420583 5.237223 
L 163.000583 5.169851 
L 168.580583 5.145916 
L 174.160583 5.179471 
L 179.740583 5.133162 
L 185.320583 5.065116 
L 190.900583 5.033967 
L 196.480583 5.018289 
" clip-path="url(#p8cbcdcd729)" style="fill: none; stroke-dasharray: 1.85,0.8; stroke-dashoffset: 0; stroke: #808080; stroke-width: 0.5"/>
   </g>
   <g id="line2d_38">
    <path d="M 17.920583 3.612495 
L 23.500583 3.61698 
L 29.080583 3.619121 
L 34.660583 3.431643 
L 40.240583 3.368527 
L 45.820583 3.236678 
L 51.400583 3.180573 
L 56.980583 3.234707 
L 62.560583 3.411548 
L 68.140583 3.375841 
L 73.720583 3.390881 
L 79.300583 3.059773 
L 84.880583 3.179531 
L 90.460583 2.903895 
L 96.040583 2.925017 
L 101.620583 3.08853 
L 107.200583 3.156164 
L 112.780583 3.08853 
L 118.360583 2.925017 
L 123.940583 2.903895 
L 129.520583 3.179531 
L 135.100583 3.059773 
L 140.680583 3.390881 
L 146.260583 3.375841 
L 151.840583 3.411548 
L 157.420583 3.234707 
L 163.000583 3.180573 
L 168.580583 3.236678 
L 174.160583 3.368527 
L 179.740583 3.431643 
L 185.320583 3.619121 
L 190.900583 3.61698 
L 196.480583 3.612495 
" clip-path="url(#p8cbcdcd729)" style="fill: none; stroke-dasharray: 1.85,0.8; stroke-dashoffset: 0; stroke: #808080; stroke-width: 0.5"/>
   </g>
   <g id="line2d_39">
    <path d="M 17.920583 3.538466 
L 23.500583 3.544131 
L 29.080583 3.556526 
L 34.660583 3.832871 
L 40.240583 3.547268 
L 45.820583 3.403978 
L 51.400583 3.141149 
L 56.980583 2.915299 
L 62.560583 2.929984 
L 68.140583 2.820448 
L 73.720583 2.831341 
L 79.300583 2.931004 
L 84.880583 3.117366 
L 90.460583 3.161728 
L 96.040583 2.924997 
L 101.620583 2.754588 
L 107.200583 2.699155 
L 112.780583 2.754588 
L 118.360583 2.924997 
L 123.940583 3.161728 
L 129.520583 3.117366 
L 135.100583 2.931004 
L 140.680583 2.831341 
L 146.260583 2.820448 
L 151.840583 2.929984 
L 157.420583 2.915299 
L 163.000583 3.141149 
L 168.580583 3.403978 
L 174.160583 3.547268 
L 179.740583 3.832871 
L 185.320583 3.556526 
L 190.900583 3.544131 
L 196.480583 3.538466 
" clip-path="url(#p8cbcdcd729)" style="fill: none; stroke-dasharray: 1.85,0.8; stroke-dashoffset: 0; stroke: #808080; stroke-width: 0.5"/>
   </g>
   <g id="line2d_40">
    <path d="M 17.920583 3.156456 
L 23.500583 3.088822 
L 29.080583 2.925308 
L 34.660583 2.904187 
L 40.240583 3.179823 
L 45.820583 3.060065 
L 51.400583 3.391173 
L 56.980583 3.376133 
L 62.560583 3.411839 
L 68.140583 3.234998 
L 73.720583 3.180865 
L 79.300583 3.23697 
L 84.880583 3.368819 
L 90.460583 3.431935 
L 96.040583 3.619412 
L 101.620583 3.617272 
L 107.200583 3.612786 
L 112.780583 3.617272 
L 118.360583 3.619412 
L 123.940583 3.431935 
L 129.520583 3.368819 
L 135.100583 3.23697 
L 140.680583 3.180865 
L 146.260583 3.234998 
L 151.840583 3.411839 
L 157.420583 3.376133 
L 163.000583 3.391173 
L 168.580583 3.060065 
L 174.160583 3.179823 
L 179.740583 2.904187 
L 185.320583 2.925308 
L 190.900583 3.088822 
L 196.480583 3.156456 
" clip-path="url(#p8cbcdcd729)" style="fill: none; stroke-dasharray: 1.85,0.8; stroke-dashoffset: 0; stroke: #808080; stroke-width: 0.5"/>
   </g>
   <g id="line2d_41">
    <path d="M 17.920583 2.699447 
L 23.500583 2.75488 
L 29.080583 2.925289 
L 34.660583 3.16202 
L 40.240583 3.117658 
L 45.820583 2.931296 
L 51.400583 2.831632 
L 56.980583 2.82074 
L 62.560583 2.930275 
L 68.140583 2.915591 
L 73.720583 3.141441 
L 79.300583 3.40427 
L 84.880583 3.547559 
L 90.460583 3.833163 
L 96.040583 3.556818 
L 101.620583 3.544423 
L 107.200583 3.538758 
L 112.780583 3.544423 
L 118.360583 3.556818 
L 123.940583 3.833163 
L 129.520583 3.547559 
L 135.100583 3.40427 
L 140.680583 3.141441 
L 146.260583 2.915591 
L 151.840583 2.930275 
L 157.420583 2.82074 
L 163.000583 2.831632 
L 168.580583 2.931296 
L 174.160583 3.117658 
L 179.740583 3.16202 
L 185.320583 2.925289 
L 190.900583 2.75488 
L 196.480583 2.699447 
" clip-path="url(#p8cbcdcd729)" style="fill: none; stroke-dasharray: 1.85,0.8; stroke-dashoffset: 0; stroke: #808080; stroke-width: 0.5"/>
   </g>
   <g id="line2d_42">
    <path clip-path="url(#p8cbcdcd729)" style="fill: none; stroke-dasharray: 1.85,0.8; stroke-dashoffset: 0; stroke: #808080; stroke-width: 0.5"/>
   </g>
   <g id="line2d_43">
    <path clip-path="url(#p8cbcdcd729)" style="fill: none; stroke-dasharray: 1.85,0.8; stroke-dashoffset: 0; stroke: #808080; stroke-width: 0.5"/>
   </g>
   <g id="line2d_44">
    <path clip-path="url(#p8cbcdcd729)" style="fill: none; stroke-dasharray: 1.85,0.8; stroke-dashoffset: 0; stroke: #808080; stroke-width: 0.5"/>
   </g>
   <g id="line2d_45">
    <path clip-path="url(#p8cbcdcd729)" style="fill: none; stroke-dasharray: 1.85,0.8; stroke-dashoffset: 0; stroke: #808080; stroke-width: 0.5"/>
   </g>
   <g id="line2d_46">
    <path clip-path="url(#p8cbcdcd729)" style="fill: none; stroke-dasharray: 1.85,0.8; stroke-dashoffset: 0; stroke: #808080; stroke-width: 0.5"/>
   </g>
   <g id="line2d_47">
    <path clip-path="url(#p8cbcdcd729)" style="fill: none; stroke-dasharray: 1.85,0.8; stroke-dashoffset: 0; stroke: #808080; stroke-width: 0.5"/>
   </g>
   <g id="line2d_48">
    <path clip-path="url(#p8cbcdcd729)" style="fill: none; stroke-dasharray: 1.85,0.8; stroke-dashoffset: 0; stroke: #808080; stroke-width: 0.5"/>
   </g>
   <g id="line2d_49">
    <path clip-path="url(#p8cbcdcd729)" style="fill: none; stroke-dasharray: 1.85,0.8; stroke-dashoffset: 0; stroke: #808080; stroke-width: 0.5"/>
   </g>
   <g id="line2d_50">
    <path clip-path="url(#p8cbcdcd729)" style="fill: none; stroke-dasharray: 1.85,0.8; stroke-dashoffset: 0; stroke: #808080; stroke-width: 0.5"/>
   </g>
   <g id="line2d_51">
    <path clip-path="url(#p8cbcdcd729)" style="fill: none; stroke-dasharray: 1.85,0.8; stroke-dashoffset: 0; stroke: #808080; stroke-width: 0.5"/>
   </g>
   <g id="line2d_52">
    <path clip-path="url(#p8cbcdcd729)" style="fill: none; stroke-dasharray: 1.85,0.8; stroke-dashoffset: 0; stroke: #808080; stroke-width: 0.5"/>
   </g>
   <g id="line2d_53">
    <path clip-path="url(#p8cbcdcd729)" style="fill: none; stroke-dasharray: 1.85,0.8; stroke-dashoffset: 0; stroke: #808080; stroke-width: 0.5"/>
   </g>
   <g id="line2d_54">
    <path clip-path="url(#p8cbcdcd729)" style="fill: none; stroke-dasharray: 1.85,0.8; stroke-dashoffset: 0; stroke: #808080; stroke-width: 0.5"/>
   </g>
   <g id="line2d_55">
    <path clip-path="url(#p8cbcdcd729)" style="fill: none; stroke-dasharray: 1.85,0.8; stroke-dashoffset: 0; stroke: #808080; stroke-width: 0.5"/>
   </g>
   <g id="line2d_56">
    <path clip-path="url(#p8cbcdcd729)" style="fill: none; stroke-dasharray: 1.85,0.8; stroke-dashoffset: 0; stroke: #808080; stroke-width: 0.5"/>
   </g>
   <g id="line2d_57">
    <path clip-path="url(#p8cbcdcd729)" style="fill: none; stroke-dasharray: 1.85,0.8; stroke-dashoffset: 0; stroke: #808080; stroke-width: 0.5"/>
   </g>
   <g id="line2d_58">
    <path clip-path="url(#p8cbcdcd729)" style="fill: none; stroke-dasharray: 1.85,0.8; stroke-dashoffset: 0; stroke: #808080; stroke-width: 0.5"/>
   </g>
   <g id="line2d_59">
    <path clip-path="url(#p8cbcdcd729)" style="fill: none; stroke-dasharray: 1.85,0.8; stroke-dashoffset: 0; stroke: #808080; stroke-width: 0.5"/>
   </g>
   <g id="line2d_60">
    <path clip-path="url(#p8cbcdcd729)" style="fill: none; stroke-dasharray: 1.85,0.8; stroke-dashoffset: 0; stroke: #808080; stroke-width: 0.5"/>
   </g>
   <g id="line2d_61">
    <path clip-path="url(#p8cbcdcd729)" style="fill: none; stroke-dasharray: 1.85,0.8; stroke-dashoffset: 0; stroke: #808080; stroke-width: 0.5"/>
   </g>
   <g id="line2d_62">
    <path clip-path="url(#p8cbcdcd729)" style="fill: none; stroke-dasharray: 1.85,0.8; stroke-dashoffset: 0; stroke: #808080; stroke-width: 0.5"/>
   </g>
   <g id="line2d_63">
    <path clip-path="url(#p8cbcdcd729)" style="fill: none; stroke-dasharray: 1.85,0.8; stroke-dashoffset: 0; stroke: #808080; stroke-width: 0.5"/>
   </g>
   <g id="line2d_64">
    <path clip-path="url(#p8cbcdcd729)" style="fill: none; stroke-dasharray: 1.85,0.8; stroke-dashoffset: 0; stroke: #808080; stroke-width: 0.5"/>
   </g>
   <g id="line2d_65">
    <path clip-path="url(#p8cbcdcd729)" style="fill: none; stroke-dasharray: 1.85,0.8; stroke-dashoffset: 0; stroke: #808080; stroke-width: 0.5"/>
   </g>
   <g id="line2d_66">
    <path clip-path="url(#p8cbcdcd729)" style="fill: none; stroke-dasharray: 1.85,0.8; stroke-dashoffset: 0; stroke: #808080; stroke-width: 0.5"/>
   </g>
   <g id="line2d_67">
    <path d="M 81.25083 -1 
L 84.880583 1.358473 
L 90.460583 9.021536 
L 96.040583 4.072789 
L 101.620583 6.019101 
L 107.200583 6.714271 
L 112.780583 6.019101 
L 118.360583 4.072789 
L 123.940583 9.021536 
L 129.520583 1.358473 
L 133.150336 -1 
" clip-path="url(#p8cbcdcd729)" style="fill: none; stroke-dasharray: 1.85,0.8; stroke-dashoffset: 0; stroke: #808080; stroke-width: 0.5"/>
   </g>
   <g id="line2d_68">
    <path d="M 17.920583 4.329474 
L 23.500583 4.329474 
L 29.080583 4.329474 
L 34.660583 4.329474 
L 40.240583 4.329474 
L 45.820583 4.329474 
L 51.400583 4.329474 
L 56.980583 4.329474 
L 62.560583 4.329474 
L 68.140583 4.329474 
L 73.720583 4.329474 
L 79.300583 4.329474 
L 84.880583 4.329474 
L 90.460583 4.329474 
L 96.040583 4.329474 
L 101.620583 4.329474 
L 107.200583 4.329474 
L 112.780583 4.329474 
L 118.360583 4.329474 
L 123.940583 4.329474 
L 129.520583 4.329474 
L 135.100583 4.329474 
L 140.680583 4.329474 
L 146.260583 4.329474 
L 151.840583 4.329474 
L 157.420583 4.329474 
L 163.000583 4.329474 
L 168.580583 4.329474 
L 174.160583 4.329474 
L 179.740583 4.329474 
L 185.320583 4.329474 
L 190.900583 4.329474 
L 196.480583 4.329474 
" clip-path="url(#p8cbcdcd729)" style="fill: none; stroke-dasharray: 3.2,0.8,0.5,0.8; stroke-dashoffset: 0; stroke: #008000; stroke-width: 0.5"/>
   </g>
   <g id="line2d_69">
    <path clip-path="url(#p8cbcdcd729)" style="fill: none; stroke-dasharray: 3.2,0.8,0.5,0.8; stroke-dashoffset: 0; stroke: #008000; stroke-width: 0.5"/>
   </g>
   <g id="patch_3">
    <path d="M 17.920583 59.04 
L 17.920583 3.6 
" style="fill: none; stroke: #000000; stroke-width: 0.4; stroke-linejoin: miter; stroke-linecap: square"/>
   </g>
   <g id="patch_4">
    <path d="M 196.480583 59.04 
L 196.480583 3.6 
" style="fill: none; stroke: #000000; stroke-width: 0.4; stroke-linejoin: miter; stroke-linecap: square"/>
   </g>
   <g id="patch_5">
    <path d="M 17.920583 59.04 
L 196.480583 59.04 
" style="fill: none; stroke: #000000; stroke-width: 0.4; stroke-linejoin: miter; stroke-linecap: square"/>
   </g>
   <g id="patch_6">
    <path d="M 17.920583 3.6 
L 196.480583 3.6 
" style="fill: none; stroke: #000000; stroke-width: 0.4; stroke-linejoin: miter; stroke-linecap: square"/>
   </g>
   <g id="text_7">
    <!-- $d = {12}a$ -->
    <g transform="translate(133.984583 50.724) scale(0.08 -0.08)">
     <defs>
      <path id="LMSans17-Oblique-64" d="M 2611 -13 
L 3558 4416 
L 3085 4416 
L 2662 2495 
C 2502 2662 2208 2816 1850 2816 
C 1267 2816 672 2179 506 1375 
C 333 572 653 -64 1222 -64 
C 1664 -64 2010 172 2195 307 
L 2125 -13 
L 2611 -13 
z
M 2304 851 
C 2291 760 2266 663 2035 488 
C 1882 378 1715 326 1568 326 
C 1222 326 826 585 986 1369 
C 1158 2185 1722 2425 2074 2425 
C 2310 2425 2477 2308 2573 2114 
L 2304 851 
z
" transform="scale(0.015625)"/>
      <path id="LMSans17-Regular-3d" d="M 4339 2156 
C 4339 2272 4230 2272 4122 2272 
L 550 2272 
C 442 2272 333 2272 333 2156 
C 333 2048 429 2048 525 2048 
L 4147 2048 
C 4243 2048 4339 2048 4339 2156 
z
M 4339 1043 
C 4339 1152 4243 1152 4147 1152 
L 525 1152 
C 429 1152 333 1152 333 1043 
C 333 927 442 927 550 927 
L 4122 927 
C 4230 927 4339 927 4339 1043 
z
" transform="scale(0.015625)"/>
      <path id="LMSans17-Regular-31" d="M 2573 0 
L 2573 371 
L 1818 371 
L 1818 4288 
L 1696 4288 
C 1350 3951 947 3903 538 3891 
L 538 3520 
C 723 3526 1024 3539 1325 3673 
L 1325 371 
L 570 371 
L 570 0 
L 2573 0 
z
" transform="scale(0.015625)"/>
      <path id="LMSans17-Regular-32" d="M 2701 0 
L 2701 435 
L 1613 435 
C 1536 435 1459 428 1382 428 
L 742 428 
L 742 435 
L 1651 1353 
C 1830 1538 2099 1761 2285 1984 
C 2464 2201 2701 2507 2701 2953 
C 2701 3655 2227 4288 1421 4288 
C 787 4288 422 3891 250 3272 
L 499 2928 
C 640 3508 838 3878 1338 3878 
C 1888 3878 2195 3431 2195 2940 
C 2195 2354 1747 1901 1408 1563 
L 301 409 
L 301 0 
L 2701 0 
z
" transform="scale(0.015625)"/>
      <path id="LMSans17-Oblique-61" d="M 2470 -13 
L 2854 1789 
C 2982 2399 2643 2816 2067 2816 
C 1786 2816 1466 2764 1069 2559 
L 1018 2133 
C 1203 2250 1517 2438 1978 2438 
C 2304 2438 2451 2185 2368 1782 
L 2317 1536 
C 1286 1504 582 1209 474 711 
C 422 452 467 -64 998 -64 
C 1094 -64 1619 -52 2048 224 
L 1997 -13 
L 2470 -13 
z
M 2163 824 
C 2138 711 2106 559 1888 446 
C 1702 339 1485 326 1395 326 
C 1075 326 896 503 947 723 
C 1043 1165 2048 1209 2246 1216 
L 2163 824 
z
" transform="scale(0.015625)"/>
     </defs>
     <use xlink:href="#LMSans17-Oblique-64" transform="scale(0.996264)"/>
     <use xlink:href="#LMSans17-Regular-3d" transform="translate(85.755063 0) scale(0.996264)"/>
     <use xlink:href="#LMSans17-Regular-31" transform="translate(186.298238 0) scale(0.996264)"/>
     <use xlink:href="#LMSans17-Regular-32" transform="translate(233.142242 0) scale(0.996264)"/>
     <use xlink:href="#LMSans17-Oblique-61" transform="translate(279.986245 0) scale(0.996264)"/>
    </g>
   </g>
  </g>
 </g>
 <defs>
  <clipPath id="p8cbcdcd729">
   <rect x="17.920583" y="3.6" width="178.56" height="55.44"/>
  </clipPath>
 </defs>
</svg>
